<svg width="100" height="100" viewBox="0 0 100 100" fill="none" xmlns="http://www.w3.org/2000/svg">
<path d="M50 7.78751C57.7656 7.78751 64.0625 14.0703 64.0625 21.85C64.0625 29.6172 57.7656 35.9125 50 35.9125C42.2344 35.9125 35.9375 29.6172 35.9375 21.85C35.9375 14.0719 42.2344 7.78751 50 7.78751ZM73.4375 42.1969C87.25 42.1969 98.4375 53.4 98.4375 67.1969C98.4375 81.0094 87.25 92.1969 73.4375 92.1969V92.2125H26.5625V92.1969C12.75 92.1969 1.5625 81.0094 1.5625 67.1969C1.5625 53.4 12.75 42.1969 26.5625 42.1969H73.4375ZM78.125 67.1969C78.125 60.2906 72.5156 54.6969 65.6094 54.6969H63.9844C60.5469 50.8516 55.5609 48.4469 50 48.4469C44.4391 48.4469 39.4531 50.8516 36.0156 54.6969H34.3906C27.4844 54.6969 21.875 60.2906 21.875 67.1969C21.875 74.1188 27.4844 79.7125 34.3906 79.7125H65.6094C72.5156 79.7125 78.125 74.1188 78.125 67.1969Z" fill="#29A140"/>
<path opacity="0.3" d="M32.875 59.525C31.8281 61.8687 31.25 64.4625 31.25 67.1969C31.25 69.9312 31.8437 72.5406 32.8906 74.8844C29.2812 74.1797 26.5625 71.0094 26.5625 67.1969C26.5625 63.4 29.2813 60.2266 32.875 59.525ZM67.125 59.525C70.7188 60.2266 73.4375 63.4 73.4375 67.1969C73.4375 71.0078 70.7188 74.1797 67.1094 74.8844C68.1562 72.5406 68.75 69.9312 68.75 67.1969C68.75 64.4625 68.1719 61.8687 67.125 59.525Z" fill="#30363D"/>
<path opacity="0.3" d="M65.6094 54.6969C72.5156 54.6969 78.125 60.2906 78.125 67.1969C78.125 74.1187 72.5156 79.7125 65.6094 79.7125H34.3906C27.4844 79.7125 21.875 74.1187 21.875 67.1969C21.875 60.2906 27.4844 54.6969 34.3906 54.6969H36.0156C34.7359 56.1344 33.6719 57.7578 32.875 59.525C29.2813 60.2266 26.5625 63.4 26.5625 67.1969C26.5625 71.0078 29.2812 74.1797 32.8906 74.8844C33.3766 74.9766 33.875 75.025 34.3906 75.025H65.6094C66.125 75.025 66.6234 74.9766 67.1094 74.8844C70.7188 74.1797 73.4375 71.0094 73.4375 67.1969C73.4375 63.4 70.7188 60.2266 67.125 59.525C66.3281 57.7578 65.2656 56.1344 63.9844 54.6969H65.6094Z" fill="#6C7886"/>
<path d="M68.75 67.1969C68.75 69.9312 68.1562 72.5406 67.1094 74.8844C66.6234 74.9766 66.125 75.025 65.6094 75.025H34.3906C33.875 75.025 33.3766 74.9766 32.8906 74.8844C31.8437 72.5406 31.25 69.9312 31.25 67.1969C31.25 64.4625 31.8281 61.8687 32.875 59.525C33.6719 57.7578 34.7344 56.1344 36.0156 54.6969C39.4531 50.8516 44.4391 48.4469 50 48.4469C55.5609 48.4469 60.5469 50.8516 63.9844 54.6969C65.2641 56.1344 66.3281 57.7578 67.125 59.525C68.1719 61.8687 68.75 64.4625 68.75 67.1969Z" fill="#FFC10B"/>
<path d="M65 68.373C65 70.6878 64.525 72.8968 63.6875 74.881C63.2988 74.959 62.9 75 62.4875 75H37.5125C37.1 75 36.7012 74.959 36.3125 74.881C35.475 72.8968 35 70.6878 35 68.373C35 66.0582 35.4625 63.8624 36.3 61.8783C36.9375 60.3823 37.7875 59.0079 38.8125 57.791C41.5625 54.5357 45.5513 52.5 50 52.5C54.4487 52.5 58.4375 54.5357 61.1875 57.791C62.2113 59.0079 63.0625 60.3823 63.7 61.8783C64.5375 63.8624 65 66.0582 65 68.373Z" fill="#F7931A"/>
<path d="M48.4402 28.1406C48.0402 28.1406 47.6402 27.9875 47.3355 27.6828L44.2121 24.5609C43.6012 23.95 43.6012 22.9625 44.2121 22.3516C44.823 21.7406 45.8105 21.7406 46.4215 22.3516L49.5449 25.4734C50.1559 26.0844 50.1559 27.0719 49.5449 27.6828C49.2402 27.9875 48.8402 28.1406 48.4402 28.1406Z" fill="#F4FAFF"/>
<path d="M48.4408 28.1406C48.0408 28.1406 47.6408 27.9875 47.3361 27.6828C46.7252 27.0719 46.7252 26.0844 47.3361 25.4734L55.1471 17.6641C55.758 17.0531 56.7455 17.0531 57.3564 17.6641C57.9674 18.275 57.9674 19.2625 57.3564 19.8734L49.5455 27.6828C49.2408 27.9875 48.8408 28.1406 48.4408 28.1406Z" fill="#F4FAFF"/>
</svg>
