<svg width="431" height="140" viewBox="0 0 431 140" fill="none" xmlns="http://www.w3.org/2000/svg">
<path d="M45.7341 135.612L45.7341 118.132L63.2234 118.132L63.2234 135.612L45.7341 135.612Z" fill="#0D1117" fill-opacity="0.08"/>
<path d="M150.67 135.612L150.67 118.132L168.159 118.132L168.159 135.612L150.67 135.612Z" fill="#0D1117" fill-opacity="0.08"/>
<path d="M98.2018 135.613L98.2018 118.133L115.691 118.133L115.691 135.613L98.2018 135.613Z" fill="#0D1117" fill-opacity="0.08"/>
<path d="M71.9675 135.613L71.9675 118.133L89.4568 118.133L89.4568 135.613L71.9675 135.613Z" fill="#0D1117" fill-opacity="0.08"/>
<path d="M124.435 135.613L124.435 118.133L141.925 118.133L141.925 135.613L124.435 135.613Z" fill="#0D1117" fill-opacity="0.08"/>
<path d="M255.596 56.9521L255.596 39.4717L273.085 39.4717L273.085 56.9521L255.596 56.9521Z" fill="#0D1117" fill-opacity="0.08"/>
<path d="M98.1932 56.9521L98.1932 39.4717L115.682 39.4717L115.682 56.9521L98.1932 56.9521Z" fill="#0D1117" fill-opacity="0.08"/>
<path d="M308.064 56.9502L308.064 39.4697L325.553 39.4698L325.553 56.9502L308.064 56.9502Z" fill="#0D1117" fill-opacity="0.1"/>
<path d="M203.129 56.9502L203.129 39.4697L220.618 39.4698L220.618 56.9502L203.129 56.9502Z" fill="#0D1117" fill-opacity="0.1"/>
<path d="M-6.73369 56.9492L-6.73369 39.4688L10.7556 39.4688L10.7556 56.9492L-6.73369 56.9492Z" fill="#0D1117" fill-opacity="0.08"/>
<path d="M281.83 56.9492L281.83 39.4688L299.319 39.4688L299.319 56.9492L281.83 56.9492Z" fill="#0D1117" fill-opacity="0.08"/>
<path d="M176.895 56.9492L176.895 39.4688L194.385 39.4688L194.385 56.9492L176.895 56.9492Z" fill="#0D1117" fill-opacity="0.1"/>
<path d="M334.298 56.9502L334.298 39.4697L351.787 39.4698L351.787 56.9502L334.298 56.9502Z" fill="#0D1117" fill-opacity="0.08"/>
<path d="M19.5006 56.9492L19.5006 39.4688L36.9899 39.4688L36.9899 56.9492L19.5006 56.9492Z" fill="#0D1117" fill-opacity="0.08"/>
<path d="M45.7341 109.392L45.7341 91.9112L63.2234 91.9112L63.2234 109.392L45.7341 109.392Z" fill="#0D1117" fill-opacity="0.08"/>
<path d="M98.2019 109.392L98.2019 91.9112L115.691 91.9112L115.691 109.392L98.2019 109.392Z" fill="#0D1117" fill-opacity="0.08"/>
<path d="M308.064 109.392L308.064 91.9112L325.553 91.9112L325.553 109.392L308.064 109.392Z" fill="#0D1117" fill-opacity="0.08"/>
<path d="M203.129 109.393L203.129 91.9121L220.618 91.9121L220.618 109.393L203.129 109.393Z" fill="#0D1117" fill-opacity="0.08"/>
<path d="M-6.73375 109.391L-6.73375 91.9102L10.7555 91.9102L10.7555 109.391L-6.73375 109.391Z" fill="#0D1117" fill-opacity="0.08"/>
<path d="M71.9675 109.392L71.9675 91.9112L89.4568 91.9112L89.4568 109.392L71.9675 109.392Z" fill="#0D1117" fill-opacity="0.08"/>
<path d="M281.83 109.393L281.83 91.9121L299.319 91.9121L299.319 109.393L281.83 109.393Z" fill="#0D1117" fill-opacity="0.1"/>
<path d="M176.895 109.393L176.895 91.9121L194.385 91.9121L194.385 109.393L176.895 109.393Z" fill="#0D1117" fill-opacity="0.08"/>
<path d="M334.298 109.392L334.298 91.9112L351.787 91.9112L351.787 109.392L334.298 109.392Z" fill="#0D1117" fill-opacity="0.08"/>
<path d="M229.362 109.392L229.362 91.9112L246.851 91.9112L246.851 109.392L229.362 109.392Z" fill="#0D1117" fill-opacity="0.08"/>
<path d="M45.7341 30.7285L45.7341 13.2481L63.2233 13.2481L63.2233 30.7285L45.7341 30.7285Z" fill="#0D1117" fill-opacity="0.08"/>
<path d="M255.596 30.7285L255.596 13.2481L273.085 13.2481L273.085 30.7285L255.596 30.7285Z" fill="#0D1117" fill-opacity="0.1"/>
<path d="M150.67 30.7285L150.67 13.2481L168.159 13.2481L168.159 30.7285L150.67 30.7285Z" fill="#0D1117" fill-opacity="0.08"/>
<path d="M360.531 30.7285L360.531 13.2481L378.02 13.2481L378.02 30.7285L360.531 30.7285Z" fill="#0D1117" fill-opacity="0.08"/>
<path d="M98.2018 30.7285L98.2018 13.2481L115.691 13.2481L115.691 30.7285L98.2018 30.7285Z" fill="#0D1117" fill-opacity="0.08"/>
<path d="M308.064 30.7285L308.064 13.2481L325.553 13.2481L325.553 30.7285L308.064 30.7285Z" fill="#0D1117" fill-opacity="0.08"/>
<path d="M203.129 30.7285L203.129 13.2481L220.618 13.2481L220.618 30.7285L203.129 30.7285Z" fill="#0D1117" fill-opacity="0.08"/>
<path d="M-6.73366 30.7285L-6.73366 13.2481L10.7556 13.2481L10.7556 30.7285L-6.73366 30.7285Z" fill="#0D1117" fill-opacity="0.08"/>
<path d="M412.999 30.7285L412.999 13.2481L430.488 13.2481L430.488 30.7285L412.999 30.7285Z" fill="#0D1117" fill-opacity="0.08"/>
<path d="M71.9675 30.7285L71.9675 13.2481L89.4568 13.2481L89.4568 30.7285L71.9675 30.7285Z" fill="#0D1117" fill-opacity="0.08"/>
<path d="M281.83 30.7285L281.83 13.2481L299.319 13.2481L299.319 30.7285L281.83 30.7285Z" fill="#0D1117" fill-opacity="0.08"/>
<path d="M386.766 30.7285L386.766 13.2481L404.255 13.2481L404.255 30.7285L386.766 30.7285Z" fill="#0D1117" fill-opacity="0.08"/>
<path d="M334.298 30.7285L334.298 13.2481L351.787 13.2481L351.787 30.7285L334.298 30.7285Z" fill="#0D1117" fill-opacity="0.1"/>
<path d="M229.362 30.7285L229.362 13.2481L246.851 13.2481L246.851 30.7285L229.362 30.7285Z" fill="url(#paint0_linear_134_22643)"/>
<defs>
<linearGradient id="paint0_linear_134_22643" x1="229.362" y1="23.4304" x2="230.891" y2="11.6824" gradientUnits="userSpaceOnUse">
<stop stop-color="#4B5DD9"/>
<stop offset="1" stop-color="#4BA2FF"/>
</linearGradient>
</defs>
</svg>
