<svg width="158" height="292" viewBox="0 0 158 292" fill="none" xmlns="http://www.w3.org/2000/svg">
<path d="M133.882 253.709L133.882 244.317L143.279 244.317L143.279 253.709L133.882 253.709Z" fill="#F5F7F9" fill-opacity="0.1"/>
<path d="M7.02344 87.3696L7.02344 77.9772L16.4206 77.9772L16.4206 87.3696L7.02344 87.3696Z" fill="#F5F7F9" fill-opacity="0.08"/>
<path d="M-7.07227 87.3696L-7.07227 77.9772L2.32493 77.9772L2.32493 87.3696L-7.07227 87.3696Z" fill="#F5F7F9" fill-opacity="0.08"/>
<path d="M119.785 169.176L119.785 159.783L129.182 159.783L129.182 169.176L119.785 169.176Z" fill="#F5F7F9" fill-opacity="0.08"/>
<path d="M147.976 169.176L147.976 159.783L157.373 159.783L157.373 169.176L147.976 169.176Z" fill="#F5F7F9" fill-opacity="0.08"/>
<path d="M133.88 169.176L133.88 159.783L143.277 159.783L143.277 169.176L133.88 169.176Z" fill="#F5F7F9" fill-opacity="0.08"/>
<path d="M63.4004 2.83643L63.4004 -6.55603L72.7976 -6.55603L72.7976 2.83643L63.4004 2.83643Z" fill="#F5F7F9" fill-opacity="0.08"/>
<path d="M7.02441 2.83643L7.02441 -6.55603L16.4216 -6.55603L16.4216 2.83643L7.02441 2.83643Z" fill="#F5F7F9" fill-opacity="0.08"/>
<path d="M119.785 2.83643L119.785 -6.55603L129.182 -6.55603L129.182 2.83643L119.785 2.83643Z" fill="#F5F7F9" fill-opacity="0.1"/>
<path d="M91.5947 2.83643L91.5947 -6.55603L100.992 -6.55603L100.992 2.83643L91.5947 2.83643Z" fill="#F5F7F9" fill-opacity="0.08"/>
<path d="M35.21 2.83643L35.21 -6.55603L44.6072 -6.55603L44.6072 2.83643L35.21 2.83643Z" fill="#F5F7F9" fill-opacity="0.08"/>
<path d="M147.977 2.83643L147.977 -6.55603L157.374 -6.55603L157.374 2.83643L147.977 2.83643Z" fill="#F5F7F9" fill-opacity="0.08"/>
<path d="M77.4961 2.83838L77.4961 -6.55407L86.8933 -6.55407L86.8933 2.83838L77.4961 2.83838Z" fill="#F5F7F9" fill-opacity="0.08"/>
<path d="M21.1143 2.83838L21.1143 -6.55407L30.5115 -6.55407L30.5115 2.83838L21.1143 2.83838Z" fill="#F5F7F9" fill-opacity="0.08"/>
<path d="M133.881 2.83838L133.881 -6.55407L143.278 -6.55407L143.278 2.83838L133.881 2.83838Z" fill="#F5F7F9" fill-opacity="0.08"/>
<path d="M-7.07617 2.83838L-7.07617 -6.55407L2.32102 -6.55407L2.32102 2.83838L-7.07617 2.83838Z" fill="#F5F7F9" fill-opacity="0.08"/>
<path d="M105.689 2.83838L105.689 -6.55407L115.087 -6.55407L115.087 2.83838L105.689 2.83838Z" fill="#F5F7F9" fill-opacity="0.08"/>
<path d="M49.3057 2.83838L49.3057 -6.55407L58.7029 -6.55407L58.7029 2.83838L49.3057 2.83838Z" fill="#F5F7F9" fill-opacity="0.08"/>
<path d="M119.785 211.442L119.785 202.05L129.182 202.05L129.182 211.442L119.785 211.442Z" fill="#F5F7F9" fill-opacity="0.08"/>
<path d="M147.977 211.442L147.977 202.05L157.374 202.05L157.374 211.442L147.977 211.442Z" fill="#F5F7F9" fill-opacity="0.08"/>
<path d="M133.881 211.442L133.881 202.05L143.278 202.05L143.278 211.442L133.881 211.442Z" fill="#F5F7F9" fill-opacity="0.08"/>
<path d="M63.4014 45.1045L63.4014 35.712L72.7986 35.712L72.7986 45.1045L63.4014 45.1045Z" fill="#F5F7F9" fill-opacity="0.08"/>
<path d="M91.5918 45.1035L91.5918 35.7111L100.989 35.7111L100.989 45.1035L91.5918 45.1035Z" fill="#F5F7F9" fill-opacity="0.1"/>
<path d="M35.2109 45.103L35.2109 35.7106L44.6081 35.7106L44.6081 45.103L35.2109 45.103Z" fill="#F5F7F9" fill-opacity="0.1"/>
<path d="M77.4971 45.103L77.4971 35.7106L86.8943 35.7106L86.8943 45.103L77.4971 45.103Z" fill="#F5F7F9" fill-opacity="0.08"/>
<path d="M21.1152 45.103L21.1152 35.7106L30.5124 35.7106L30.5124 45.103L21.1152 45.103Z" fill="#F5F7F9" fill-opacity="0.1"/>
<path d="M105.69 45.103L105.69 35.7106L115.088 35.7106L115.088 45.103L105.69 45.103Z" fill="#F5F7F9" fill-opacity="0.08"/>
<path d="M119.784 126.908L119.784 117.516L129.181 117.516L129.181 126.908L119.784 126.908Z" fill="#F5F7F9" fill-opacity="0.08"/>
<path d="M147.976 126.909L147.976 117.516L157.373 117.516L157.373 126.909L147.976 126.909Z" fill="#F5F7F9" fill-opacity="0.08"/>
<path d="M133.88 126.909L133.88 117.517L143.277 117.517L143.277 126.909L133.88 126.909Z" fill="#F5F7F9" fill-opacity="0.08"/>
<path d="M119.783 239.62L119.783 230.228L129.18 230.228L129.18 239.62L119.783 239.62Z" fill="#F5F7F9" fill-opacity="0.08"/>
<path d="M147.977 239.62L147.977 230.228L157.374 230.228L157.374 239.62L147.977 239.62Z" fill="#F5F7F9" fill-opacity="0.08"/>
<path d="M133.882 239.62L133.882 230.228L143.279 230.228L143.279 239.62L133.882 239.62Z" fill="#F5F7F9" fill-opacity="0.1"/>
<path d="M91.5928 73.2808L91.5928 63.8883L100.99 63.8883L100.99 73.2808L91.5928 73.2808Z" fill="#F5F7F9" fill-opacity="0.08"/>
<path d="M35.2109 73.2812L35.2109 63.8888L44.6081 63.8888L44.6081 73.2813L35.2109 73.2812Z" fill="#F5F7F9" fill-opacity="0.08"/>
<path d="M77.4971 73.2808L77.4971 63.8883L86.8943 63.8883L86.8943 73.2808L77.4971 73.2808Z" fill="#F5F7F9" fill-opacity="0.1"/>
<path d="M21.1152 73.2812L21.1152 63.8888L30.5124 63.8888L30.5124 73.2813L21.1152 73.2812Z" fill="#F5F7F9" fill-opacity="0.08"/>
<path d="M105.688 73.2808L105.688 63.8883L115.086 63.8883L115.086 73.2808L105.688 73.2808Z" fill="#F5F7F9" fill-opacity="0.08"/>
<path d="M49.3066 73.2808L49.3066 63.8883L58.7038 63.8883L58.7038 73.2808L49.3066 73.2808Z" fill="#F5F7F9" fill-opacity="0.08"/>
<path d="M119.785 155.085L119.785 145.693L129.182 145.693L129.182 155.085L119.785 155.085Z" fill="#F5F7F9" fill-opacity="0.08"/>
<path d="M147.976 155.085L147.976 145.693L157.373 145.693L157.373 155.085L147.976 155.085Z" fill="#F5F7F9" fill-opacity="0.08"/>
<path d="M133.88 155.086L133.88 145.693L143.277 145.693L143.277 155.086L133.88 155.086Z" fill="#F5F7F9" fill-opacity="0.08"/>
<path d="M147.977 197.353L147.977 187.961L157.374 187.961L157.374 197.353L147.977 197.353Z" fill="#F5F7F9" fill-opacity="0.1"/>
<path d="M133.881 197.353L133.881 187.96L143.278 187.96L143.278 197.353L133.881 197.353Z" fill="#F5F7F9" fill-opacity="0.08"/>
<path d="M63.4014 31.0142L63.4014 21.6217L72.7986 21.6217L72.7986 31.0142L63.4014 31.0142Z" fill="#F5F7F9" fill-opacity="0.1"/>
<path d="M7.02246 31.0142L7.02246 21.6217L16.4197 21.6217L16.4197 31.0142L7.02246 31.0142Z" fill="#F5F7F9" fill-opacity="0.08"/>
<path d="M119.786 31.0142L119.786 21.6217L129.183 21.6217L129.183 31.0142L119.786 31.0142Z" fill="#F5F7F9" fill-opacity="0.08"/>
<path d="M91.5947 31.0142L91.5947 21.6217L100.992 21.6217L100.992 31.0142L91.5947 31.0142Z" fill="#F5F7F9" fill-opacity="0.08"/>
<path d="M35.21 31.0142L35.21 21.6217L44.6072 21.6217L44.6072 31.0142L35.21 31.0142Z" fill="#F5F7F9" fill-opacity="0.08"/>
<path d="M147.977 31.0142L147.977 21.6217L157.374 21.6217L157.374 31.0142L147.977 31.0142Z" fill="#F5F7F9" fill-opacity="0.08"/>
<path d="M77.4971 31.0142L77.4971 21.6217L86.8943 21.6217L86.8943 31.0142L77.4971 31.0142Z" fill="#F5F7F9" fill-opacity="0.08"/>
<path d="M133.881 31.0142L133.881 21.6217L143.278 21.6217L143.278 31.0142L133.881 31.0142Z" fill="#F5F7F9" fill-opacity="0.08"/>
<path d="M105.69 31.0142L105.69 21.6217L115.088 21.6217L115.088 31.0142L105.69 31.0142Z" fill="#F5F7F9" fill-opacity="0.1"/>
<path d="M49.3057 31.0142L49.3057 21.6217L58.7029 21.6217L58.7029 31.0142L49.3057 31.0142Z" fill="url(#paint0_linear_142_45225)"/>
<path d="M119.784 112.819L119.784 103.426L129.181 103.426L129.181 112.819L119.784 112.819Z" fill="#F5F7F9" fill-opacity="0.08"/>
<path d="M147.975 112.819L147.975 103.426L157.372 103.426L157.372 112.819L147.975 112.819Z" fill="#F5F7F9" fill-opacity="0.08"/>
<path d="M133.88 112.819L133.88 103.427L143.277 103.427L143.277 112.819L133.88 112.819Z" fill="#F5F7F9" fill-opacity="0.08"/>
<path d="M77.5107 260.959L77.5107 251.567L86.9079 251.567L86.9079 260.959L77.5107 260.959Z" fill="#F5F7F9" fill-opacity="0.08"/>
<path d="M21.127 260.959L21.127 251.567L30.5241 251.567L30.5241 260.959L21.127 260.959Z" fill="#F5F7F9" fill-opacity="0.08"/>
<path d="M63.416 260.959L63.416 251.567L72.8132 251.567L72.8132 260.959L63.416 260.959Z" fill="#F5F7F9" fill-opacity="0.08"/>
<path d="M91.6064 260.959L91.6064 251.567L101.004 251.567L101.004 260.959L91.6064 260.959Z" fill="#F5F7F9" fill-opacity="0.08"/>
<path d="M49.3203 289.137L49.3203 279.744L58.7175 279.744L58.7175 289.137L49.3203 289.137Z" fill="#F5F7F9" fill-opacity="0.08"/>
<path d="M21.127 289.137L21.127 279.744L30.5241 279.744L30.5241 289.137L21.127 289.137Z" fill="#F5F7F9" fill-opacity="0.08"/>
<path d="M63.416 289.137L63.416 279.744L72.8132 279.744L72.8132 289.137L63.416 289.137Z" fill="#F5F7F9" fill-opacity="0.08"/>
<path d="M91.6064 289.137L91.6064 279.744L101.004 279.744L101.004 289.137L91.6064 289.137Z" fill="#F5F7F9" fill-opacity="0.1"/>
<path d="M35.2256 289.137L35.2256 279.744L44.6228 279.744L44.6228 289.137L35.2256 289.137Z" fill="#F5F7F9" fill-opacity="0.08"/>
<path d="M77.5107 275.048L77.5107 265.655L86.9079 265.655L86.9079 275.048L77.5107 275.048Z" fill="#F5F7F9" fill-opacity="0.08"/>
<path d="M21.127 275.048L21.127 265.655L30.5241 265.655L30.5241 275.048L21.127 275.048Z" fill="#F5F7F9" fill-opacity="0.1"/>
<defs>
<linearGradient id="paint0_linear_142_45225" x1="49.3057" y1="27.0928" x2="50.1272" y2="20.7804" gradientUnits="userSpaceOnUse">
<stop stop-color="#4B5DD9"/>
<stop offset="1" stop-color="#4BA2FF"/>
</linearGradient>
</defs>
</svg>
