<svg width="16" height="16" viewBox="0 0 16 16" fill="none" xmlns="http://www.w3.org/2000/svg">
<path d="M6.44235 11.3333H9.55764M8 2V2.66667M12.2426 3.75736L11.7712 4.22876M14 7.99997H13.3334M2.6667 7.99996H2.00003M4.22876 4.22876L3.75735 3.75736M5.64297 10.357C4.34122 9.05529 4.34122 6.94474 5.64297 5.64299C6.94472 4.34125 9.05527 4.34125 10.357 5.64299C11.6588 6.94474 11.6588 9.05529 10.357 10.357L9.99229 10.7218C9.57036 11.1437 9.33333 11.7159 9.33333 12.3126V12.6667C9.33333 13.403 8.73637 14 8 14C7.26362 14 6.66666 13.403 6.66666 12.6667V12.3126C6.66666 11.7159 6.42963 11.1437 6.0077 10.7218L5.64297 10.357Z" stroke="#6C7886" stroke-width="1.5" stroke-linecap="round" stroke-linejoin="round"/>
</svg>
