<svg width="14" height="14" viewBox="0 0 14 14" fill="none" xmlns="http://www.w3.org/2000/svg">
<path d="M7.00002 1.3999C7.38662 1.3999 7.70002 1.7133 7.70002 2.0999V2.7999C7.70002 3.1865 7.38662 3.4999 7.00002 3.4999C6.61343 3.4999 6.30002 3.1865 6.30002 2.7999V2.0999C6.30002 1.7133 6.61343 1.3999 7.00002 1.3999Z" fill="black"/>
<path d="M9.80002 6.9999C9.80002 8.5463 8.54642 9.7999 7.00002 9.7999C5.45363 9.7999 4.20002 8.5463 4.20002 6.9999C4.20002 5.45351 5.45363 4.1999 7.00002 4.1999C8.54642 4.1999 9.80002 5.45351 9.80002 6.9999Z" fill="black"/>
<path d="M9.47494 10.4647L9.96991 10.9597C10.2433 11.233 10.6865 11.233 10.9599 10.9597C11.2332 10.6863 11.2332 10.2431 10.9599 9.96972L10.4649 9.47475C10.1915 9.20138 9.7483 9.20138 9.47494 9.47475C9.20157 9.74812 9.20157 10.1913 9.47494 10.4647Z" fill="black"/>
<path d="M10.9598 3.04007C11.2332 3.31343 11.2332 3.75665 10.9598 4.03002L10.4648 4.52499C10.1915 4.79836 9.74824 4.79836 9.47487 4.52499C9.2015 4.25163 9.2015 3.80841 9.47487 3.53504L9.96985 3.04007C10.2432 2.7667 10.6864 2.7667 10.9598 3.04007Z" fill="black"/>
<path d="M11.9 7.6999C12.2866 7.6999 12.6 7.3865 12.6 6.9999C12.6 6.6133 12.2866 6.2999 11.9 6.2999H11.2C10.8134 6.2999 10.5 6.6133 10.5 6.9999C10.5 7.3865 10.8134 7.6999 11.2 7.6999H11.9Z" fill="black"/>
<path d="M7.00002 10.4999C7.38662 10.4999 7.70002 10.8133 7.70002 11.1999V11.8999C7.70002 12.2865 7.38662 12.5999 7.00002 12.5999C6.61343 12.5999 6.30002 12.2865 6.30002 11.8999V11.1999C6.30002 10.8133 6.61343 10.4999 7.00002 10.4999Z" fill="black"/>
<path d="M3.53524 4.525C3.80861 4.79837 4.25182 4.79837 4.52519 4.525C4.79856 4.25164 4.79856 3.80842 4.52519 3.53505L4.03022 3.04008C3.75685 2.76671 3.31363 2.76671 3.04027 3.04008C2.7669 3.31345 2.7669 3.75666 3.04027 4.03003L3.53524 4.525Z" fill="black"/>
<path d="M4.52513 10.4647L4.03015 10.9597C3.75678 11.233 3.31357 11.233 3.0402 10.9597C2.76683 10.6863 2.76683 10.2431 3.0402 9.96971L3.53518 9.47474C3.80854 9.20137 4.25176 9.20137 4.52513 9.47474C4.79849 9.7481 4.79849 10.1913 4.52513 10.4647Z" fill="black"/>
<path d="M2.80002 7.6999C3.18662 7.6999 3.50002 7.3865 3.50002 6.9999C3.50002 6.6133 3.18662 6.2999 2.80002 6.2999H2.10002C1.71343 6.2999 1.40002 6.6133 1.40002 6.9999C1.40002 7.3865 1.71343 7.6999 2.10002 7.6999H2.80002Z" fill="black"/>
</svg>
