<svg width="20" height="20" viewBox="0 0 20 20" fill="none" xmlns="http://www.w3.org/2000/svg">
<path d="M17.5 6.66667C16.25 6.66667 15.5833 7.83333 15.9166 8.75L12.9166 11.75C12.6666 11.6667 12.3333 11.6667 12.0833 11.75L9.91665 9.58333C10.25 8.66667 9.58331 7.5 8.33331 7.5C7.16665 7.5 6.41665 8.66667 6.74998 9.58333L2.91665 13.3333C1.99998 13.0833 0.833313 13.75 0.833313 15C0.833313 15.9167 1.58331 16.6667 2.49998 16.6667C3.66665 16.6667 4.41665 15.5 4.08331 14.5833L7.83331 10.75C8.08331 10.8333 8.41665 10.8333 8.66665 10.75L10.8333 12.9167C10.5833 13.75 11.25 15 12.5 15C13.75 15 14.4166 13.8333 14.0833 12.9167L17.0833 9.91667C18 10.1667 19.1666 9.5 19.1666 8.33333C19.1666 7.41667 18.4166 6.66667 17.5 6.66667ZM12.5 7.5L13.25 5.75L15 5L13.25 4.25L12.5 2.5L11.75 4.25L9.99998 5L11.75 5.75L12.5 7.5ZM2.91665 9.16667L3.33331 7.5L4.99998 7.08333L3.33331 6.66667L2.91665 5L2.49998 6.66667L0.833313 7.08333L2.49998 7.5L2.91665 9.16667Z" fill="#6C7886"/>
</svg>
