<svg width="734" height="909" viewBox="0 0 734 909" fill="none" xmlns="http://www.w3.org/2000/svg">
<path d="M668.063 69.9576L650.583 69.9576L650.583 52.4684L668.063 52.4684L668.063 69.9576Z" fill="#F5F7F9" fill-opacity="0.08"/>
<path d="M668.063 17.4894L650.583 17.4894L650.583 0.000122404L668.063 0.000123978L668.063 17.4894Z" fill="#F5F7F9" fill-opacity="0.08"/>
<path d="M668.063 43.7227L650.583 43.7227L650.583 26.2334L668.063 26.2334L668.063 43.7227Z" fill="#F5F7F9" fill-opacity="0.1"/>
<path d="M358.49 384.763L341.009 384.763L341.009 367.273L358.49 367.273L358.49 384.763Z" fill="#F5F7F9" fill-opacity="0.08"/>
<path d="M358.49 279.827L341.009 279.827L341.009 262.338L358.49 262.338L358.49 279.827Z" fill="#F5F7F9" fill-opacity="0.08"/>
<path d="M358.49 332.295L341.009 332.295L341.009 314.806L358.49 314.806L358.49 332.295Z" fill="#F5F7F9" fill-opacity="0.08"/>
<path d="M358.49 437.23L341.009 437.23L341.009 419.741L358.49 419.741L358.49 437.23Z" fill="#F5F7F9" fill-opacity="0.08"/>
<path d="M358.49 306.062L341.009 306.062L341.009 288.572L358.49 288.572L358.49 306.062Z" fill="#F5F7F9" fill-opacity="0.08"/>
<path d="M358.49 410.996L341.009 410.996L341.009 393.507L358.49 393.507L358.49 410.996Z" fill="#F5F7F9" fill-opacity="0.08"/>
<path d="M510.739 69.9576L493.258 69.9576L493.258 52.4684L510.739 52.4684L510.739 69.9576Z" fill="#F5F7F9" fill-opacity="0.18"/>
<path d="M510.739 17.4894L493.258 17.4894L493.258 0.000122404L510.739 0.000123978L510.739 17.4894Z" fill="#F5F7F9" fill-opacity="0.08"/>
<path d="M510.741 43.7227L493.26 43.7227L493.26 26.2334L510.741 26.2334L510.741 43.7227Z" fill="#F5F7F9" fill-opacity="0.08"/>
<path d="M201.166 384.763L183.685 384.763L183.685 367.273L201.166 367.273L201.166 384.763Z" fill="#F5F7F9" fill-opacity="0.08"/>
<path d="M201.166 174.893L183.685 174.893L183.685 157.403L201.166 157.403L201.166 174.893Z" fill="#F5F7F9" fill-opacity="0.08"/>
<path d="M201.166 69.9576L183.685 69.9576L183.685 52.4684L201.166 52.4684L201.166 69.9576Z" fill="#F5F7F9" fill-opacity="0.08"/>
<path d="M201.166 332.295L183.685 332.295L183.685 314.806L201.166 314.806L201.166 332.295Z" fill="#F5F7F9" fill-opacity="0.1"/>
<path d="M201.166 122.424L183.685 122.424L183.685 104.935L201.166 104.935L201.166 122.424Z" fill="#F5F7F9" fill-opacity="0.08"/>
<path d="M201.166 227.36L183.685 227.36L183.685 209.87L201.166 209.87L201.166 227.36Z" fill="#F5F7F9" fill-opacity="0.08"/>
<path d="M201.166 437.23L183.685 437.23L183.685 419.741L201.166 419.741L201.166 437.23Z" fill="#F5F7F9" fill-opacity="0.08"/>
<path d="M201.166 17.4894L183.685 17.4894L183.685 0.000122404L201.166 0.000123978L201.166 17.4894Z" fill="#F5F7F9" fill-opacity="0.08"/>
<path d="M201.166 358.529L183.685 358.529L183.685 341.04L201.166 341.04L201.166 358.529Z" fill="#F5F7F9" fill-opacity="0.08"/>
<path d="M201.166 148.658L183.685 148.658L183.685 131.169L201.166 131.169L201.166 148.658Z" fill="#F5F7F9" fill-opacity="0.08"/>
<path d="M201.166 253.593L183.685 253.593L183.685 236.104L201.166 236.104L201.166 253.593Z" fill="#F5F7F9" fill-opacity="0.08"/>
<path d="M201.166 43.7227L183.685 43.7227L183.685 26.2334L201.166 26.2334L201.166 43.7227Z" fill="#F5F7F9" fill-opacity="0.18"/>
<path d="M201.166 306.062L183.685 306.062L183.685 288.572L201.166 288.572L201.166 306.062Z" fill="#F5F7F9" fill-opacity="0.08"/>
<path d="M201.166 96.1907L183.685 96.1906L183.685 78.7014L201.166 78.7014L201.166 96.1907Z" fill="#F5F7F9" fill-opacity="0.18"/>
<path d="M201.166 201.126L183.685 201.126L183.685 183.637L201.166 183.637L201.166 201.126Z" fill="#F5F7F9" fill-opacity="0.08"/>
<path d="M201.166 410.996L183.685 410.996L183.685 393.507L201.166 393.507L201.166 410.996Z" fill="url(#paint0_linear_14_4683)"/>
<path d="M227.386 410.996L209.906 410.996L209.906 393.507L227.386 393.507L227.386 410.996Z" fill="#F5F7F9" fill-opacity="0.08"/>
<path d="M589.402 69.9576L571.922 69.9576L571.922 52.4684L589.402 52.4684L589.402 69.9576Z" fill="#F5F7F9" fill-opacity="0.08"/>
<path d="M589.402 17.4894L571.922 17.4894L571.922 0.000122404L589.402 0.000123978L589.402 17.4894Z" fill="#F5F7F9" fill-opacity="0.08"/>
<path d="M589.402 43.7227L571.922 43.7227L571.922 26.2334L589.402 26.2334L589.402 43.7227Z" fill="#F5F7F9" fill-opacity="0.08"/>
<path d="M279.827 174.893L262.346 174.893L262.346 157.403L279.827 157.403L279.827 174.893Z" fill="#F5F7F9" fill-opacity="0.08"/>
<path d="M279.827 279.827L262.346 279.827L262.346 262.338L279.827 262.338L279.827 279.827Z" fill="#F5F7F9" fill-opacity="0.08"/>
<path d="M279.827 332.295L262.346 332.295L262.346 314.806L279.827 314.806L279.827 332.295Z" fill="#F5F7F9" fill-opacity="0.08"/>
<path d="M279.827 122.424L262.346 122.424L262.346 104.935L279.827 104.935L279.827 122.424Z" fill="#F5F7F9" fill-opacity="0.18"/>
<path d="M279.827 227.36L262.346 227.36L262.346 209.87L279.827 209.87L279.827 227.36Z" fill="#F5F7F9" fill-opacity="0.1"/>
<path d="M279.827 437.23L262.346 437.23L262.346 419.741L279.827 419.741L279.827 437.23Z" fill="#F5F7F9" fill-opacity="0.1"/>
<path d="M279.827 358.529L262.346 358.529L262.346 341.04L279.827 341.04L279.827 358.529Z" fill="#F5F7F9" fill-opacity="0.08"/>
<path d="M279.827 148.658L262.346 148.658L262.346 131.169L279.827 131.169L279.827 148.658Z" fill="#F5F7F9" fill-opacity="0.08"/>
<path d="M279.827 253.593L262.346 253.593L262.346 236.104L279.827 236.104L279.827 253.593Z" fill="#F5F7F9" fill-opacity="0.08"/>
<path d="M279.827 306.062L262.346 306.062L262.346 288.572L279.827 288.572L279.827 306.062Z" fill="#F5F7F9" fill-opacity="0.08"/>
<path d="M279.827 96.1907L262.346 96.1906L262.346 78.7014L279.827 78.7014L279.827 96.1907Z" fill="#F5F7F9" fill-opacity="0.08"/>
<path d="M279.827 201.126L262.346 201.126L262.346 183.637L279.827 183.637L279.827 201.126Z" fill="#F5F7F9" fill-opacity="0.1"/>
<path d="M279.827 410.996L262.346 410.996L262.346 393.507L279.827 393.507L279.827 410.996Z" fill="#F5F7F9" fill-opacity="0.08"/>
<path d="M432.078 69.9576L414.598 69.9576L414.598 52.4684L432.078 52.4684L432.078 69.9576Z" fill="#F5F7F9" fill-opacity="0.18"/>
<path d="M432.078 17.4894L414.598 17.4894L414.598 0.000122404L432.078 0.000123978L432.078 17.4894Z" fill="#F5F7F9" fill-opacity="0.08"/>
<path d="M432.078 43.7227L414.598 43.7227L414.598 26.2334L432.078 26.2334L432.078 43.7227Z" fill="#F5F7F9" fill-opacity="0.08"/>
<path d="M122.503 279.827L105.022 279.827L105.022 262.338L122.503 262.338L122.503 279.827Z" fill="#F5F7F9" fill-opacity="0.08"/>
<path d="M122.503 69.9576L105.022 69.9576L105.022 52.4684L122.503 52.4684L122.503 69.9576Z" fill="#F5F7F9" fill-opacity="0.08"/>
<path d="M122.503 332.295L105.022 332.295L105.022 314.806L122.503 314.806L122.503 332.295Z" fill="#F5F7F9" fill-opacity="0.1"/>
<path d="M122.503 122.424L105.022 122.424L105.022 104.935L122.503 104.935L122.503 122.424Z" fill="#F5F7F9" fill-opacity="0.08"/>
<path d="M122.503 227.36L105.022 227.36L105.022 209.87L122.503 209.87L122.503 227.36Z" fill="#F5F7F9" fill-opacity="0.08"/>
<path d="M122.503 437.23L105.022 437.23L105.022 419.741L122.503 419.741L122.503 437.23Z" fill="#F5F7F9" fill-opacity="0.08"/>
<path d="M122.503 17.4894L105.022 17.4894L105.022 0.000122404L122.503 0.000123978L122.503 17.4894Z" fill="#F5F7F9" fill-opacity="0.08"/>
<path d="M122.503 358.529L105.022 358.529L105.022 341.04L122.503 341.04L122.503 358.529Z" fill="#F5F7F9" fill-opacity="0.1"/>
<path d="M122.503 148.658L105.022 148.658L105.022 131.169L122.503 131.169L122.503 148.658Z" fill="#F5F7F9" fill-opacity="0.08"/>
<path d="M122.503 253.593L105.022 253.593L105.022 236.104L122.503 236.104L122.503 253.593Z" fill="#F5F7F9" fill-opacity="0.08"/>
<path d="M122.503 43.7227L105.022 43.7227L105.022 26.2334L122.503 26.2334L122.503 43.7227Z" fill="#F5F7F9" fill-opacity="0.08"/>
<path d="M122.503 306.062L105.022 306.062L105.022 288.572L122.503 288.572L122.503 306.062Z" fill="#F5F7F9" fill-opacity="0.08"/>
<path d="M122.503 96.1907L105.022 96.1906L105.022 78.7014L122.503 78.7014L122.503 96.1907Z" fill="#F5F7F9" fill-opacity="0.1"/>
<path d="M96.2834 96.1907L78.803 96.1906L78.803 78.7014L96.2834 78.7014L96.2834 96.1907Z" fill="#F5F7F9" fill-opacity="0.08"/>
<path d="M122.503 201.126L105.022 201.126L105.022 183.637L122.503 183.637L122.503 201.126Z" fill="#F5F7F9" fill-opacity="0.08"/>
<path d="M641.844 69.9576L624.364 69.9576L624.364 52.4684L641.844 52.4684L641.844 69.9576Z" fill="#F5F7F9" fill-opacity="0.08"/>
<path d="M641.844 17.4894L624.364 17.4894L624.364 0.000122404L641.844 0.000123978L641.844 17.4894Z" fill="#F5F7F9" fill-opacity="0.08"/>
<path d="M253.687 174.893L236.206 174.893L236.206 157.403L253.687 157.403L253.687 174.893Z" fill="#F5F7F9" fill-opacity="0.08"/>
<path d="M641.844 43.7227L624.364 43.7227L624.364 26.2334L641.844 26.2334L641.844 43.7227Z" fill="#F5F7F9" fill-opacity="0.18"/>
<path d="M332.27 384.763L314.79 384.763L314.79 367.274L332.27 367.274L332.27 384.763Z" fill="#F5F7F9" fill-opacity="0.08"/>
<path d="M332.27 279.827L314.79 279.827L314.79 262.338L332.27 262.338L332.27 279.827Z" fill="#F5F7F9" fill-opacity="0.08"/>
<path d="M332.27 332.295L314.79 332.295L314.79 314.806L332.27 314.806L332.27 332.295Z" fill="#F5F7F9" fill-opacity="0.08"/>
<path d="M332.27 358.529L314.79 358.529L314.79 341.04L332.27 341.04L332.27 358.529Z" fill="#F5F7F9" fill-opacity="0.08"/>
<path d="M332.27 306.062L314.79 306.062L314.79 288.572L332.27 288.572L332.27 306.062Z" fill="#F5F7F9" fill-opacity="0.08"/>
<path d="M484.519 69.9577L467.038 69.9577L467.038 52.4684L484.519 52.4684L484.519 69.9577Z" fill="#F5F7F9" fill-opacity="0.08"/>
<path d="M484.519 17.4894L467.038 17.4894L467.038 0.00016818L484.519 0.000169754L484.519 17.4894Z" fill="#F5F7F9" fill-opacity="0.08"/>
<path d="M484.519 43.7227L467.038 43.7227L467.038 26.2334L484.519 26.2334L484.519 43.7227Z" fill="#F5F7F9" fill-opacity="0.1"/>
<path d="M174.945 384.763L157.464 384.763L157.464 367.274L174.945 367.274L174.945 384.763Z" fill="#F5F7F9" fill-opacity="0.18"/>
<path d="M174.945 174.893L157.464 174.893L157.464 157.403L174.945 157.403L174.945 174.893Z" fill="#F5F7F9" fill-opacity="0.08"/>
<path d="M174.945 279.827L157.464 279.827L157.464 262.338L174.945 262.338L174.945 279.827Z" fill="#F5F7F9" fill-opacity="0.08"/>
<path d="M174.945 69.9577L157.464 69.9577L157.464 52.4684L174.945 52.4684L174.945 69.9577Z" fill="#F5F7F9" fill-opacity="0.18"/>
<path d="M174.945 122.424L157.464 122.424L157.464 104.935L174.945 104.935L174.945 122.424Z" fill="#F5F7F9" fill-opacity="0.08"/>
<path d="M174.945 227.36L157.464 227.36L157.464 209.87L174.945 209.87L174.945 227.36Z" fill="#F5F7F9" fill-opacity="0.08"/>
<path d="M174.945 437.231L157.464 437.231L157.464 419.741L174.945 419.741L174.945 437.231Z" fill="#F5F7F9" fill-opacity="0.08"/>
<path d="M174.945 17.4894L157.464 17.4894L157.464 0.00016818L174.945 0.000169754L174.945 17.4894Z" fill="#F5F7F9" fill-opacity="0.08"/>
<path d="M174.945 358.529L157.464 358.529L157.464 341.04L174.945 341.04L174.945 358.529Z" fill="#F5F7F9" fill-opacity="0.18"/>
<path d="M174.945 148.658L157.464 148.658L157.464 131.169L174.945 131.169L174.945 148.658Z" fill="#F5F7F9" fill-opacity="0.08"/>
<path d="M174.945 253.593L157.464 253.593L157.464 236.104L174.945 236.104L174.945 253.593Z" fill="#F5F7F9" fill-opacity="0.08"/>
<path d="M174.945 43.7227L157.464 43.7227L157.464 26.2334L174.945 26.2334L174.945 43.7227Z" fill="#F5F7F9" fill-opacity="0.08"/>
<path d="M174.945 306.062L157.464 306.062L157.464 288.572L174.945 288.572L174.945 306.062Z" fill="#F5F7F9" fill-opacity="0.08"/>
<path d="M174.945 96.1907L157.464 96.1907L157.464 78.7014L174.945 78.7014L174.945 96.1907Z" fill="#F5F7F9" fill-opacity="0.08"/>
<path d="M174.945 201.126L157.464 201.126L157.464 183.637L174.945 183.637L174.945 201.126Z" fill="#F5F7F9" fill-opacity="0.08"/>
<path d="M174.945 410.996L157.464 410.996L157.464 393.507L174.945 393.507L174.945 410.996Z" fill="#F5F7F9" fill-opacity="0.08"/>
<path d="M563.181 69.9577L545.7 69.9577L545.7 52.4684L563.181 52.4684L563.181 69.9577Z" fill="#F5F7F9" fill-opacity="0.08"/>
<path d="M563.181 17.4894L545.7 17.4894L545.7 0.00016818L563.181 0.000169754L563.181 17.4894Z" fill="#F5F7F9" fill-opacity="0.08"/>
<path d="M563.181 43.7227L545.7 43.7227L545.7 26.2334L563.181 26.2334L563.181 43.7227Z" fill="#F5F7F9" fill-opacity="0.08"/>
<path d="M253.607 174.893L236.127 174.893L236.127 157.403L253.607 157.403L253.607 174.893Z" fill="#F5F7F9" fill-opacity="0.08"/>
<path d="M253.607 332.295L236.127 332.295L236.127 314.806L253.607 314.806L253.607 332.295Z" fill="#F5F7F9" fill-opacity="0.08"/>
<path d="M253.607 122.424L236.127 122.424L236.127 104.935L253.607 104.935L253.607 122.424Z" fill="#F5F7F9" fill-opacity="0.18"/>
<path d="M253.607 227.36L236.127 227.36L236.127 209.87L253.607 209.87L253.607 227.36Z" fill="#F5F7F9" fill-opacity="0.18"/>
<path d="M253.607 437.231L236.127 437.231L236.127 419.741L253.607 419.741L253.607 437.231Z" fill="#F5F7F9" fill-opacity="0.08"/>
<path d="M253.607 148.658L236.127 148.658L236.127 131.169L253.607 131.169L253.607 148.658Z" fill="#F5F7F9" fill-opacity="0.08"/>
<path d="M253.607 253.593L236.127 253.593L236.127 236.104L253.607 236.104L253.607 253.593Z" fill="#F5F7F9" fill-opacity="0.18"/>
<path d="M253.607 96.1907L236.127 96.1907L236.127 78.7014L253.607 78.7014L253.607 96.1907Z" fill="#F5F7F9" fill-opacity="0.08"/>
<path d="M253.607 410.996L236.127 410.996L236.127 393.507L253.607 393.507L253.607 410.996Z" fill="#F5F7F9" fill-opacity="0.08"/>
<path d="M405.857 69.9577L388.377 69.9577L388.377 52.4684L405.857 52.4684L405.857 69.9577Z" fill="#F5F7F9" fill-opacity="0.1"/>
<path d="M405.857 17.4894L388.377 17.4894L388.377 0.00016818L405.857 0.000169754L405.857 17.4894Z" fill="#F5F7F9" fill-opacity="0.08"/>
<path d="M405.857 43.7227L388.377 43.7227L388.377 26.2334L405.857 26.2334L405.857 43.7227Z" fill="#F5F7F9" fill-opacity="0.08"/>
<path d="M96.2834 174.893L78.8029 174.893L78.8029 157.403L96.2834 157.403L96.2834 174.893Z" fill="#F5F7F9" fill-opacity="0.08"/>
<path d="M96.2834 279.827L78.8029 279.827L78.8029 262.338L96.2834 262.338L96.2834 279.827Z" fill="#F5F7F9" fill-opacity="0.08"/>
<path d="M96.2834 69.9577L78.8029 69.9577L78.8029 52.4684L96.2834 52.4684L96.2834 69.9577Z" fill="#F5F7F9" fill-opacity="0.08"/>
<path d="M96.2834 122.424L78.8029 122.424L78.8029 104.935L96.2834 104.935L96.2834 122.424Z" fill="#F5F7F9" fill-opacity="0.08"/>
<path d="M96.2834 227.36L78.8029 227.36L78.8029 209.87L96.2834 209.87L96.2834 227.36Z" fill="#F5F7F9" fill-opacity="0.08"/>
<path d="M96.2834 17.4894L78.8029 17.4894L78.8029 0.00016818L96.2834 0.000169754L96.2834 17.4894Z" fill="#F5F7F9" fill-opacity="0.08"/>
<path d="M96.2834 148.658L78.8029 148.658L78.8029 131.169L96.2834 131.169L96.2834 148.658Z" fill="#F5F7F9" fill-opacity="0.08"/>
<path d="M96.2834 253.593L78.8029 253.593L78.8029 236.104L96.2834 236.104L96.2834 253.593Z" fill="#F5F7F9" fill-opacity="0.08"/>
<path d="M96.2834 43.7227L78.8029 43.7227L78.8029 26.2334L96.2834 26.2334L96.2834 43.7227Z" fill="#F5F7F9" fill-opacity="0.08"/>
<path d="M96.2834 201.126L78.8029 201.126L78.8029 183.637L96.2834 183.637L96.2834 201.126Z" fill="#F5F7F9" fill-opacity="0.08"/>
<path d="M615.623 69.9577L598.143 69.9577L598.143 52.4684L615.623 52.4684L615.623 69.9577Z" fill="#F5F7F9" fill-opacity="0.1"/>
<path d="M615.623 17.4894L598.143 17.4894L598.143 0.00016818L615.623 0.000169754L615.623 17.4894Z" fill="#F5F7F9" fill-opacity="0.1"/>
<path d="M615.623 43.7227L598.143 43.7227L598.143 26.2334L615.623 26.2334L615.623 43.7227Z" fill="#F5F7F9" fill-opacity="0.18"/>
<path d="M306.049 384.763L288.569 384.763L288.569 367.274L306.049 367.274L306.049 384.763Z" fill="#F5F7F9" fill-opacity="0.08"/>
<path d="M306.049 332.295L288.569 332.295L288.569 314.806L306.049 314.806L306.049 332.295Z" fill="#F5F7F9" fill-opacity="0.08"/>
<path d="M306.049 122.424L288.569 122.424L288.569 104.935L306.049 104.935L306.049 122.424Z" fill="#F5F7F9" fill-opacity="0.08"/>
<path d="M306.049 227.36L288.569 227.36L288.569 209.87L306.049 209.87L306.049 227.36Z" fill="#F5F7F9" fill-opacity="0.1"/>
<path d="M306.049 437.231L288.569 437.231L288.569 419.741L306.049 419.741L306.049 437.231Z" fill="#F5F7F9" fill-opacity="0.08"/>
<path d="M306.049 358.529L288.569 358.529L288.569 341.04L306.049 341.04L306.049 358.529Z" fill="#F5F7F9" fill-opacity="0.08"/>
<path d="M306.049 148.658L288.569 148.658L288.569 131.169L306.049 131.169L306.049 148.658Z" fill="#F5F7F9" fill-opacity="0.18"/>
<path d="M306.049 253.593L288.569 253.593L288.569 236.104L306.049 236.104L306.049 253.593Z" fill="#F5F7F9" fill-opacity="0.1"/>
<path d="M306.049 96.1907L288.569 96.1907L288.569 78.7014L306.049 78.7014L306.049 96.1907Z" fill="#F5F7F9" fill-opacity="0.08"/>
<path d="M306.049 201.126L288.569 201.126L288.569 183.637L306.049 183.637L306.049 201.126Z" fill="#F5F7F9" fill-opacity="0.08"/>
<path d="M458.298 69.9577L440.817 69.9577L440.817 52.4684L458.298 52.4684L458.298 69.9577Z" fill="#F5F7F9" fill-opacity="0.08"/>
<path d="M458.298 17.4894L440.817 17.4894L440.817 0.00016818L458.298 0.000169754L458.298 17.4894Z" fill="#F5F7F9" fill-opacity="0.08"/>
<path d="M458.298 43.7227L440.817 43.7227L440.817 26.2334L458.298 26.2334L458.298 43.7227Z" fill="#F5F7F9" fill-opacity="0.08"/>
<path d="M148.724 174.893L131.243 174.893L131.243 157.403L148.724 157.403L148.724 174.893Z" fill="#F5F7F9" fill-opacity="0.08"/>
<path d="M148.724 279.827L131.243 279.827L131.243 262.338L148.724 262.338L148.724 279.827Z" fill="#F5F7F9" fill-opacity="0.08"/>
<path d="M148.724 69.9577L131.243 69.9577L131.243 52.4684L148.724 52.4684L148.724 69.9577Z" fill="#F5F7F9" fill-opacity="0.08"/>
<path d="M148.724 332.295L131.243 332.295L131.243 314.806L148.724 314.806L148.724 332.295Z" fill="#F5F7F9" fill-opacity="0.08"/>
<path d="M148.724 122.424L131.243 122.424L131.243 104.935L148.724 104.935L148.724 122.424Z" fill="#F5F7F9" fill-opacity="0.08"/>
<path d="M148.724 227.36L131.243 227.36L131.243 209.87L148.724 209.87L148.724 227.36Z" fill="#F5F7F9" fill-opacity="0.08"/>
<path d="M148.724 437.231L131.243 437.231L131.243 419.741L148.724 419.741L148.724 437.231Z" fill="#F5F7F9" fill-opacity="0.08"/>
<path d="M148.724 17.4894L131.243 17.4894L131.243 0.00016818L148.724 0.000169754L148.724 17.4894Z" fill="#F5F7F9" fill-opacity="0.08"/>
<path d="M148.724 358.529L131.243 358.529L131.243 341.04L148.724 341.04L148.724 358.529Z" fill="#F5F7F9" fill-opacity="0.08"/>
<path d="M148.724 148.658L131.243 148.658L131.243 131.169L148.724 131.169L148.724 148.658Z" fill="#F5F7F9" fill-opacity="0.08"/>
<path d="M148.724 253.593L131.243 253.593L131.243 236.104L148.724 236.104L148.724 253.593Z" fill="#F5F7F9" fill-opacity="0.08"/>
<path d="M148.724 43.7227L131.243 43.7227L131.243 26.2334L148.724 26.2334L148.724 43.7227Z" fill="#F5F7F9" fill-opacity="0.08"/>
<path d="M148.724 306.062L131.243 306.062L131.243 288.572L148.724 288.572L148.724 306.062Z" fill="#F5F7F9" fill-opacity="0.08"/>
<path d="M148.724 96.1907L131.243 96.1907L131.243 78.7014L148.724 78.7014L148.724 96.1907Z" fill="#F5F7F9" fill-opacity="0.1"/>
<path d="M148.724 201.126L131.243 201.126L131.243 183.637L148.724 183.637L148.724 201.126Z" fill="#F5F7F9" fill-opacity="0.08"/>
<path d="M536.96 17.4894L519.48 17.4894L519.48 0.00016818L536.96 0.000169754L536.96 17.4894Z" fill="#F5F7F9" fill-opacity="0.18"/>
<path d="M536.96 43.7227L519.48 43.7227L519.48 26.2334L536.96 26.2334L536.96 43.7227Z" fill="#F5F7F9" fill-opacity="0.08"/>
<path d="M227.386 384.763L209.906 384.763L209.906 367.274L227.386 367.274L227.386 384.763Z" fill="#F5F7F9" fill-opacity="0.08"/>
<path d="M227.386 174.893L209.906 174.893L209.906 157.403L227.386 157.403L227.386 174.893Z" fill="#F5F7F9" fill-opacity="0.18"/>
<path d="M227.386 279.827L209.906 279.827L209.906 262.338L227.386 262.338L227.386 279.827Z" fill="#F5F7F9" fill-opacity="0.08"/>
<path d="M227.386 69.9577L209.906 69.9577L209.906 52.4684L227.386 52.4684L227.386 69.9577Z" fill="#F5F7F9" fill-opacity="0.08"/>
<path d="M227.386 332.295L209.906 332.295L209.906 314.806L227.386 314.806L227.386 332.295Z" fill="#F5F7F9" fill-opacity="0.08"/>
<path d="M227.386 122.424L209.906 122.424L209.906 104.935L227.386 104.935L227.386 122.424Z" fill="#F5F7F9" fill-opacity="0.08"/>
<path d="M227.386 227.36L209.906 227.36L209.906 209.87L227.386 209.87L227.386 227.36Z" fill="#F5F7F9" fill-opacity="0.08"/>
<path d="M227.386 437.231L209.906 437.231L209.906 419.741L227.386 419.741L227.386 437.231Z" fill="#F5F7F9" fill-opacity="0.08"/>
<path d="M227.386 17.4894L209.906 17.4894L209.906 0.00016818L227.386 0.000169754L227.386 17.4894Z" fill="#F5F7F9" fill-opacity="0.08"/>
<path d="M227.386 358.529L209.906 358.529L209.906 341.04L227.386 341.04L227.386 358.529Z" fill="#F5F7F9" fill-opacity="0.08"/>
<path d="M227.386 148.658L209.906 148.658L209.906 131.169L227.386 131.169L227.386 148.658Z" fill="#F5F7F9" fill-opacity="0.08"/>
<path d="M227.386 43.7227L209.906 43.7227L209.906 26.2334L227.386 26.2334L227.386 43.7227Z" fill="#F5F7F9" fill-opacity="0.08"/>
<path d="M227.386 96.1907L209.906 96.1907L209.906 78.7014L227.386 78.7014L227.386 96.1907Z" fill="#F5F7F9" fill-opacity="0.18"/>
<path d="M227.386 201.126L209.906 201.126L209.906 183.637L227.386 183.637L227.386 201.126Z" fill="#F5F7F9" fill-opacity="0.08"/>
<path d="M379.635 69.9577L362.154 69.9577L362.154 52.4684L379.635 52.4684L379.635 69.9577Z" fill="#F5F7F9" fill-opacity="0.1"/>
<path d="M379.635 437.231L362.154 437.231L362.154 419.741L379.635 419.741L379.635 437.231Z" fill="#F5F7F9" fill-opacity="0.1"/>
<path d="M379.635 17.4894L362.154 17.4894L362.154 0.00016818L379.635 0.000169754L379.635 17.4894Z" fill="#F5F7F9" fill-opacity="0.08"/>
<path d="M379.635 43.7227L362.154 43.7227L362.154 26.2334L379.635 26.2334L379.635 43.7227Z" fill="#F5F7F9" fill-opacity="0.1"/>
<path d="M70.0632 174.893L52.5827 174.893L52.5827 157.403L70.0632 157.403L70.0632 174.893Z" fill="#F5F7F9" fill-opacity="0.1"/>
<path d="M70.0615 279.827L52.581 279.827L52.581 262.338L70.0615 262.338L70.0615 279.827Z" fill="#F5F7F9" fill-opacity="0.08"/>
<path d="M70.0632 69.9577L52.5827 69.9577L52.5827 52.4684L70.0632 52.4684L70.0632 69.9577Z" fill="#F5F7F9" fill-opacity="0.18"/>
<path d="M70.0632 122.424L52.5827 122.424L52.5827 104.935L70.0632 104.935L70.0632 122.424Z" fill="#F5F7F9" fill-opacity="0.18"/>
<path d="M70.0615 227.36L52.581 227.36L52.581 209.87L70.0615 209.87L70.0615 227.36Z" fill="#F5F7F9" fill-opacity="0.08"/>
<path d="M70.0632 17.4894L52.5827 17.4894L52.5827 0.00016818L70.0632 0.000169754L70.0632 17.4894Z" fill="#F5F7F9" fill-opacity="0.08"/>
<path d="M70.0632 148.658L52.5827 148.658L52.5827 131.169L70.0632 131.169L70.0632 148.658Z" fill="#F5F7F9" fill-opacity="0.1"/>
<path d="M70.0632 43.7227L52.5827 43.7227L52.5827 26.2334L70.0632 26.2334L70.0632 43.7227Z" fill="#F5F7F9" fill-opacity="0.08"/>
<path d="M70.0615 306.062L52.581 306.062L52.581 288.572L70.0615 288.572L70.0615 306.062Z" fill="#F5F7F9" fill-opacity="0.08"/>
<path d="M70.0632 96.1907L52.5827 96.1907L52.5827 78.7014L70.0632 78.7014L70.0632 96.1907Z" fill="#F5F7F9" fill-opacity="0.08"/>
<path d="M70.0615 201.126L52.581 201.126L52.581 183.637L70.0615 183.637L70.0615 201.126Z" fill="#F5F7F9" fill-opacity="0.08"/>
<path d="M43.8421 279.827L26.3617 279.827L26.3617 262.338L43.8421 262.338L43.8421 279.827Z" fill="#F5F7F9" fill-opacity="0.18"/>
<path d="M43.8421 69.9577L26.3617 69.9577L26.3617 52.4684L43.8421 52.4684L43.8421 69.9577Z" fill="#F5F7F9" fill-opacity="0.08"/>
<path d="M43.8421 122.424L26.3617 122.424L26.3617 104.935L43.8421 104.935L43.8421 122.424Z" fill="#F5F7F9" fill-opacity="0.08"/>
<path d="M43.8421 17.4894L26.3617 17.4894L26.3617 0.00016818L43.8421 0.000169754L43.8421 17.4894Z" fill="#F5F7F9" fill-opacity="0.08"/>
<path d="M43.8421 148.658L26.3617 148.658L26.3617 131.169L43.8421 131.169L43.8421 148.658Z" fill="#F5F7F9" fill-opacity="0.18"/>
<path d="M43.8421 43.7227L26.3617 43.7227L26.3617 26.2334L43.8421 26.2334L43.8421 43.7227Z" fill="#F5F7F9" fill-opacity="0.08"/>
<path d="M43.8421 96.1907L26.3617 96.1907L26.3617 78.7014L43.8421 78.7014L43.8421 96.1907Z" fill="#F5F7F9" fill-opacity="0.08"/>
<path d="M43.8421 201.126L26.3617 201.126L26.3617 183.637L43.8421 183.637L43.8421 201.126Z" fill="#F5F7F9" fill-opacity="0.08"/>
<path d="M17.6228 384.763L0.142357 384.763L0.142358 367.274L17.6228 367.274L17.6228 384.763Z" fill="#F5F7F9" fill-opacity="0.08"/>
<path d="M17.6228 279.827L0.142357 279.827L0.142358 262.338L17.6228 262.338L17.6228 279.827Z" fill="#F5F7F9" fill-opacity="0.08"/>
<path d="M17.6228 69.9577L0.142357 69.9577L0.142358 52.4684L17.6228 52.4684L17.6228 69.9577Z" fill="#F5F7F9" fill-opacity="0.08"/>
<path d="M17.6228 332.295L0.142357 332.295L0.142358 314.806L17.6228 314.806L17.6228 332.295Z" fill="#F5F7F9" fill-opacity="0.1"/>
<path d="M17.6228 227.36L0.142357 227.36L0.142358 209.87L17.6228 209.87L17.6228 227.36Z" fill="#F5F7F9" fill-opacity="0.1"/>
<path d="M17.6228 358.529L0.142357 358.529L0.142358 341.04L17.6228 341.04L17.6228 358.529Z" fill="#F5F7F9" fill-opacity="0.08"/>
<path d="M17.6228 148.658L0.142357 148.658L0.142358 131.169L17.6228 131.169L17.6228 148.658Z" fill="#F5F7F9" fill-opacity="0.1"/>
<path d="M17.6228 43.7227L0.142357 43.7227L0.142358 26.2334L17.6228 26.2334L17.6228 43.7227Z" fill="#F5F7F9" fill-opacity="0.08"/>
<path d="M17.6228 306.062L0.142357 306.062L0.142358 288.572L17.6228 288.572L17.6228 306.062Z" fill="#F5F7F9" fill-opacity="0.08"/>
<path d="M734 620.843H716.52V603.353H734V620.843Z" fill="#F5F7F9" fill-opacity="0.18"/>
<path d="M734 201.101H716.52V183.612H734V201.101Z" fill="#F5F7F9" fill-opacity="0.1"/>
<path d="M734 410.973H716.52V393.483H734V410.973Z" fill="#F5F7F9" fill-opacity="0.08"/>
<path d="M734 515.908H716.52V498.419H734V515.908Z" fill="#F5F7F9" fill-opacity="0.08"/>
<path d="M734 568.375H716.52V550.886H734V568.375Z" fill="#F5F7F9" fill-opacity="0.1"/>
<path d="M734 148.634H716.52V131.145H734V148.634Z" fill="#F5F7F9" fill-opacity="0.08"/>
<path d="M734 253.569H716.52V236.08H734V253.569Z" fill="#F5F7F9" fill-opacity="0.1"/>
<path d="M734 594.61H716.52V577.121H734V594.61Z" fill="#F5F7F9" fill-opacity="0.18"/>
<path d="M734 174.867H716.52V157.378H734V174.867Z" fill="#F5F7F9" fill-opacity="0.18"/>
<path d="M734 384.738H716.52V367.249H734V384.738Z" fill="#F5F7F9" fill-opacity="0.08"/>
<path d="M734 489.673H716.52V472.184H734V489.673Z" fill="#F5F7F9" fill-opacity="0.08"/>
<path d="M734 542.141H716.52V524.652H734V542.141Z" fill="#F5F7F9" fill-opacity="0.08"/>
<path d="M734 122.4H716.52V104.91H734V122.4Z" fill="#F5F7F9" fill-opacity="0.08"/>
<path d="M734 437.207H716.52V419.718H734V437.207Z" fill="#F5F7F9" fill-opacity="0.08"/>
<path d="M734 227.334H716.52V209.845H734V227.334Z" fill="#F5F7F9" fill-opacity="0.1"/>
<path d="M655.337 620.843H637.857V603.353H655.337V620.843Z" fill="#F5F7F9" fill-opacity="0.1"/>
<path d="M655.337 410.973H637.857V393.483H655.337V410.973Z" fill="#F5F7F9" fill-opacity="0.08"/>
<path d="M655.337 515.908H637.857V498.419H655.337V515.908Z" fill="#F5F7F9" fill-opacity="0.08"/>
<path d="M655.337 568.375H637.857V550.886H655.337V568.375Z" fill="#F5F7F9" fill-opacity="0.18"/>
<path d="M655.337 148.634H637.857V131.145H655.337V148.634Z" fill="#F5F7F9" fill-opacity="0.08"/>
<path d="M655.337 253.569H637.857V236.08H655.337V253.569Z" fill="#F5F7F9" fill-opacity="0.08"/>
<path d="M655.337 594.61H637.857V577.121H655.337V594.61Z" fill="#F5F7F9" fill-opacity="0.1"/>
<path d="M655.337 174.867H637.857V157.378H655.337V174.867Z" fill="#F5F7F9" fill-opacity="0.08"/>
<path d="M655.337 489.673H637.857V472.184H655.337V489.673Z" fill="#F5F7F9" fill-opacity="0.08"/>
<path d="M655.337 542.141H637.857V524.652H655.337V542.141Z" fill="#F5F7F9" fill-opacity="0.08"/>
<path d="M655.337 122.4H637.857V104.91H655.337V122.4Z" fill="#F5F7F9" fill-opacity="0.08"/>
<path d="M707.779 620.843H690.299V603.353H707.779V620.843Z" fill="#F5F7F9" fill-opacity="0.18"/>
<path d="M707.779 201.101H690.299V183.612H707.779V201.101Z" fill="#F5F7F9" fill-opacity="0.08"/>
<path d="M707.779 410.973H690.299V393.483H707.779V410.973Z" fill="#F5F7F9" fill-opacity="0.08"/>
<path d="M707.779 515.908H690.299V498.419H707.779V515.908Z" fill="#F5F7F9" fill-opacity="0.08"/>
<path d="M707.779 568.375H690.299V550.886H707.779V568.375Z" fill="#F5F7F9" fill-opacity="0.18"/>
<path d="M707.779 253.569H690.299V236.08H707.779V253.569Z" fill="#F5F7F9" fill-opacity="0.08"/>
<path d="M707.779 594.61H690.299V577.121H707.779V594.61Z" fill="#F5F7F9" fill-opacity="0.1"/>
<path d="M707.779 174.867H690.299V157.378H707.779V174.867Z" fill="#F5F7F9" fill-opacity="0.08"/>
<path d="M707.779 384.738H690.299V367.249H707.779V384.738Z" fill="url(#paint1_linear_14_4683)"/>
<path d="M707.779 489.673H690.299V472.184H707.779V489.673Z" fill="#F5F7F9" fill-opacity="0.08"/>
<path d="M707.779 542.141H690.299V524.652H707.779V542.141Z" fill="#F5F7F9" fill-opacity="0.08"/>
<path d="M707.779 122.4H690.299V104.91H707.779V122.4Z" fill="#F5F7F9" fill-opacity="0.18"/>
<path d="M707.779 437.207H690.299V419.718H707.779V437.207Z" fill="#F5F7F9" fill-opacity="0.08"/>
<path d="M707.779 227.334H690.299V209.845H707.779V227.334Z" fill="#F5F7F9" fill-opacity="0.08"/>
<path d="M629.118 620.843H611.638V603.353H629.118V620.843Z" fill="#F5F7F9" fill-opacity="0.18"/>
<path d="M629.118 515.908H611.638V498.419H629.118V515.908Z" fill="#F5F7F9" fill-opacity="0.08"/>
<path d="M629.118 568.375H611.638V550.886H629.118V568.375Z" fill="#F5F7F9" fill-opacity="0.18"/>
<path d="M629.118 463.44H611.638V445.951H629.118V463.44Z" fill="#F5F7F9" fill-opacity="0.08"/>
<path d="M629.118 594.61H611.638V577.121H629.118V594.61Z" fill="#F5F7F9" fill-opacity="0.1"/>
<path d="M629.118 384.738H611.638V367.249H629.118V384.738Z" fill="#F5F7F9" fill-opacity="0.08"/>
<path d="M629.118 489.673H611.638V472.184H629.118V489.673Z" fill="#F5F7F9" fill-opacity="0.1"/>
<path d="M629.118 542.141H611.638V524.652H629.118V542.141Z" fill="#F5F7F9" fill-opacity="0.08"/>
<path d="M629.118 437.207H611.638V419.718H629.118V437.207Z" fill="#F5F7F9" fill-opacity="0.08"/>
<path d="M681.558 620.843H664.078V603.353H681.558V620.843Z" fill="#F5F7F9" fill-opacity="0.18"/>
<path d="M681.558 410.973H664.078V393.483H681.558V410.973Z" fill="#F5F7F9" fill-opacity="0.1"/>
<path d="M681.558 515.908H664.078V498.419H681.558V515.908Z" fill="#F5F7F9" fill-opacity="0.08"/>
<path d="M681.558 568.375H664.078V550.886H681.558V568.375Z" fill="#F5F7F9" fill-opacity="0.1"/>
<path d="M681.558 148.634H664.078V131.145H681.558V148.634Z" fill="#F5F7F9" fill-opacity="0.08"/>
<path d="M681.558 253.569H664.078V236.08H681.558V253.569Z" fill="#F5F7F9" fill-opacity="0.18"/>
<path d="M681.558 174.867H664.078V157.378H681.558V174.867Z" fill="#F5F7F9" fill-opacity="0.1"/>
<path d="M681.558 384.738H664.078V367.249H681.558V384.738Z" fill="#F5F7F9" fill-opacity="0.18"/>
<path d="M681.558 489.673H664.078V472.184H681.558V489.673Z" fill="#F5F7F9" fill-opacity="0.08"/>
<path d="M681.558 542.141H664.078V524.652H681.558V542.141Z" fill="#F5F7F9" fill-opacity="0.08"/>
<path d="M681.558 122.4H664.078V104.91H681.558V122.4Z" fill="#F5F7F9" fill-opacity="0.08"/>
<path d="M602.897 620.843H585.417V603.354H602.897V620.843Z" fill="#F5F7F9" fill-opacity="0.18"/>
<path d="M602.897 410.973H585.417V393.483H602.897V410.973Z" fill="#F5F7F9" fill-opacity="0.1"/>
<path d="M602.897 568.375H585.417V550.886H602.897V568.375Z" fill="#F5F7F9" fill-opacity="0.1"/>
<path d="M602.897 463.44H585.417V445.951H602.897V463.44Z" fill="#F5F7F9" fill-opacity="0.08"/>
<path d="M602.897 594.61H585.417V577.121H602.897V594.61Z" fill="#F5F7F9" fill-opacity="0.1"/>
<path d="M602.897 384.738H585.417V367.249H602.897V384.738Z" fill="#F5F7F9" fill-opacity="0.08"/>
<path d="M602.897 489.673H585.417V472.184H602.897V489.673Z" fill="#F5F7F9" fill-opacity="0.08"/>
<path d="M602.897 542.141H585.417V524.652H602.897V542.141Z" fill="#F5F7F9" fill-opacity="0.08"/>
<path d="M602.897 122.4H585.417V104.91H602.897V122.4Z" fill="#F5F7F9" fill-opacity="0.18"/>
<path d="M602.897 437.207H585.417V419.718H602.897V437.207Z" fill="#F5F7F9" fill-opacity="0.18"/>
<path d="M576.676 620.843H559.196V603.354H576.676V620.843Z" fill="#F5F7F9" fill-opacity="0.08"/>
<path d="M576.676 410.973H559.196V393.483H576.676V410.973Z" fill="#F5F7F9" fill-opacity="0.08"/>
<path d="M576.676 515.908H559.196V498.419H576.676V515.908Z" fill="#F5F7F9" fill-opacity="0.1"/>
<path d="M576.676 568.375H559.196V550.886H576.676V568.375Z" fill="#F5F7F9" fill-opacity="0.08"/>
<path d="M576.676 463.44H559.196V445.951H576.676V463.44Z" fill="#F5F7F9" fill-opacity="0.1"/>
<path d="M576.676 594.61H559.196V577.121H576.676V594.61Z" fill="#F5F7F9" fill-opacity="0.08"/>
<path d="M576.676 384.738H559.196V367.249H576.676V384.738Z" fill="#F5F7F9" fill-opacity="0.18"/>
<path d="M576.676 489.673H559.196V472.184H576.676V489.673Z" fill="#F5F7F9" fill-opacity="0.1"/>
<path d="M576.676 542.141H559.196V524.652H576.676V542.141Z" fill="#F5F7F9" fill-opacity="0.08"/>
<path d="M262.029 568.375H244.548V550.886H262.029V568.375Z" fill="#F5F7F9" fill-opacity="0.08"/>
<path d="M262.029 594.61H244.548V577.121H262.029V594.61Z" fill="#F5F7F9" fill-opacity="0.08"/>
<path d="M419.353 620.843H401.872V603.354H419.353V620.843Z" fill="#F5F7F9" fill-opacity="0.08"/>
<path d="M419.353 201.101H401.872V183.612H419.353V201.101Z" fill="#F5F7F9" fill-opacity="0.08"/>
<path d="M419.353 410.973H401.872V393.483H419.353V410.973Z" fill="#F5F7F9" fill-opacity="0.08"/>
<path d="M419.353 568.375H401.872V550.886H419.353V568.375Z" fill="#F5F7F9" fill-opacity="0.08"/>
<path d="M419.353 148.634H401.872V131.145H419.353V148.634Z" fill="#F5F7F9" fill-opacity="0.18"/>
<path d="M419.353 358.505H401.872V341.016H419.353V358.505Z" fill="url(#paint2_linear_14_4683)"/>
<path d="M419.353 253.569H401.872V236.08H419.353V253.569Z" fill="#F5F7F9" fill-opacity="0.08"/>
<path d="M419.353 594.61H401.872V577.121H419.353V594.61Z" fill="#F5F7F9" fill-opacity="0.18"/>
<path d="M419.353 174.867H401.872V157.378H419.353V174.867Z" fill="#F5F7F9" fill-opacity="0.08"/>
<path d="M419.353 279.804H401.872V262.314H419.353V279.804Z" fill="#F5F7F9" fill-opacity="0.08"/>
<path d="M419.353 332.271H401.872V314.781H419.353V332.271Z" fill="#F5F7F9" fill-opacity="0.08"/>
<path d="M419.353 437.207H401.872V419.718H419.353V437.207Z" fill="#F5F7F9" fill-opacity="0.08"/>
<path d="M419.353 227.334H401.872V209.845H419.353V227.334Z" fill="#F5F7F9" fill-opacity="0.08"/>
<path d="M104.705 568.375H87.2245V550.886H104.705V568.375Z" fill="#F5F7F9" fill-opacity="0.08"/>
<path d="M51.7015 620.489H34.2211V603H51.7015V620.489Z" fill="#F5F7F9" fill-opacity="0.08"/>
<path d="M104.705 594.61H87.2245V577.121H104.705V594.61Z" fill="#F5F7F9" fill-opacity="0.08"/>
<path d="M51.7015 646.724H34.2211V629.235H51.7015V646.724Z" fill="#F5F7F9" fill-opacity="0.08"/>
<path d="M498.016 620.843H480.535V603.354H498.016V620.843Z" fill="#F5F7F9" fill-opacity="0.08"/>
<path d="M445.48 698.957H428V681.468H445.48V698.957Z" fill="#F5F7F9" fill-opacity="0.08"/>
<path d="M392.945 777.071H375.465V759.582H392.945V777.071Z" fill="#F5F7F9" fill-opacity="0.08"/>
<path d="M498.016 410.973H480.535V393.483H498.016V410.973Z" fill="#F5F7F9" fill-opacity="0.08"/>
<path d="M498.016 515.908H480.535V498.419H498.016V515.908Z" fill="#F5F7F9" fill-opacity="0.1"/>
<path d="M498.016 568.375H480.535V550.886H498.016V568.375Z" fill="#F5F7F9" fill-opacity="0.08"/>
<path d="M498.016 148.634H480.535V131.145H498.016V148.634Z" fill="#F5F7F9" fill-opacity="0.1"/>
<path d="M498.016 358.505H480.535V341.016H498.016V358.505Z" fill="#F5F7F9" fill-opacity="0.08"/>
<path d="M498.016 463.44H480.535V445.951H498.016V463.44Z" fill="#F5F7F9" fill-opacity="0.08"/>
<path d="M498.016 594.61H480.535V577.121H498.016V594.61Z" fill="url(#paint3_linear_14_4683)"/>
<path d="M498.016 174.867H480.535V157.378H498.016V174.867Z" fill="#F5F7F9" fill-opacity="0.08"/>
<path d="M498.016 384.738H480.535V367.249H498.016V384.738Z" fill="#F5F7F9" fill-opacity="0.08"/>
<path d="M498.016 489.673H480.535V472.184H498.016V489.673Z" fill="#F5F7F9" fill-opacity="0.08"/>
<path d="M498.016 542.141H480.535V524.652H498.016V542.141Z" fill="#F5F7F9" fill-opacity="0.08"/>
<path d="M498.016 122.4H480.535V104.91H498.016V122.4Z" fill="#F5F7F9" fill-opacity="0.18"/>
<path d="M498.016 332.27H480.535V314.781H498.016V332.27Z" fill="#F5F7F9" fill-opacity="0.08"/>
<path d="M498.016 437.207H480.535V419.718H498.016V437.207Z" fill="#F5F7F9" fill-opacity="0.08"/>
<path d="M183.368 620.843H165.888V603.353H183.368V620.843Z" fill="#F5F7F9" fill-opacity="0.1"/>
<path d="M183.368 594.61H165.888V577.121H183.368V594.61Z" fill="#F5F7F9" fill-opacity="0.18"/>
<path d="M340.69 620.843H323.21V603.353H340.69V620.843Z" fill="#F5F7F9" fill-opacity="0.1"/>
<path d="M340.69 568.375H323.21V550.886H340.69V568.375Z" fill="#F5F7F9" fill-opacity="0.08"/>
<path d="M340.69 148.634H323.21V131.145H340.69V148.634Z" fill="#F5F7F9" fill-opacity="0.08"/>
<path d="M340.69 594.61H323.21V577.121H340.69V594.61Z" fill="#F5F7F9" fill-opacity="0.08"/>
<path d="M550.457 620.843H532.976V603.353H550.457V620.843Z" fill="#F5F7F9" fill-opacity="0.08"/>
<path d="M497.922 698.957H480.441V681.468H497.922V698.957Z" fill="#F5F7F9" fill-opacity="0.08"/>
<path d="M445.387 777.071H427.906V759.582H445.387V777.071Z" fill="#F5F7F9" fill-opacity="0.08"/>
<path d="M550.457 201.101H532.976V183.611H550.457V201.101Z" fill="#F5F7F9" fill-opacity="0.08"/>
<path d="M550.457 410.973H532.976V393.483H550.457V410.973Z" fill="#F5F7F9" fill-opacity="0.1"/>
<path d="M550.457 515.908H532.976V498.419H550.457V515.908Z" fill="#F5F7F9" fill-opacity="0.08"/>
<path d="M550.457 568.375H532.976V550.886H550.457V568.375Z" fill="#F5F7F9" fill-opacity="0.08"/>
<path d="M497.922 646.489H480.441V629H497.922V646.489Z" fill="#F5F7F9" fill-opacity="0.08"/>
<path d="M445.387 724.604H427.906V707.114H445.387V724.604Z" fill="#F5F7F9" fill-opacity="0.08"/>
<path d="M550.457 148.634H532.976V131.145H550.457V148.634Z" fill="#F5F7F9" fill-opacity="0.08"/>
<path d="M550.457 358.505H532.976V341.015H550.457V358.505Z" fill="#F5F7F9" fill-opacity="0.18"/>
<path d="M550.457 463.44H532.976V445.951H550.457V463.44Z" fill="#F5F7F9" fill-opacity="0.08"/>
<path d="M550.457 594.61H532.976V577.121H550.457V594.61Z" fill="#F5F7F9" fill-opacity="0.08"/>
<path d="M497.922 672.724H480.441V655.235H497.922V672.724Z" fill="#F5F7F9" fill-opacity="0.08"/>
<path d="M445.387 750.838H427.906V733.349H445.387V750.838Z" fill="#F5F7F9" fill-opacity="0.08"/>
<path d="M550.457 174.867H532.976V157.378H550.457V174.867Z" fill="#F5F7F9" fill-opacity="0.08"/>
<path d="M550.457 489.673H532.976V472.184H550.457V489.673Z" fill="#F5F7F9" fill-opacity="0.08"/>
<path d="M550.457 542.141H532.976V524.652H550.457V542.141Z" fill="#F5F7F9" fill-opacity="0.08"/>
<path d="M550.457 122.4H532.976V104.91H550.457V122.4Z" fill="#F5F7F9" fill-opacity="0.08"/>
<path d="M550.457 437.207H532.976V419.718H550.457V437.207Z" fill="#F5F7F9" fill-opacity="0.1"/>
<path d="M235.809 568.375H218.329V550.886H235.809V568.375Z" fill="#F5F7F9" fill-opacity="0.08"/>
<path d="M235.809 594.61H218.329V577.121H235.809V594.61Z" fill="#F5F7F9" fill-opacity="0.18"/>
<path d="M393.131 201.101H375.651V183.611H393.131V201.101Z" fill="#F5F7F9" fill-opacity="0.08"/>
<path d="M393.131 148.634H375.651V131.145H393.131V148.634Z" fill="#F5F7F9" fill-opacity="0.08"/>
<path d="M393.131 253.569H375.651V236.08H393.131V253.569Z" fill="#F5F7F9" fill-opacity="0.08"/>
<path d="M393.131 174.867H375.651V157.378H393.131V174.867Z" fill="#F5F7F9" fill-opacity="0.1"/>
<path d="M393.131 279.804H375.651V262.314H393.131V279.804Z" fill="#F5F7F9" fill-opacity="0.08"/>
<path d="M332.131 253.334H314.651V235.845H332.131V253.334Z" fill="url(#paint4_linear_14_4683)"/>
<path d="M78.4839 620.843H61.0035V603.353H78.4839V620.843Z" fill="#F5F7F9" fill-opacity="0.1"/>
<path d="M25.4805 672.957H8.00002V655.468H25.4805V672.957Z" fill="#F5F7F9" fill-opacity="0.1"/>
<path d="M78.4839 594.61H61.0035V577.121H78.4839V594.61Z" fill="#F5F7F9" fill-opacity="0.08"/>
<path d="M25.4805 646.724H8.00002V629.235H25.4805V646.724Z" fill="#F5F7F9" fill-opacity="0.08"/>
<path d="M471.795 620.843H454.314V603.353H471.795V620.843Z" fill="#F5F7F9" fill-opacity="0.18"/>
<path d="M471.795 410.973H454.314V393.483H471.795V410.973Z" fill="#F5F7F9" fill-opacity="0.08"/>
<path d="M471.795 515.908H454.314V498.419H471.795V515.908Z" fill="#F5F7F9" fill-opacity="0.08"/>
<path d="M471.795 306.037H454.314V288.548H471.795V306.037Z" fill="#F5F7F9" fill-opacity="0.08"/>
<path d="M471.795 568.375H454.314V550.886H471.795V568.375Z" fill="#F5F7F9" fill-opacity="0.08"/>
<path d="M471.795 148.634H454.314V131.145H471.795V148.634Z" fill="#F5F7F9" fill-opacity="0.1"/>
<path d="M471.795 463.44H454.314V445.951H471.795V463.44Z" fill="#F5F7F9" fill-opacity="0.08"/>
<path d="M471.795 253.569H454.314V236.08H471.795V253.569Z" fill="#F5F7F9" fill-opacity="0.08"/>
<path d="M471.795 594.61H454.314V577.121H471.795V594.61Z" fill="#F5F7F9" fill-opacity="0.18"/>
<path d="M471.795 174.867H454.314V157.378H471.795V174.867Z" fill="#F5F7F9" fill-opacity="0.08"/>
<path d="M471.795 384.738H454.314V367.249H471.795V384.738Z" fill="#F5F7F9" fill-opacity="0.08"/>
<path d="M471.795 489.673H454.314V472.184H471.795V489.673Z" fill="#F5F7F9" fill-opacity="0.08"/>
<path d="M471.795 279.804H454.314V262.314H471.795V279.804Z" fill="#F5F7F9" fill-opacity="0.08"/>
<path d="M471.795 542.141H454.314V524.652H471.795V542.141Z" fill="#F5F7F9" fill-opacity="0.08"/>
<path d="M471.795 122.4H454.314V104.91H471.795V122.4Z" fill="#F5F7F9" fill-opacity="0.18"/>
<path d="M471.795 332.27H454.314V314.781H471.795V332.27Z" fill="#F5F7F9" fill-opacity="0.08"/>
<path d="M471.795 437.207H454.314V419.718H471.795V437.207Z" fill="#F5F7F9" fill-opacity="0.08"/>
<path d="M471.795 227.334H454.314V209.845H471.795V227.334Z" fill="#F5F7F9" fill-opacity="0.08"/>
<path d="M157.147 568.375H139.667V550.886H157.147V568.375Z" fill="#F5F7F9" fill-opacity="0.08"/>
<path d="M157.147 594.61H139.667V577.121H157.147V594.61Z" fill="#F5F7F9" fill-opacity="0.08"/>
<path d="M314.471 620.843H296.99V603.353H314.471V620.843Z" fill="#F5F7F9" fill-opacity="0.1"/>
<path d="M314.471 568.375H296.99V550.886H314.471V568.375Z" fill="#F5F7F9" fill-opacity="0.08"/>
<path d="M314.471 594.61H296.99V577.121H314.471V594.61Z" fill="#F5F7F9" fill-opacity="0.08"/>
<path d="M524.236 620.843H506.755V603.353H524.236V620.843Z" fill="#F5F7F9" fill-opacity="0.08"/>
<path d="M471.701 698.957H454.22V681.468H471.701V698.957Z" fill="#F5F7F9" fill-opacity="0.08"/>
<path d="M419.166 777.071H401.685V759.582H419.166V777.071Z" fill="#F5F7F9" fill-opacity="0.08"/>
<path d="M524.236 201.101H506.755V183.611H524.236V201.101Z" fill="#F5F7F9" fill-opacity="0.08"/>
<path d="M524.236 410.973H506.755V393.483H524.236V410.973Z" fill="#F5F7F9" fill-opacity="0.1"/>
<path d="M524.236 515.908H506.755V498.419H524.236V515.908Z" fill="#F5F7F9" fill-opacity="0.08"/>
<path d="M524.236 306.037H506.755V288.548H524.236V306.037Z" fill="#F5F7F9" fill-opacity="0.08"/>
<path d="M524.236 568.375H506.755V550.886H524.236V568.375Z" fill="#F5F7F9" fill-opacity="0.08"/>
<path d="M471.701 646.489H454.22V629H471.701V646.489Z" fill="#F5F7F9" fill-opacity="0.08"/>
<path d="M419.166 724.604H401.685V707.114H419.166V724.604Z" fill="#F5F7F9" fill-opacity="0.08"/>
<path d="M524.236 148.634H506.755V131.145H524.236V148.634Z" fill="#F5F7F9" fill-opacity="0.1"/>
<path d="M524.236 358.505H506.755V341.015H524.236V358.505Z" fill="#F5F7F9" fill-opacity="0.1"/>
<path d="M524.236 463.44H506.755V445.951H524.236V463.44Z" fill="#F5F7F9" fill-opacity="0.08"/>
<path d="M524.236 594.61H506.755V577.121H524.236V594.61Z" fill="#F5F7F9" fill-opacity="0.08"/>
<path d="M471.701 672.724H454.22V655.235H471.701V672.724Z" fill="#F5F7F9" fill-opacity="0.08"/>
<path d="M419.166 750.838H401.685V733.349H419.166V750.838Z" fill="#F5F7F9" fill-opacity="0.1"/>
<path d="M524.236 174.867H506.755V157.378H524.236V174.867Z" fill="#F5F7F9" fill-opacity="0.08"/>
<path d="M524.236 384.738H506.755V367.249H524.236V384.738Z" fill="#F5F7F9" fill-opacity="0.18"/>
<path d="M524.236 489.673H506.755V472.184H524.236V489.673Z" fill="#F5F7F9" fill-opacity="0.08"/>
<path d="M524.236 542.141H506.755V524.652H524.236V542.141Z" fill="#F5F7F9" fill-opacity="0.08"/>
<path d="M524.236 122.4H506.755V104.91H524.236V122.4Z" fill="#F5F7F9" fill-opacity="0.08"/>
<path d="M524.236 332.27H506.755V314.781H524.236V332.27Z" fill="#F5F7F9" fill-opacity="0.1"/>
<path d="M209.589 568.375H192.109V550.886H209.589V568.375Z" fill="#F5F7F9" fill-opacity="0.08"/>
<path d="M209.589 594.61H192.109V577.121H209.589V594.61Z" fill="#F5F7F9" fill-opacity="0.1"/>
<path d="M366.911 620.843H349.431V603.353H366.911V620.843Z" fill="#F5F7F9" fill-opacity="0.1"/>
<path d="M366.911 148.634H349.431V131.145H366.911V148.634Z" fill="#F5F7F9" fill-opacity="0.08"/>
<path d="M366.911 594.61H349.431V577.121H366.911V594.61Z" fill="#F5F7F9" fill-opacity="0.08"/>
<path d="M445.573 620.843H428.093V603.353H445.573V620.843Z" fill="#F5F7F9" fill-opacity="0.08"/>
<path d="M445.573 410.973H428.093V393.483H445.573V410.973Z" fill="#F5F7F9" fill-opacity="0.08"/>
<path d="M445.573 568.375H428.093V550.886H445.573V568.375Z" fill="#F5F7F9" fill-opacity="0.08"/>
<path d="M445.573 148.634H428.093V131.145H445.573V148.634Z" fill="url(#paint5_linear_14_4683)"/>
<path d="M445.573 358.505H428.093V341.015H445.573V358.505Z" fill="#F5F7F9" fill-opacity="0.18"/>
<path d="M445.573 463.44H428.093V445.951H445.573V463.44Z" fill="#F5F7F9" fill-opacity="0.08"/>
<path d="M445.573 253.569H428.093V236.08H445.573V253.569Z" fill="#F5F7F9" fill-opacity="0.08"/>
<path d="M445.573 594.61H428.093V577.121H445.573V594.61Z" fill="#F5F7F9" fill-opacity="0.1"/>
<path d="M445.573 174.867H428.093V157.378H445.573V174.867Z" fill="#F5F7F9" fill-opacity="0.08"/>
<path d="M445.573 384.738H428.093V367.249H445.573V384.738Z" fill="#F5F7F9" fill-opacity="0.08"/>
<path d="M445.573 489.673H428.093V472.184H445.573V489.673Z" fill="#F5F7F9" fill-opacity="0.08"/>
<path d="M445.573 279.804H428.093V262.314H445.573V279.804Z" fill="#F5F7F9" fill-opacity="0.08"/>
<path d="M445.573 542.141H428.093V524.652H445.573V542.141Z" fill="#F5F7F9" fill-opacity="0.08"/>
<path d="M445.573 437.207H428.093V419.718H445.573V437.207Z" fill="#F5F7F9" fill-opacity="0.08"/>
<path d="M445.573 227.334H428.093V209.845H445.573V227.334Z" fill="#F5F7F9" fill-opacity="0.08"/>
<path d="M288.25 620.843H270.769V603.353H288.25V620.843Z" fill="#F5F7F9" fill-opacity="0.1"/>
<path d="M288.25 568.375H270.769V550.886H288.25V568.375Z" fill="#F5F7F9" fill-opacity="0.1"/>
<path d="M288.25 594.61H270.769V577.121H288.25V594.61Z" fill="#F5F7F9" fill-opacity="0.08"/>
<path d="M261.957 786.543L261.957 804.024L244.468 804.024L244.468 786.543L261.957 786.543Z" fill="#F5F7F9" fill-opacity="0.1"/>
<path d="M235.724 786.543L235.724 804.024L218.235 804.024L218.235 786.543L235.724 786.543Z" fill="#F5F7F9" fill-opacity="0.18"/>
<path d="M261.957 629.221L261.957 646.701L244.468 646.701L244.468 629.221L261.957 629.221Z" fill="#F5F7F9" fill-opacity="0.1"/>
<path d="M209.489 629.221L209.489 646.701L192 646.701L192 629.221L209.489 629.221Z" fill="#F5F7F9" fill-opacity="0.08"/>
<path d="M235.724 629.221L235.724 646.701L218.235 646.701L218.235 629.221L235.724 629.221Z" fill="#F5F7F9" fill-opacity="0.08"/>
<path d="M209.489 734.102L209.489 751.582L192 751.582L192 734.102L209.489 734.102Z" fill="#F5F7F9" fill-opacity="0.08"/>
<path d="M235.724 734.102L235.724 751.582L218.235 751.582L218.235 734.102L235.724 734.102Z" fill="#F5F7F9" fill-opacity="0.18"/>
<path d="M261.957 891.427L261.957 908.908L244.468 908.908L244.468 891.427L261.957 891.427Z" fill="#F5F7F9" fill-opacity="0.1"/>
<path d="M235.724 891.427L235.724 908.908L218.235 908.908L218.235 891.427L235.724 891.427Z" fill="#F5F7F9" fill-opacity="0.08"/>
<path d="M209.489 812.764L209.489 830.245L192 830.245L192 812.764L209.489 812.764Z" fill="#F5F7F9" fill-opacity="0.08"/>
<path d="M235.724 812.764L235.724 830.245L218.235 830.245L218.235 812.764L235.724 812.764Z" fill="#F5F7F9" fill-opacity="0.08"/>
<path d="M261.957 655.44L261.957 672.921L244.468 672.921L244.468 655.44L261.957 655.44Z" fill="url(#paint6_linear_14_4683)"/>
<path d="M209.489 655.44L209.489 672.921L192 672.921L192 655.44L209.489 655.44Z" fill="#F5F7F9" fill-opacity="0.08"/>
<path d="M235.724 655.44L235.724 672.921L218.235 672.921L218.235 655.44L235.724 655.44Z" fill="#F5F7F9" fill-opacity="0.08"/>
<path d="M209.489 760.322L209.489 777.802L192 777.802L192 760.322L209.489 760.322Z" fill="#F5F7F9" fill-opacity="0.08"/>
<path d="M235.724 760.322L235.724 777.802L218.235 777.802L218.235 760.322L235.724 760.322Z" fill="#F5F7F9" fill-opacity="0.1"/>
<path d="M261.957 603L261.957 620.48L244.468 620.48L244.468 603L261.957 603Z" fill="#F5F7F9" fill-opacity="0.1"/>
<path d="M235.724 603L235.724 620.48L218.235 620.48L218.235 603L235.724 603Z" fill="#F5F7F9" fill-opacity="0.08"/>
<path d="M261.957 681.661L261.957 699.142L244.468 699.142L244.468 681.661L261.957 681.661Z" fill="#F5F7F9" fill-opacity="0.1"/>
<path d="M209.489 681.661L209.489 699.142L192 699.142L192 681.661L209.489 681.661Z" fill="#F5F7F9" fill-opacity="0.1"/>
<path d="M235.724 681.661L235.724 699.142L218.235 699.142L218.235 681.661L235.724 681.661Z" fill="#F5F7F9" fill-opacity="0.08"/>
<path d="M428.5 280C428.5 276.686 431.186 274 434.5 274H524.5C527.814 274 530.5 276.686 530.5 280V296C530.5 299.314 527.814 302 524.5 302H434.5C431.186 302 428.5 299.314 428.5 296V280Z" fill="#171B20"/>
<path d="M434.5 274.5H524.5C527.538 274.5 530 276.962 530 280V296C530 299.038 527.538 301.5 524.5 301.5H434.5C431.462 301.5 429 299.038 429 296V280C429 276.962 431.462 274.5 434.5 274.5Z" stroke="#F5F7F9" stroke-opacity="0.18"/>
<path d="M443.21 284.86C444.09 284.86 444.73 285.043 445.13 285.41C445.53 285.777 445.73 286.293 445.73 286.96C445.73 287.253 445.683 287.537 445.59 287.81C445.503 288.077 445.357 288.317 445.15 288.53C444.943 288.743 444.667 288.913 444.32 289.04C443.98 289.16 443.56 289.22 443.06 289.22H442.3V292H441.41V284.86H443.21ZM443.14 285.63H442.3V288.45H442.96C443.373 288.45 443.717 288.403 443.99 288.31C444.263 288.21 444.467 288.053 444.6 287.84C444.74 287.627 444.81 287.347 444.81 287C444.81 286.54 444.673 286.197 444.4 285.97C444.133 285.743 443.713 285.63 443.14 285.63ZM451.253 286.64V292H450.553L450.423 291.29H450.383C450.276 291.477 450.136 291.63 449.963 291.75C449.796 291.87 449.613 291.957 449.413 292.01C449.213 292.07 449.003 292.1 448.783 292.1C448.383 292.1 448.046 292.033 447.773 291.9C447.5 291.76 447.293 291.547 447.153 291.26C447.02 290.973 446.953 290.603 446.953 290.15V286.64H447.833V290.09C447.833 290.517 447.923 290.837 448.103 291.05C448.283 291.263 448.56 291.37 448.933 291.37C449.3 291.37 449.586 291.297 449.793 291.15C450.006 290.997 450.156 290.777 450.243 290.49C450.336 290.197 450.383 289.843 450.383 289.43V286.64H451.253ZM455.223 286.54C455.316 286.54 455.416 286.547 455.523 286.56C455.63 286.567 455.723 286.58 455.803 286.6L455.703 287.41C455.623 287.39 455.533 287.373 455.433 287.36C455.34 287.347 455.25 287.34 455.163 287.34C454.97 287.34 454.786 287.383 454.613 287.47C454.44 287.557 454.283 287.68 454.143 287.84C454.01 287.993 453.903 288.18 453.823 288.4C453.743 288.62 453.703 288.867 453.703 289.14V292H452.833V286.64H453.543L453.643 287.62H453.683C453.79 287.42 453.916 287.24 454.063 287.08C454.216 286.913 454.39 286.783 454.583 286.69C454.776 286.59 454.99 286.54 455.223 286.54ZM458.584 292.1C458.13 292.1 457.73 292.003 457.384 291.81C457.037 291.617 456.764 291.317 456.564 290.91C456.37 290.503 456.274 289.983 456.274 289.35C456.274 288.69 456.377 288.153 456.584 287.74C456.79 287.327 457.07 287.023 457.424 286.83C457.784 286.637 458.19 286.54 458.644 286.54C458.904 286.54 459.154 286.57 459.394 286.63C459.64 286.683 459.84 286.75 459.994 286.83L459.724 287.56C459.57 287.5 459.39 287.443 459.184 287.39C458.984 287.337 458.797 287.31 458.624 287.31C458.297 287.31 458.027 287.387 457.814 287.54C457.6 287.693 457.44 287.92 457.334 288.22C457.227 288.52 457.174 288.893 457.174 289.34C457.174 289.767 457.227 290.13 457.334 290.43C457.44 290.73 457.597 290.957 457.804 291.11C458.017 291.263 458.277 291.34 458.584 291.34C458.857 291.34 459.1 291.31 459.314 291.25C459.527 291.19 459.724 291.117 459.904 291.03V291.81C459.73 291.903 459.54 291.973 459.334 292.02C459.127 292.073 458.877 292.1 458.584 292.1ZM461.965 286.63C461.965 286.757 461.958 286.887 461.945 287.02C461.938 287.153 461.928 287.273 461.915 287.38H461.975C462.081 287.193 462.215 287.04 462.375 286.92C462.541 286.8 462.721 286.71 462.915 286.65C463.115 286.583 463.321 286.55 463.535 286.55C463.941 286.55 464.281 286.62 464.555 286.76C464.828 286.893 465.035 287.103 465.175 287.39C465.315 287.677 465.385 288.05 465.385 288.51V292H464.515V288.57C464.515 288.137 464.425 287.813 464.245 287.6C464.065 287.387 463.788 287.28 463.415 287.28C463.048 287.28 462.758 287.357 462.545 287.51C462.331 287.657 462.181 287.877 462.095 288.17C462.008 288.457 461.965 288.81 461.965 289.23V292H461.095V284.4H461.965V286.63ZM468.865 286.55C469.478 286.55 469.935 286.693 470.235 286.98C470.541 287.267 470.695 287.723 470.695 288.35V292H470.065L469.895 291.24H469.855C469.708 291.433 469.558 291.597 469.405 291.73C469.258 291.857 469.085 291.95 468.885 292.01C468.691 292.07 468.451 292.1 468.165 292.1C467.865 292.1 467.595 292.043 467.355 291.93C467.115 291.817 466.925 291.643 466.785 291.41C466.645 291.17 466.575 290.87 466.575 290.51C466.575 289.977 466.771 289.567 467.165 289.28C467.558 288.987 468.165 288.827 468.985 288.8L469.835 288.77V288.45C469.835 288.003 469.745 287.693 469.565 287.52C469.391 287.347 469.141 287.26 468.815 287.26C468.555 287.26 468.305 287.303 468.065 287.39C467.831 287.47 467.608 287.563 467.395 287.67L467.125 287.01C467.351 286.883 467.615 286.777 467.915 286.69C468.215 286.597 468.531 286.55 468.865 286.55ZM469.105 289.41C468.491 289.437 468.065 289.543 467.825 289.73C467.591 289.917 467.475 290.18 467.475 290.52C467.475 290.82 467.558 291.04 467.725 291.18C467.891 291.32 468.108 291.39 468.375 291.39C468.788 291.39 469.135 291.267 469.415 291.02C469.695 290.767 469.835 290.38 469.835 289.86V289.38L469.105 289.41ZM475.557 290.52C475.557 290.867 475.474 291.157 475.307 291.39C475.147 291.623 474.917 291.8 474.617 291.92C474.317 292.04 473.957 292.1 473.537 292.1C473.184 292.1 472.877 292.07 472.617 292.01C472.364 291.95 472.14 291.867 471.947 291.76V290.96C472.154 291.067 472.4 291.167 472.687 291.26C472.974 291.347 473.264 291.39 473.557 291.39C473.964 291.39 474.257 291.32 474.437 291.18C474.624 291.033 474.717 290.84 474.717 290.6C474.717 290.467 474.68 290.347 474.607 290.24C474.54 290.133 474.417 290.027 474.237 289.92C474.064 289.813 473.81 289.693 473.477 289.56C473.157 289.427 472.88 289.293 472.647 289.16C472.42 289.027 472.244 288.867 472.117 288.68C471.997 288.493 471.937 288.253 471.937 287.96C471.937 287.507 472.11 287.157 472.457 286.91C472.81 286.663 473.27 286.54 473.837 286.54C474.144 286.54 474.43 286.573 474.697 286.64C474.964 286.7 475.217 286.787 475.457 286.9L475.167 287.6C475.027 287.533 474.88 287.477 474.727 287.43C474.574 287.377 474.417 287.337 474.257 287.31C474.104 287.277 473.947 287.26 473.787 287.26C473.46 287.26 473.21 287.32 473.037 287.44C472.864 287.553 472.777 287.71 472.777 287.91C472.777 288.057 472.817 288.183 472.897 288.29C472.977 288.397 473.107 288.5 473.287 288.6C473.474 288.693 473.727 288.803 474.047 288.93C474.367 289.057 474.64 289.187 474.867 289.32C475.094 289.453 475.264 289.617 475.377 289.81C475.497 289.997 475.557 290.233 475.557 290.52ZM478.729 286.54C479.162 286.54 479.535 286.64 479.849 286.84C480.162 287.04 480.402 287.323 480.569 287.69C480.742 288.05 480.829 288.473 480.829 288.96V289.49H477.389C477.402 290.097 477.545 290.56 477.819 290.88C478.092 291.193 478.475 291.35 478.969 291.35C479.289 291.35 479.572 291.32 479.819 291.26C480.072 291.193 480.332 291.1 480.599 290.98V291.75C480.339 291.87 480.082 291.957 479.829 292.01C479.582 292.07 479.282 292.1 478.929 292.1C478.449 292.1 478.025 291.997 477.659 291.79C477.292 291.583 477.005 291.277 476.799 290.87C476.592 290.457 476.489 289.953 476.489 289.36C476.489 288.773 476.582 288.27 476.769 287.85C476.955 287.43 477.215 287.107 477.549 286.88C477.889 286.653 478.282 286.54 478.729 286.54ZM478.729 287.26C478.342 287.26 478.035 287.397 477.809 287.67C477.582 287.937 477.449 288.31 477.409 288.79H479.929C479.929 288.483 479.885 288.217 479.799 287.99C479.712 287.763 479.579 287.587 479.399 287.46C479.225 287.327 479.002 287.26 478.729 287.26ZM481.971 291.46C481.971 291.213 482.027 291.04 482.141 290.94C482.254 290.84 482.394 290.79 482.561 290.79C482.727 290.79 482.871 290.84 482.991 290.94C483.111 291.04 483.171 291.213 483.171 291.46C483.171 291.7 483.111 291.873 482.991 291.98C482.871 292.087 482.727 292.14 482.561 292.14C482.394 292.14 482.254 292.087 482.141 291.98C482.027 291.873 481.971 291.7 481.971 291.46ZM481.971 287.18C481.971 286.927 482.027 286.75 482.141 286.65C482.254 286.55 482.394 286.5 482.561 286.5C482.727 286.5 482.871 286.55 482.991 286.65C483.111 286.75 483.171 286.927 483.171 287.18C483.171 287.42 483.111 287.593 482.991 287.7C482.871 287.807 482.727 287.86 482.561 287.86C482.394 287.86 482.254 287.807 482.141 287.7C482.027 287.593 481.971 287.42 481.971 287.18Z" fill="#6C7886"/>
<path d="M490.88 291.51C490.527 291.503 490.187 291.473 489.86 291.42C489.54 291.36 489.277 291.28 489.07 291.18V290.33C489.283 290.437 489.557 290.53 489.89 290.61C490.23 290.69 490.56 290.733 490.88 290.74V288.72C490.567 288.627 490.293 288.527 490.06 288.42C489.833 288.307 489.647 288.18 489.5 288.04C489.353 287.9 489.243 287.74 489.17 287.56C489.103 287.373 489.07 287.16 489.07 286.92C489.07 286.593 489.143 286.313 489.29 286.08C489.437 285.847 489.647 285.663 489.92 285.53C490.193 285.39 490.513 285.31 490.88 285.29V284.41H491.48V285.28C491.813 285.287 492.117 285.327 492.39 285.4C492.67 285.467 492.927 285.55 493.16 285.65L492.89 286.39C492.683 286.303 492.46 286.23 492.22 286.17C491.98 286.103 491.733 286.06 491.48 286.04V288.05C491.893 288.177 492.237 288.313 492.51 288.46C492.79 288.6 493 288.777 493.14 288.99C493.287 289.197 493.36 289.467 493.36 289.8C493.36 290.267 493.197 290.647 492.87 290.94C492.55 291.227 492.087 291.403 491.48 291.47V292.58H490.88V291.51ZM491.48 290.69C491.833 290.65 492.093 290.56 492.26 290.42C492.427 290.273 492.51 290.087 492.51 289.86C492.51 289.693 492.477 289.557 492.41 289.45C492.35 289.337 492.247 289.24 492.1 289.16C491.953 289.08 491.747 289.003 491.48 288.93V290.69ZM490.88 286.06C490.667 286.073 490.487 286.117 490.34 286.19C490.2 286.257 490.093 286.347 490.02 286.46C489.953 286.573 489.92 286.703 489.92 286.85C489.92 287.023 489.95 287.173 490.01 287.3C490.07 287.42 490.17 287.523 490.31 287.61C490.45 287.69 490.64 287.763 490.88 287.83V286.06ZM496.551 284.76C496.944 284.76 497.291 284.827 497.591 284.96C497.898 285.087 498.138 285.277 498.311 285.53C498.484 285.783 498.571 286.097 498.571 286.47C498.571 286.757 498.511 287.007 498.391 287.22C498.278 287.433 498.124 287.623 497.931 287.79C497.744 287.95 497.534 288.093 497.301 288.22C497.574 288.36 497.824 288.52 498.051 288.7C498.278 288.873 498.458 289.077 498.591 289.31C498.724 289.543 498.791 289.823 498.791 290.15C498.791 290.55 498.698 290.897 498.511 291.19C498.331 291.477 498.074 291.7 497.741 291.86C497.414 292.02 497.028 292.1 496.581 292.1C496.094 292.1 495.681 292.023 495.341 291.87C495.008 291.717 494.754 291.5 494.581 291.22C494.408 290.933 494.321 290.587 494.321 290.18C494.321 289.853 494.384 289.57 494.511 289.33C494.638 289.09 494.804 288.883 495.011 288.71C495.224 288.537 495.454 288.39 495.701 288.27C495.488 288.137 495.291 287.987 495.111 287.82C494.938 287.647 494.798 287.45 494.691 287.23C494.591 287.01 494.541 286.753 494.541 286.46C494.541 286.093 494.628 285.787 494.801 285.54C494.981 285.287 495.221 285.093 495.521 284.96C495.828 284.827 496.171 284.76 496.551 284.76ZM495.171 290.19C495.171 290.537 495.284 290.827 495.511 291.06C495.738 291.287 496.088 291.4 496.561 291.4C496.861 291.4 497.111 291.347 497.311 291.24C497.518 291.133 497.674 290.987 497.781 290.8C497.888 290.613 497.941 290.4 497.941 290.16C497.941 289.927 497.881 289.723 497.761 289.55C497.648 289.37 497.488 289.21 497.281 289.07C497.074 288.93 496.834 288.803 496.561 288.69L496.421 288.63C496.154 288.757 495.928 288.893 495.741 289.04C495.554 289.187 495.411 289.353 495.311 289.54C495.218 289.727 495.171 289.943 495.171 290.19ZM496.541 285.47C496.201 285.47 495.921 285.56 495.701 285.74C495.488 285.913 495.381 286.167 495.381 286.5C495.381 286.747 495.434 286.953 495.541 287.12C495.654 287.287 495.801 287.43 495.981 287.55C496.161 287.663 496.361 287.773 496.581 287.88C496.794 287.78 496.984 287.67 497.151 287.55C497.324 287.43 497.461 287.287 497.561 287.12C497.661 286.947 497.711 286.74 497.711 286.5C497.711 286.167 497.604 285.913 497.391 285.74C497.178 285.56 496.894 285.47 496.541 285.47ZM501.072 290.95C501.019 291.183 500.946 291.437 500.852 291.71C500.766 291.983 500.669 292.253 500.562 292.52C500.462 292.793 500.362 293.05 500.262 293.29H499.622C499.682 293.037 499.742 292.763 499.802 292.47C499.862 292.183 499.919 291.9 499.972 291.62C500.026 291.333 500.066 291.073 500.092 290.84H501.002L501.072 290.95ZM506.431 286.53C506.431 286.85 506.371 287.127 506.251 287.36C506.138 287.593 505.978 287.783 505.771 287.93C505.565 288.077 505.318 288.18 505.031 288.24V288.28C505.571 288.347 505.975 288.527 506.241 288.82C506.508 289.113 506.641 289.497 506.641 289.97C506.641 290.383 506.548 290.753 506.361 291.08C506.181 291.4 505.898 291.65 505.511 291.83C505.131 292.01 504.645 292.1 504.051 292.1C503.698 292.1 503.371 292.07 503.071 292.01C502.771 291.957 502.481 291.857 502.201 291.71V290.89C502.481 291.037 502.785 291.153 503.111 291.24C503.438 291.32 503.751 291.36 504.051 291.36C504.645 291.36 505.071 291.237 505.331 290.99C505.591 290.737 505.721 290.39 505.721 289.95C505.721 289.65 505.648 289.41 505.501 289.23C505.361 289.043 505.151 288.907 504.871 288.82C504.598 288.733 504.261 288.69 503.861 288.69H503.231V287.94H503.871C504.245 287.94 504.555 287.883 504.801 287.77C505.048 287.657 505.231 287.5 505.351 287.3C505.478 287.093 505.541 286.857 505.541 286.59C505.541 286.243 505.435 285.977 505.221 285.79C505.008 285.597 504.715 285.5 504.341 285.5C504.101 285.5 503.885 285.527 503.691 285.58C503.498 285.627 503.318 285.697 503.151 285.79C502.991 285.877 502.831 285.98 502.671 286.1L502.241 285.5C502.401 285.367 502.585 285.243 502.791 285.13C503.005 285.017 503.241 284.927 503.501 284.86C503.761 284.793 504.041 284.76 504.341 284.76C505.041 284.76 505.565 284.927 505.911 285.26C506.258 285.593 506.431 286.017 506.431 286.53ZM512.062 292H507.602V291.27L509.352 289.38C509.686 289.02 509.966 288.7 510.192 288.42C510.426 288.14 510.602 287.867 510.722 287.6C510.842 287.327 510.902 287.03 510.902 286.71C510.902 286.317 510.796 286.02 510.582 285.82C510.369 285.613 510.089 285.51 509.742 285.51C509.422 285.51 509.139 285.57 508.892 285.69C508.646 285.81 508.396 285.977 508.142 286.19L507.672 285.6C507.852 285.44 508.046 285.297 508.252 285.17C508.459 285.043 508.686 284.943 508.932 284.87C509.186 284.797 509.459 284.76 509.752 284.76C510.172 284.76 510.532 284.837 510.832 284.99C511.139 285.143 511.376 285.363 511.542 285.65C511.709 285.93 511.792 286.267 511.792 286.66C511.792 286.94 511.749 287.207 511.662 287.46C511.582 287.707 511.466 287.95 511.312 288.19C511.159 288.43 510.976 288.673 510.762 288.92C510.556 289.167 510.322 289.427 510.062 289.7L508.692 291.16L508.702 291.2H512.062V292ZM517.713 290.38H516.743V292H515.903V290.38H512.713V289.63L515.853 284.82H516.743V289.59H517.713V290.38ZM515.903 287.34C515.903 287.167 515.903 287.01 515.903 286.87C515.91 286.723 515.917 286.587 515.923 286.46C515.93 286.333 515.933 286.213 515.933 286.1C515.94 285.98 515.947 285.867 515.953 285.76H515.913C515.86 285.887 515.797 286.023 515.723 286.17C515.65 286.317 515.58 286.44 515.513 286.54L513.553 289.59H515.903V287.34Z" fill="#F4FAFF"/>
<path d="M340 500C340 496.686 342.686 494 346 494H433C436.314 494 439 496.686 439 500V516C439 519.314 436.314 522 433 522H346C342.686 522 340 519.314 340 516V500Z" fill="#171B20"/>
<path d="M346 494.5H433C436.038 494.5 438.5 496.962 438.5 500V516C438.5 519.038 436.038 521.5 433 521.5H346C342.962 521.5 340.5 519.038 340.5 516V500C340.5 496.962 342.962 494.5 346 494.5Z" stroke="#F5F7F9" stroke-opacity="0.18"/>
<path d="M358.3 508.36C358.3 509.16 358.16 509.83 357.88 510.37C357.6 510.91 357.197 511.317 356.67 511.59C356.15 511.863 355.52 512 354.78 512H352.91V504.86H354.98C355.66 504.86 356.247 504.993 356.74 505.26C357.24 505.527 357.623 505.92 357.89 506.44C358.163 506.953 358.3 507.593 358.3 508.36ZM357.36 508.39C357.36 507.757 357.263 507.237 357.07 506.83C356.877 506.423 356.593 506.123 356.22 505.93C355.853 505.73 355.403 505.63 354.87 505.63H353.8V511.23H354.69C355.583 511.23 356.25 510.993 356.69 510.52C357.137 510.04 357.36 509.33 357.36 508.39ZM364.065 509.31C364.065 509.757 364.009 510.153 363.895 510.5C363.789 510.84 363.632 511.13 363.425 511.37C363.219 511.61 362.969 511.793 362.675 511.92C362.382 512.04 362.055 512.1 361.695 512.1C361.362 512.1 361.052 512.04 360.765 511.92C360.485 511.793 360.239 511.61 360.025 511.37C359.819 511.13 359.659 510.84 359.545 510.5C359.432 510.153 359.375 509.757 359.375 509.31C359.375 508.717 359.469 508.217 359.655 507.81C359.849 507.397 360.122 507.083 360.475 506.87C360.829 506.65 361.245 506.54 361.725 506.54C362.185 506.54 362.589 506.65 362.935 506.87C363.289 507.083 363.565 507.397 363.765 507.81C363.965 508.217 364.065 508.717 364.065 509.31ZM360.275 509.31C360.275 509.73 360.325 510.097 360.425 510.41C360.525 510.717 360.682 510.953 360.895 511.12C361.109 511.287 361.382 511.37 361.715 511.37C362.049 511.37 362.322 511.287 362.535 511.12C362.749 510.953 362.905 510.717 363.005 510.41C363.112 510.097 363.165 509.73 363.165 509.31C363.165 508.883 363.112 508.52 363.005 508.22C362.905 507.92 362.749 507.69 362.535 507.53C362.322 507.363 362.045 507.28 361.705 507.28C361.205 507.28 360.842 507.46 360.615 507.82C360.389 508.18 360.275 508.677 360.275 509.31ZM367.818 506.54C368.418 506.54 368.872 506.697 369.178 507.01C369.492 507.317 369.648 507.817 369.648 508.51V512H368.778V508.57C368.778 508.137 368.688 507.813 368.508 507.6C368.328 507.387 368.052 507.28 367.678 507.28C367.132 507.28 366.752 507.447 366.538 507.78C366.332 508.113 366.228 508.593 366.228 509.22V512H365.358V506.64H366.058L366.188 507.37H366.238C366.345 507.183 366.482 507.03 366.648 506.91C366.815 506.783 366.998 506.69 367.198 506.63C367.398 506.57 367.605 506.54 367.818 506.54ZM373.128 506.55C373.742 506.55 374.198 506.693 374.498 506.98C374.805 507.267 374.958 507.723 374.958 508.35V512H374.328L374.158 511.24H374.118C373.972 511.433 373.822 511.597 373.668 511.73C373.522 511.857 373.348 511.95 373.148 512.01C372.955 512.07 372.715 512.1 372.428 512.1C372.128 512.1 371.858 512.043 371.618 511.93C371.378 511.817 371.188 511.643 371.048 511.41C370.908 511.17 370.838 510.87 370.838 510.51C370.838 509.977 371.035 509.567 371.428 509.28C371.822 508.987 372.428 508.827 373.248 508.8L374.098 508.77V508.45C374.098 508.003 374.008 507.693 373.828 507.52C373.655 507.347 373.405 507.26 373.078 507.26C372.818 507.26 372.568 507.303 372.328 507.39C372.095 507.47 371.872 507.563 371.658 507.67L371.388 507.01C371.615 506.883 371.878 506.777 372.178 506.69C372.478 506.597 372.795 506.55 373.128 506.55ZM373.368 509.41C372.755 509.437 372.328 509.543 372.088 509.73C371.855 509.917 371.738 510.18 371.738 510.52C371.738 510.82 371.822 511.04 371.988 511.18C372.155 511.32 372.372 511.39 372.638 511.39C373.052 511.39 373.398 511.267 373.678 511.02C373.958 510.767 374.098 510.38 374.098 509.86V509.38L373.368 509.41ZM378.241 511.38C378.367 511.38 378.497 511.37 378.631 511.35C378.764 511.323 378.874 511.297 378.961 511.27V511.94C378.867 511.987 378.734 512.023 378.561 512.05C378.394 512.083 378.234 512.1 378.081 512.1C377.814 512.1 377.567 512.053 377.341 511.96C377.114 511.86 376.931 511.69 376.791 511.45C376.657 511.21 376.591 510.873 376.591 510.44V507.32H375.881V506.9L376.611 506.55L376.941 505.41H377.461V506.64H378.921V507.32H377.461V510.42C377.461 510.747 377.534 510.99 377.681 511.15C377.827 511.303 378.014 511.38 378.241 511.38ZM381.918 506.54C382.351 506.54 382.725 506.64 383.038 506.84C383.351 507.04 383.591 507.323 383.758 507.69C383.931 508.05 384.018 508.473 384.018 508.96V509.49H380.578C380.591 510.097 380.735 510.56 381.008 510.88C381.281 511.193 381.665 511.35 382.158 511.35C382.478 511.35 382.761 511.32 383.008 511.26C383.261 511.193 383.521 511.1 383.788 510.98V511.75C383.528 511.87 383.271 511.957 383.018 512.01C382.771 512.07 382.471 512.1 382.118 512.1C381.638 512.1 381.215 511.997 380.848 511.79C380.481 511.583 380.195 511.277 379.988 510.87C379.781 510.457 379.678 509.953 379.678 509.36C379.678 508.773 379.771 508.27 379.958 507.85C380.145 507.43 380.405 507.107 380.738 506.88C381.078 506.653 381.471 506.54 381.918 506.54ZM381.918 507.26C381.531 507.26 381.225 507.397 380.998 507.67C380.771 507.937 380.638 508.31 380.598 508.79H383.118C383.118 508.483 383.075 508.217 382.988 507.99C382.901 507.763 382.768 507.587 382.588 507.46C382.415 507.327 382.191 507.26 381.918 507.26ZM387.06 512.1C386.44 512.1 385.94 511.87 385.56 511.41C385.187 510.943 385 510.25 385 509.33C385 508.41 385.19 507.717 385.57 507.25C385.95 506.777 386.45 506.54 387.07 506.54C387.33 506.54 387.557 506.577 387.75 506.65C387.944 506.717 388.11 506.81 388.25 506.93C388.397 507.05 388.52 507.183 388.62 507.33H388.68C388.674 507.243 388.66 507.117 388.64 506.95C388.627 506.777 388.62 506.64 388.62 506.54V504.4H389.49V512H388.79L388.66 511.28H388.62C388.52 511.433 388.397 511.573 388.25 511.7C388.11 511.82 387.94 511.917 387.74 511.99C387.547 512.063 387.32 512.1 387.06 512.1ZM387.22 511.37C387.74 511.37 388.104 511.217 388.31 510.91C388.524 510.597 388.63 510.127 388.63 509.5V509.34C388.63 508.673 388.53 508.163 388.33 507.81C388.13 507.45 387.757 507.27 387.21 507.27C386.77 507.27 386.44 507.46 386.22 507.84C386.007 508.213 385.9 508.717 385.9 509.35C385.9 509.99 386.007 510.487 386.22 510.84C386.44 511.193 386.774 511.37 387.22 511.37ZM390.951 511.46C390.951 511.213 391.008 511.04 391.121 510.94C391.235 510.84 391.375 510.79 391.541 510.79C391.708 510.79 391.851 510.84 391.971 510.94C392.091 511.04 392.151 511.213 392.151 511.46C392.151 511.7 392.091 511.873 391.971 511.98C391.851 512.087 391.708 512.14 391.541 512.14C391.375 512.14 391.235 512.087 391.121 511.98C391.008 511.873 390.951 511.7 390.951 511.46ZM390.951 507.18C390.951 506.927 391.008 506.75 391.121 506.65C391.235 506.55 391.375 506.5 391.541 506.5C391.708 506.5 391.851 506.55 391.971 506.65C392.091 506.75 392.151 506.927 392.151 507.18C392.151 507.42 392.091 507.593 391.971 507.7C391.851 507.807 391.708 507.86 391.541 507.86C391.375 507.86 391.235 507.807 391.121 507.7C391.008 507.593 390.951 507.42 390.951 507.18Z" fill="#6C7886"/>
<path d="M399.38 511.51C399.027 511.503 398.687 511.473 398.36 511.42C398.04 511.36 397.777 511.28 397.57 511.18V510.33C397.783 510.437 398.057 510.53 398.39 510.61C398.73 510.69 399.06 510.733 399.38 510.74V508.72C399.067 508.627 398.793 508.527 398.56 508.42C398.333 508.307 398.147 508.18 398 508.04C397.853 507.9 397.743 507.74 397.67 507.56C397.603 507.373 397.57 507.16 397.57 506.92C397.57 506.593 397.643 506.313 397.79 506.08C397.937 505.847 398.147 505.663 398.42 505.53C398.693 505.39 399.013 505.31 399.38 505.29V504.41H399.98V505.28C400.313 505.287 400.617 505.327 400.89 505.4C401.17 505.467 401.427 505.55 401.66 505.65L401.39 506.39C401.183 506.303 400.96 506.23 400.72 506.17C400.48 506.103 400.233 506.06 399.98 506.04V508.05C400.393 508.177 400.737 508.313 401.01 508.46C401.29 508.6 401.5 508.777 401.64 508.99C401.787 509.197 401.86 509.467 401.86 509.8C401.86 510.267 401.697 510.647 401.37 510.94C401.05 511.227 400.587 511.403 399.98 511.47V512.58H399.38V511.51ZM399.98 510.69C400.333 510.65 400.593 510.56 400.76 510.42C400.927 510.273 401.01 510.087 401.01 509.86C401.01 509.693 400.977 509.557 400.91 509.45C400.85 509.337 400.747 509.24 400.6 509.16C400.453 509.08 400.247 509.003 399.98 508.93V510.69ZM399.38 506.06C399.167 506.073 398.987 506.117 398.84 506.19C398.7 506.257 398.593 506.347 398.52 506.46C398.453 506.573 398.42 506.703 398.42 506.85C398.42 507.023 398.45 507.173 398.51 507.3C398.57 507.42 398.67 507.523 398.81 507.61C398.95 507.69 399.14 507.763 399.38 507.83V506.06ZM407.271 507.91C407.271 508.317 407.244 508.723 407.191 509.13C407.138 509.53 407.044 509.91 406.911 510.27C406.784 510.623 406.604 510.94 406.371 511.22C406.138 511.493 405.841 511.71 405.481 511.87C405.121 512.023 404.684 512.1 404.171 512.1C404.044 512.1 403.898 512.09 403.731 512.07C403.564 512.057 403.428 512.033 403.321 512V511.25C403.434 511.29 403.564 511.323 403.711 511.35C403.864 511.37 404.008 511.38 404.141 511.38C404.581 511.38 404.941 511.303 405.221 511.15C405.508 510.997 405.734 510.79 405.901 510.53C406.068 510.263 406.188 509.957 406.261 509.61C406.341 509.257 406.388 508.887 406.401 508.5H406.341C406.248 508.653 406.128 508.793 405.981 508.92C405.841 509.047 405.668 509.147 405.461 509.22C405.261 509.293 405.024 509.33 404.751 509.33C404.371 509.33 404.034 509.247 403.741 509.08C403.454 508.907 403.231 508.66 403.071 508.34C402.911 508.02 402.831 507.63 402.831 507.17C402.831 506.67 402.918 506.24 403.091 505.88C403.271 505.52 403.521 505.243 403.841 505.05C404.168 504.857 404.548 504.76 404.981 504.76C405.301 504.76 405.601 504.827 405.881 504.96C406.161 505.087 406.404 505.28 406.611 505.54C406.818 505.8 406.978 506.127 407.091 506.52C407.211 506.913 407.271 507.377 407.271 507.91ZM404.991 505.5C404.604 505.5 404.291 505.637 404.051 505.91C403.811 506.183 403.691 506.6 403.691 507.16C403.691 507.613 403.794 507.973 404.001 508.24C404.208 508.5 404.524 508.63 404.951 508.63C405.244 508.63 405.498 508.567 405.711 508.44C405.931 508.313 406.098 508.15 406.211 507.95C406.331 507.75 406.391 507.543 406.391 507.33C406.391 507.117 406.361 506.903 406.301 506.69C406.241 506.47 406.151 506.27 406.031 506.09C405.918 505.91 405.774 505.767 405.601 505.66C405.428 505.553 405.224 505.5 404.991 505.5ZM409.572 510.95C409.519 511.183 409.446 511.437 409.352 511.71C409.266 511.983 409.169 512.253 409.062 512.52C408.962 512.793 408.862 513.05 408.762 513.29H408.122C408.182 513.037 408.242 512.763 408.302 512.47C408.362 512.183 408.419 511.9 408.472 511.62C408.526 511.333 408.566 511.073 408.592 510.84H409.502L409.572 510.95ZM414.931 506.53C414.931 506.85 414.871 507.127 414.751 507.36C414.638 507.593 414.478 507.783 414.271 507.93C414.065 508.077 413.818 508.18 413.531 508.24V508.28C414.071 508.347 414.475 508.527 414.741 508.82C415.008 509.113 415.141 509.497 415.141 509.97C415.141 510.383 415.048 510.753 414.861 511.08C414.681 511.4 414.398 511.65 414.011 511.83C413.631 512.01 413.145 512.1 412.551 512.1C412.198 512.1 411.871 512.07 411.571 512.01C411.271 511.957 410.981 511.857 410.701 511.71V510.89C410.981 511.037 411.285 511.153 411.611 511.24C411.938 511.32 412.251 511.36 412.551 511.36C413.145 511.36 413.571 511.237 413.831 510.99C414.091 510.737 414.221 510.39 414.221 509.95C414.221 509.65 414.148 509.41 414.001 509.23C413.861 509.043 413.651 508.907 413.371 508.82C413.098 508.733 412.761 508.69 412.361 508.69H411.731V507.94H412.371C412.745 507.94 413.055 507.883 413.301 507.77C413.548 507.657 413.731 507.5 413.851 507.3C413.978 507.093 414.041 506.857 414.041 506.59C414.041 506.243 413.935 505.977 413.721 505.79C413.508 505.597 413.215 505.5 412.841 505.5C412.601 505.5 412.385 505.527 412.191 505.58C411.998 505.627 411.818 505.697 411.651 505.79C411.491 505.877 411.331 505.98 411.171 506.1L410.741 505.5C410.901 505.367 411.085 505.243 411.291 505.13C411.505 505.017 411.741 504.927 412.001 504.86C412.261 504.793 412.541 504.76 412.841 504.76C413.541 504.76 414.065 504.927 414.411 505.26C414.758 505.593 414.931 506.017 414.931 506.53ZM420.572 508.42C420.572 509 420.529 509.517 420.442 509.97C420.362 510.423 420.232 510.81 420.052 511.13C419.879 511.443 419.649 511.683 419.362 511.85C419.076 512.017 418.732 512.1 418.332 512.1C417.826 512.1 417.406 511.953 417.072 511.66C416.746 511.367 416.502 510.947 416.342 510.4C416.182 509.847 416.102 509.187 416.102 508.42C416.102 507.647 416.176 506.987 416.322 506.44C416.469 505.893 416.706 505.477 417.032 505.19C417.359 504.897 417.792 504.75 418.332 504.75C418.839 504.75 419.256 504.897 419.582 505.19C419.916 505.477 420.162 505.893 420.322 506.44C420.489 506.987 420.572 507.647 420.572 508.42ZM416.972 508.42C416.972 509.073 417.016 509.617 417.102 510.05C417.196 510.483 417.342 510.81 417.542 511.03C417.742 511.243 418.006 511.35 418.332 511.35C418.659 511.35 418.922 511.243 419.122 511.03C419.322 510.817 419.466 510.493 419.552 510.06C419.646 509.62 419.692 509.073 419.692 508.42C419.692 507.767 419.646 507.227 419.552 506.8C419.466 506.367 419.322 506.043 419.122 505.83C418.922 505.61 418.659 505.5 418.332 505.5C418.006 505.5 417.742 505.61 417.542 505.83C417.342 506.043 417.196 506.367 417.102 506.8C417.016 507.227 416.972 507.767 416.972 508.42ZM425.673 506.53C425.673 506.85 425.613 507.127 425.493 507.36C425.38 507.593 425.22 507.783 425.013 507.93C424.807 508.077 424.56 508.18 424.273 508.24V508.28C424.813 508.347 425.217 508.527 425.483 508.82C425.75 509.113 425.883 509.497 425.883 509.97C425.883 510.383 425.79 510.753 425.603 511.08C425.423 511.4 425.14 511.65 424.753 511.83C424.373 512.01 423.887 512.1 423.293 512.1C422.94 512.1 422.613 512.07 422.313 512.01C422.013 511.957 421.723 511.857 421.443 511.71V510.89C421.723 511.037 422.027 511.153 422.353 511.24C422.68 511.32 422.993 511.36 423.293 511.36C423.887 511.36 424.313 511.237 424.573 510.99C424.833 510.737 424.963 510.39 424.963 509.95C424.963 509.65 424.89 509.41 424.743 509.23C424.603 509.043 424.393 508.907 424.113 508.82C423.84 508.733 423.503 508.69 423.103 508.69H422.473V507.94H423.113C423.487 507.94 423.797 507.883 424.043 507.77C424.29 507.657 424.473 507.5 424.593 507.3C424.72 507.093 424.783 506.857 424.783 506.59C424.783 506.243 424.677 505.977 424.463 505.79C424.25 505.597 423.957 505.5 423.583 505.5C423.343 505.5 423.127 505.527 422.933 505.58C422.74 505.627 422.56 505.697 422.393 505.79C422.233 505.877 422.073 505.98 421.913 506.1L421.483 505.5C421.643 505.367 421.827 505.243 422.033 505.13C422.247 505.017 422.483 504.927 422.743 504.86C423.003 504.793 423.283 504.76 423.583 504.76C424.283 504.76 424.807 504.927 425.153 505.26C425.5 505.593 425.673 506.017 425.673 506.53Z" fill="#F4FAFF"/>
<path d="M178 196C178 192.686 180.686 190 184 190H263C266.314 190 269 192.686 269 196V212C269 215.314 266.314 218 263 218H184C180.686 218 178 215.314 178 212V196Z" fill="#171B20"/>
<path d="M184 190.5H263C266.038 190.5 268.5 192.962 268.5 196V212C268.5 215.038 266.038 217.5 263 217.5H184C180.962 217.5 178.5 215.038 178.5 212V196C178.5 192.962 180.962 190.5 184 190.5Z" stroke="#F5F7F9" stroke-opacity="0.18"/>
<path d="M196.3 204.36C196.3 205.16 196.16 205.83 195.88 206.37C195.6 206.91 195.197 207.317 194.67 207.59C194.15 207.863 193.52 208 192.78 208H190.91V200.86H192.98C193.66 200.86 194.247 200.993 194.74 201.26C195.24 201.527 195.623 201.92 195.89 202.44C196.163 202.953 196.3 203.593 196.3 204.36ZM195.36 204.39C195.36 203.757 195.263 203.237 195.07 202.83C194.877 202.423 194.593 202.123 194.22 201.93C193.853 201.73 193.403 201.63 192.87 201.63H191.8V207.23H192.69C193.583 207.23 194.25 206.993 194.69 206.52C195.137 206.04 195.36 205.33 195.36 204.39ZM202.065 205.31C202.065 205.757 202.009 206.153 201.895 206.5C201.789 206.84 201.632 207.13 201.425 207.37C201.219 207.61 200.969 207.793 200.675 207.92C200.382 208.04 200.055 208.1 199.695 208.1C199.362 208.1 199.052 208.04 198.765 207.92C198.485 207.793 198.239 207.61 198.025 207.37C197.819 207.13 197.659 206.84 197.545 206.5C197.432 206.153 197.375 205.757 197.375 205.31C197.375 204.717 197.469 204.217 197.655 203.81C197.849 203.397 198.122 203.083 198.475 202.87C198.829 202.65 199.245 202.54 199.725 202.54C200.185 202.54 200.589 202.65 200.935 202.87C201.289 203.083 201.565 203.397 201.765 203.81C201.965 204.217 202.065 204.717 202.065 205.31ZM198.275 205.31C198.275 205.73 198.325 206.097 198.425 206.41C198.525 206.717 198.682 206.953 198.895 207.12C199.109 207.287 199.382 207.37 199.715 207.37C200.049 207.37 200.322 207.287 200.535 207.12C200.749 206.953 200.905 206.717 201.005 206.41C201.112 206.097 201.165 205.73 201.165 205.31C201.165 204.883 201.112 204.52 201.005 204.22C200.905 203.92 200.749 203.69 200.535 203.53C200.322 203.363 200.045 203.28 199.705 203.28C199.205 203.28 198.842 203.46 198.615 203.82C198.389 204.18 198.275 204.677 198.275 205.31ZM205.818 202.54C206.418 202.54 206.872 202.697 207.178 203.01C207.492 203.317 207.648 203.817 207.648 204.51V208H206.778V204.57C206.778 204.137 206.688 203.813 206.508 203.6C206.328 203.387 206.052 203.28 205.678 203.28C205.132 203.28 204.752 203.447 204.538 203.78C204.332 204.113 204.228 204.593 204.228 205.22V208H203.358V202.64H204.058L204.188 203.37H204.238C204.345 203.183 204.482 203.03 204.648 202.91C204.815 202.783 204.998 202.69 205.198 202.63C205.398 202.57 205.605 202.54 205.818 202.54ZM211.128 202.55C211.742 202.55 212.198 202.693 212.498 202.98C212.805 203.267 212.958 203.723 212.958 204.35V208H212.328L212.158 207.24H212.118C211.972 207.433 211.822 207.597 211.668 207.73C211.522 207.857 211.348 207.95 211.148 208.01C210.955 208.07 210.715 208.1 210.428 208.1C210.128 208.1 209.858 208.043 209.618 207.93C209.378 207.817 209.188 207.643 209.048 207.41C208.908 207.17 208.838 206.87 208.838 206.51C208.838 205.977 209.035 205.567 209.428 205.28C209.822 204.987 210.428 204.827 211.248 204.8L212.098 204.77V204.45C212.098 204.003 212.008 203.693 211.828 203.52C211.655 203.347 211.405 203.26 211.078 203.26C210.818 203.26 210.568 203.303 210.328 203.39C210.095 203.47 209.872 203.563 209.658 203.67L209.388 203.01C209.615 202.883 209.878 202.777 210.178 202.69C210.478 202.597 210.795 202.55 211.128 202.55ZM211.368 205.41C210.755 205.437 210.328 205.543 210.088 205.73C209.855 205.917 209.738 206.18 209.738 206.52C209.738 206.82 209.822 207.04 209.988 207.18C210.155 207.32 210.372 207.39 210.638 207.39C211.052 207.39 211.398 207.267 211.678 207.02C211.958 206.767 212.098 206.38 212.098 205.86V205.38L211.368 205.41ZM216.241 207.38C216.367 207.38 216.497 207.37 216.631 207.35C216.764 207.323 216.874 207.297 216.961 207.27V207.94C216.867 207.987 216.734 208.023 216.561 208.05C216.394 208.083 216.234 208.1 216.081 208.1C215.814 208.1 215.567 208.053 215.341 207.96C215.114 207.86 214.931 207.69 214.791 207.45C214.657 207.21 214.591 206.873 214.591 206.44V203.32H213.881V202.9L214.611 202.55L214.941 201.41H215.461V202.64H216.921V203.32H215.461V206.42C215.461 206.747 215.534 206.99 215.681 207.15C215.827 207.303 216.014 207.38 216.241 207.38ZM219.918 202.54C220.351 202.54 220.725 202.64 221.038 202.84C221.351 203.04 221.591 203.323 221.758 203.69C221.931 204.05 222.018 204.473 222.018 204.96V205.49H218.578C218.591 206.097 218.735 206.56 219.008 206.88C219.281 207.193 219.665 207.35 220.158 207.35C220.478 207.35 220.761 207.32 221.008 207.26C221.261 207.193 221.521 207.1 221.788 206.98V207.75C221.528 207.87 221.271 207.957 221.018 208.01C220.771 208.07 220.471 208.1 220.118 208.1C219.638 208.1 219.215 207.997 218.848 207.79C218.481 207.583 218.195 207.277 217.988 206.87C217.781 206.457 217.678 205.953 217.678 205.36C217.678 204.773 217.771 204.27 217.958 203.85C218.145 203.43 218.405 203.107 218.738 202.88C219.078 202.653 219.471 202.54 219.918 202.54ZM219.918 203.26C219.531 203.26 219.225 203.397 218.998 203.67C218.771 203.937 218.638 204.31 218.598 204.79H221.118C221.118 204.483 221.075 204.217 220.988 203.99C220.901 203.763 220.768 203.587 220.588 203.46C220.415 203.327 220.191 203.26 219.918 203.26ZM225.06 208.1C224.44 208.1 223.94 207.87 223.56 207.41C223.187 206.943 223 206.25 223 205.33C223 204.41 223.19 203.717 223.57 203.25C223.95 202.777 224.45 202.54 225.07 202.54C225.33 202.54 225.557 202.577 225.75 202.65C225.944 202.717 226.11 202.81 226.25 202.93C226.397 203.05 226.52 203.183 226.62 203.33H226.68C226.674 203.243 226.66 203.117 226.64 202.95C226.627 202.777 226.62 202.64 226.62 202.54V200.4H227.49V208H226.79L226.66 207.28H226.62C226.52 207.433 226.397 207.573 226.25 207.7C226.11 207.82 225.94 207.917 225.74 207.99C225.547 208.063 225.32 208.1 225.06 208.1ZM225.22 207.37C225.74 207.37 226.104 207.217 226.31 206.91C226.524 206.597 226.63 206.127 226.63 205.5V205.34C226.63 204.673 226.53 204.163 226.33 203.81C226.13 203.45 225.757 203.27 225.21 203.27C224.77 203.27 224.44 203.46 224.22 203.84C224.007 204.213 223.9 204.717 223.9 205.35C223.9 205.99 224.007 206.487 224.22 206.84C224.44 207.193 224.774 207.37 225.22 207.37ZM228.951 207.46C228.951 207.213 229.008 207.04 229.121 206.94C229.235 206.84 229.375 206.79 229.541 206.79C229.708 206.79 229.851 206.84 229.971 206.94C230.091 207.04 230.151 207.213 230.151 207.46C230.151 207.7 230.091 207.873 229.971 207.98C229.851 208.087 229.708 208.14 229.541 208.14C229.375 208.14 229.235 208.087 229.121 207.98C229.008 207.873 228.951 207.7 228.951 207.46ZM228.951 203.18C228.951 202.927 229.008 202.75 229.121 202.65C229.235 202.55 229.375 202.5 229.541 202.5C229.708 202.5 229.851 202.55 229.971 202.65C230.091 202.75 230.151 202.927 230.151 203.18C230.151 203.42 230.091 203.593 229.971 203.7C229.851 203.807 229.708 203.86 229.541 203.86C229.375 203.86 229.235 203.807 229.121 203.7C229.008 203.593 228.951 203.42 228.951 203.18Z" fill="#6C7886"/>
<path d="M237.38 207.51C237.027 207.503 236.687 207.473 236.36 207.42C236.04 207.36 235.777 207.28 235.57 207.18V206.33C235.783 206.437 236.057 206.53 236.39 206.61C236.73 206.69 237.06 206.733 237.38 206.74V204.72C237.067 204.627 236.793 204.527 236.56 204.42C236.333 204.307 236.147 204.18 236 204.04C235.853 203.9 235.743 203.74 235.67 203.56C235.603 203.373 235.57 203.16 235.57 202.92C235.57 202.593 235.643 202.313 235.79 202.08C235.937 201.847 236.147 201.663 236.42 201.53C236.693 201.39 237.013 201.31 237.38 201.29V200.41H237.98V201.28C238.313 201.287 238.617 201.327 238.89 201.4C239.17 201.467 239.427 201.55 239.66 201.65L239.39 202.39C239.183 202.303 238.96 202.23 238.72 202.17C238.48 202.103 238.233 202.06 237.98 202.04V204.05C238.393 204.177 238.737 204.313 239.01 204.46C239.29 204.6 239.5 204.777 239.64 204.99C239.787 205.197 239.86 205.467 239.86 205.8C239.86 206.267 239.697 206.647 239.37 206.94C239.05 207.227 238.587 207.403 237.98 207.47V208.58H237.38V207.51ZM237.98 206.69C238.333 206.65 238.593 206.56 238.76 206.42C238.927 206.273 239.01 206.087 239.01 205.86C239.01 205.693 238.977 205.557 238.91 205.45C238.85 205.337 238.747 205.24 238.6 205.16C238.453 205.08 238.247 205.003 237.98 204.93V206.69ZM237.38 202.06C237.167 202.073 236.987 202.117 236.84 202.19C236.7 202.257 236.593 202.347 236.52 202.46C236.453 202.573 236.42 202.703 236.42 202.85C236.42 203.023 236.45 203.173 236.51 203.3C236.57 203.42 236.67 203.523 236.81 203.61C236.95 203.69 237.14 203.763 237.38 203.83V202.06ZM245.561 206.38H244.591V208H243.751V206.38H240.561V205.63L243.701 200.82H244.591V205.59H245.561V206.38ZM243.751 203.34C243.751 203.167 243.751 203.01 243.751 202.87C243.758 202.723 243.764 202.587 243.771 202.46C243.778 202.333 243.781 202.213 243.781 202.1C243.788 201.98 243.794 201.867 243.801 201.76H243.761C243.708 201.887 243.644 202.023 243.571 202.17C243.498 202.317 243.428 202.44 243.361 202.54L241.401 205.59H243.751V203.34ZM250.392 202.53C250.392 202.85 250.332 203.127 250.212 203.36C250.099 203.593 249.939 203.783 249.732 203.93C249.526 204.077 249.279 204.18 248.992 204.24V204.28C249.532 204.347 249.936 204.527 250.202 204.82C250.469 205.113 250.602 205.497 250.602 205.97C250.602 206.383 250.509 206.753 250.322 207.08C250.142 207.4 249.859 207.65 249.472 207.83C249.092 208.01 248.606 208.1 248.012 208.1C247.659 208.1 247.332 208.07 247.032 208.01C246.732 207.957 246.442 207.857 246.162 207.71V206.89C246.442 207.037 246.746 207.153 247.072 207.24C247.399 207.32 247.712 207.36 248.012 207.36C248.606 207.36 249.032 207.237 249.292 206.99C249.552 206.737 249.682 206.39 249.682 205.95C249.682 205.65 249.609 205.41 249.462 205.23C249.322 205.043 249.112 204.907 248.832 204.82C248.559 204.733 248.222 204.69 247.822 204.69H247.192V203.94H247.832C248.206 203.94 248.516 203.883 248.762 203.77C249.009 203.657 249.192 203.5 249.312 203.3C249.439 203.093 249.502 202.857 249.502 202.59C249.502 202.243 249.396 201.977 249.182 201.79C248.969 201.597 248.676 201.5 248.302 201.5C248.062 201.5 247.846 201.527 247.652 201.58C247.459 201.627 247.279 201.697 247.112 201.79C246.952 201.877 246.792 201.98 246.632 202.1L246.202 201.5C246.362 201.367 246.546 201.243 246.752 201.13C246.966 201.017 247.202 200.927 247.462 200.86C247.722 200.793 248.002 200.76 248.302 200.76C249.002 200.76 249.526 200.927 249.872 201.26C250.219 201.593 250.392 202.017 250.392 202.53ZM253.793 200.76C254.187 200.76 254.533 200.827 254.833 200.96C255.14 201.087 255.38 201.277 255.553 201.53C255.727 201.783 255.813 202.097 255.813 202.47C255.813 202.757 255.753 203.007 255.633 203.22C255.52 203.433 255.367 203.623 255.173 203.79C254.987 203.95 254.777 204.093 254.543 204.22C254.817 204.36 255.067 204.52 255.293 204.7C255.52 204.873 255.7 205.077 255.833 205.31C255.967 205.543 256.033 205.823 256.033 206.15C256.033 206.55 255.94 206.897 255.753 207.19C255.573 207.477 255.317 207.7 254.983 207.86C254.657 208.02 254.27 208.1 253.823 208.1C253.337 208.1 252.923 208.023 252.583 207.87C252.25 207.717 251.997 207.5 251.823 207.22C251.65 206.933 251.563 206.587 251.563 206.18C251.563 205.853 251.627 205.57 251.753 205.33C251.88 205.09 252.047 204.883 252.253 204.71C252.467 204.537 252.697 204.39 252.943 204.27C252.73 204.137 252.533 203.987 252.353 203.82C252.18 203.647 252.04 203.45 251.933 203.23C251.833 203.01 251.783 202.753 251.783 202.46C251.783 202.093 251.87 201.787 252.043 201.54C252.223 201.287 252.463 201.093 252.763 200.96C253.07 200.827 253.413 200.76 253.793 200.76ZM252.413 206.19C252.413 206.537 252.527 206.827 252.753 207.06C252.98 207.287 253.33 207.4 253.803 207.4C254.103 207.4 254.353 207.347 254.553 207.24C254.76 207.133 254.917 206.987 255.023 206.8C255.13 206.613 255.183 206.4 255.183 206.16C255.183 205.927 255.123 205.723 255.003 205.55C254.89 205.37 254.73 205.21 254.523 205.07C254.317 204.93 254.077 204.803 253.803 204.69L253.663 204.63C253.397 204.757 253.17 204.893 252.983 205.04C252.797 205.187 252.653 205.353 252.553 205.54C252.46 205.727 252.413 205.943 252.413 206.19ZM253.783 201.47C253.443 201.47 253.163 201.56 252.943 201.74C252.73 201.913 252.623 202.167 252.623 202.5C252.623 202.747 252.677 202.953 252.783 203.12C252.897 203.287 253.043 203.43 253.223 203.55C253.403 203.663 253.603 203.773 253.823 203.88C254.037 203.78 254.227 203.67 254.393 203.55C254.567 203.43 254.703 203.287 254.803 203.12C254.903 202.947 254.953 202.74 254.953 202.5C254.953 202.167 254.847 201.913 254.633 201.74C254.42 201.56 254.137 201.47 253.783 201.47Z" fill="#F4FAFF"/>
<path d="M489.6 585C489.6 586.325 490.675 587.4 492 587.4C493.325 587.4 494.4 586.325 494.4 585C494.4 583.675 493.325 582.6 492 582.6C490.675 582.6 489.6 583.675 489.6 585ZM492 508H492.45C492.45 507.751 492.249 507.55 492 507.55V508ZM432.6 508C432.6 509.325 433.675 510.4 435 510.4C436.325 510.4 437.4 509.325 437.4 508C437.4 506.675 436.325 505.6 435 505.6C433.675 505.6 432.6 506.675 432.6 508ZM492 585H492.45V508H492H491.55V585H492ZM492 508V507.55H435V508V508.45H492V508Z" fill="#6C7886"/>
<path d="M318.6 245C318.6 246.325 319.675 247.4 321 247.4C322.325 247.4 323.4 246.325 323.4 245C323.4 243.675 322.325 242.6 321 242.6C319.675 242.6 318.6 243.675 318.6 245ZM321 204H321.45C321.45 203.751 321.249 203.55 321 203.55V204ZM261.6 204C261.6 205.325 262.675 206.4 264 206.4C265.325 206.4 266.4 205.325 266.4 204C266.4 202.675 265.325 201.6 264 201.6C262.675 201.6 261.6 202.675 261.6 204ZM321 245H321.45V204H321H320.55V245H321ZM321 204V203.55H264V204V204.45H321V204Z" fill="#6C7886"/>
<rect width="734" height="190" fill="url(#paint7_linear_14_4683)"/>
<defs>
<linearGradient id="paint0_linear_14_4683" x1="192.364" y1="406.842" x2="177.342" y2="392.587" gradientUnits="userSpaceOnUse">
<stop stop-color="#29A140"/>
<stop offset="1" stop-color="#F5F565"/>
</linearGradient>
<linearGradient id="paint1_linear_14_4683" x1="700.481" y1="384.738" x2="688.733" y2="383.209" gradientUnits="userSpaceOnUse">
<stop stop-color="#4B5DD9"/>
<stop offset="1" stop-color="#4BA2FF"/>
</linearGradient>
<linearGradient id="paint2_linear_14_4683" x1="410.551" y1="354.351" x2="395.529" y2="340.096" gradientUnits="userSpaceOnUse">
<stop stop-color="#29A140"/>
<stop offset="1" stop-color="#F5F565"/>
</linearGradient>
<linearGradient id="paint3_linear_14_4683" x1="490.718" y1="594.61" x2="478.969" y2="593.081" gradientUnits="userSpaceOnUse">
<stop stop-color="#4B5DD9"/>
<stop offset="1" stop-color="#4BA2FF"/>
</linearGradient>
<linearGradient id="paint4_linear_14_4683" x1="324.833" y1="253.334" x2="313.085" y2="251.805" gradientUnits="userSpaceOnUse">
<stop stop-color="#4B5DD9"/>
<stop offset="1" stop-color="#4BA2FF"/>
</linearGradient>
<linearGradient id="paint5_linear_14_4683" x1="436.772" y1="144.48" x2="421.75" y2="130.225" gradientUnits="userSpaceOnUse">
<stop stop-color="#29A140"/>
<stop offset="1" stop-color="#F5F565"/>
</linearGradient>
<linearGradient id="paint6_linear_14_4683" x1="257.803" y1="664.242" x2="243.548" y2="679.264" gradientUnits="userSpaceOnUse">
<stop stop-color="#29A140"/>
<stop offset="1" stop-color="#F5F565"/>
</linearGradient>
<linearGradient id="paint7_linear_14_4683" x1="367" y1="0" x2="367" y2="190" gradientUnits="userSpaceOnUse">
<stop stop-color="#0D1117"/>
<stop offset="1" stop-color="#0D1117" stop-opacity="0"/>
</linearGradient>
</defs>
</svg>
