<svg width="14" height="14" viewBox="0 0 14 14" fill="none" xmlns="http://www.w3.org/2000/svg">
<path d="M2.16402 10.6192C3.51844 9.85359 5.0832 9.41667 6.75 9.41667C8.4168 9.41667 9.98156 9.85359 11.336 10.6192M8.75 5.41667C8.75 6.52124 7.85457 7.41667 6.75 7.41667C5.64543 7.41667 4.75 6.52124 4.75 5.41667C4.75 4.3121 5.64543 3.41667 6.75 3.41667C7.85457 3.41667 8.75 4.3121 8.75 5.41667ZM12.75 6.75C12.75 10.0637 10.0637 12.75 6.75 12.75C3.43629 12.75 0.75 10.0637 0.75 6.75C0.75 3.43629 3.43629 0.75 6.75 0.75C10.0637 0.75 12.75 3.43629 12.75 6.75Z" stroke="#F4FAFF" stroke-width="1.5" stroke-linecap="round" stroke-linejoin="round"/>
</svg>
