<svg width="17" height="17" viewBox="0 0 17 17" fill="none" xmlns="http://www.w3.org/2000/svg">
<path d="M5.48656 9.36828C5.65513 9.03179 5.75 8.65197 5.75 8.25C5.75 7.84803 5.65513 7.46821 5.48656 7.13172M5.48656 9.36828C5.07611 10.1876 4.22874 10.75 3.25 10.75C1.86929 10.75 0.75 9.63071 0.75 8.25C0.75 6.86929 1.86929 5.75 3.25 5.75C4.22874 5.75 5.07611 6.31243 5.48656 7.13172M5.48656 9.36828L11.0134 12.1317M5.48656 7.13172L11.0134 4.36828M11.0134 4.36828C11.4239 5.18757 12.2713 5.75 13.25 5.75C14.6307 5.75 15.75 4.63071 15.75 3.25C15.75 1.86929 14.6307 0.75 13.25 0.75C11.8693 0.75 10.75 1.86929 10.75 3.25C10.75 3.65197 10.8449 4.03179 11.0134 4.36828ZM11.0134 12.1317C10.8449 12.4682 10.75 12.848 10.75 13.25C10.75 14.6307 11.8693 15.75 13.25 15.75C14.6307 15.75 15.75 14.6307 15.75 13.25C15.75 11.8693 14.6307 10.75 13.25 10.75C12.2713 10.75 11.4239 11.3124 11.0134 12.1317Z" stroke="#6C7886" stroke-width="1.5" stroke-linecap="round" stroke-linejoin="round"/>
</svg>
