<svg width="32" height="32" viewBox="0 0 32 32" fill="none" xmlns="http://www.w3.org/2000/svg">
<path d="M16 0C24.8366 0 32 7.16344 32 16C32 24.8366 24.8366 32 16 32C7.16344 32 0 24.8366 0 16C0 7.16344 7.16344 0 16 0ZM10.6201 13.1064C8.8853 13.1064 7.61449 14.4724 6.80469 16.1006C5.9833 17.7522 5.5498 19.8284 5.5498 21.5801C5.54992 25.1171 7.75142 27.8809 10.1113 28.3555C11.2622 28.5868 12.8145 28.3541 14.0234 28.0898C14.6394 27.9552 15.1879 27.8065 15.582 27.6924C15.7791 27.6353 15.9385 27.5865 16.0488 27.5518C16.1038 27.5344 16.1473 27.5213 16.1768 27.5117C16.1912 27.507 16.2022 27.5026 16.21 27.5C16.2139 27.4987 16.2176 27.4978 16.2197 27.4971L16.2227 27.4961L16.3057 27.458C16.4867 27.3532 16.5757 27.1329 16.5068 26.9268C16.4279 26.6911 16.1722 26.5636 15.9365 26.6426L15.9355 26.6436C15.934 26.6441 15.931 26.6444 15.9277 26.6455C15.9211 26.6477 15.9108 26.6509 15.8975 26.6553C15.8706 26.664 15.8304 26.677 15.7783 26.6934C15.6738 26.7263 15.521 26.7731 15.3311 26.8281C14.9508 26.9383 14.4225 27.0807 13.8311 27.21C12.6253 27.4735 11.2381 27.6634 10.2891 27.4727C8.44909 27.1027 6.45031 24.799 6.4502 21.5801C6.4502 19.9537 6.85678 18.0173 7.61035 16.502C8.37556 14.9633 9.41509 14.0068 10.6201 14.0068C11.9421 14.0069 12.7725 14.5701 13.2803 15.127C13.5373 15.409 13.7132 15.6918 13.8242 15.9033C13.8794 16.0085 13.9183 16.0951 13.9424 16.1533C13.9543 16.1821 13.9628 16.2043 13.9678 16.2178C13.9701 16.2242 13.9718 16.229 13.9727 16.2314V16.2324L13.9736 16.2334L14.0098 16.3154C14.1141 16.4968 14.3356 16.586 14.542 16.5176C14.7481 16.4491 14.8712 16.2457 14.8467 16.0381L14.8271 15.9482V15.9473L14.8262 15.9463L14.8223 15.9346C14.8197 15.9273 14.8159 15.9171 14.8115 15.9053C14.8028 15.8817 14.79 15.8495 14.7734 15.8096C14.7401 15.7292 14.6904 15.6174 14.6211 15.4854C14.4828 15.222 14.2654 14.8716 13.9453 14.5205C13.2981 13.8106 12.238 13.1065 10.6201 13.1064ZM21.9609 7.61719C21.7125 7.6169 21.5102 7.81801 21.5098 8.06641V8.1084C21.51 8.13477 21.5109 8.17346 21.5117 8.22363C21.5133 8.32427 21.5159 8.47194 21.5225 8.66016C21.5355 9.03653 21.5624 9.57755 21.6152 10.2402C21.7209 11.5649 21.933 13.3808 22.3604 15.3418C22.7832 17.2822 23.4187 19.3585 23.9443 21.0176C24.2086 21.8517 24.4433 22.5748 24.6133 23.1328C24.6981 23.4113 24.7646 23.6417 24.8096 23.8193C24.8321 23.9082 24.8483 23.9795 24.8584 24.0342C24.8638 24.0636 24.8657 24.084 24.8672 24.0967C24.8567 24.1142 24.8247 24.1607 24.7324 24.2344C24.5811 24.3552 24.3421 24.4906 24.0215 24.6328C23.3851 24.915 22.5195 25.1842 21.6338 25.4199C20.7524 25.6545 19.8687 25.8507 19.2041 25.9883C18.8722 26.057 18.5955 26.1117 18.4023 26.1484C18.306 26.1668 18.23 26.18 18.1787 26.1895C18.1535 26.1941 18.1341 26.1978 18.1211 26.2002C18.1145 26.2014 18.1087 26.2025 18.1055 26.2031C18.1042 26.2034 18.1032 26.204 18.1025 26.2041H18.1016C17.8569 26.2475 17.6939 26.4809 17.7373 26.7256C17.7807 26.9703 18.0141 27.1333 18.2588 27.0898H18.2598C18.2607 27.0897 18.2628 27.0892 18.2646 27.0889C18.2683 27.0882 18.2735 27.0872 18.2803 27.0859C18.2942 27.0834 18.3152 27.0801 18.3418 27.0752C18.395 27.0654 18.4729 27.0509 18.5713 27.0322C18.7685 26.9947 19.0496 26.9399 19.3867 26.8701C20.0608 26.7306 20.9628 26.5305 21.8662 26.29C22.765 26.0508 23.6846 25.7665 24.3867 25.4551C24.7355 25.3004 25.0548 25.1285 25.2939 24.9375C25.5149 24.7611 25.7695 24.4864 25.7695 24.1133C25.7695 23.9702 25.7286 23.7802 25.6826 23.5986C25.6323 23.4 25.5607 23.1527 25.4746 22.8701C25.3027 22.3059 25.0639 21.5704 24.8027 20.7461C24.2775 19.0885 23.6525 17.0467 23.2393 15.1504C22.8228 13.2394 22.6151 11.4654 22.5117 10.1689C22.4601 9.52121 22.4345 8.99347 22.4219 8.62891C22.4156 8.44677 22.4126 8.30526 22.4111 8.20996C22.4104 8.16259 22.4103 8.12644 22.4102 8.10254V8.06738C22.4103 7.81916 22.2092 7.6177 21.9609 7.61719ZM12.2998 22.8193C12.0665 22.8194 11.8469 22.9268 11.6885 23.0254C11.5153 23.1332 11.3437 23.2756 11.1934 23.4268C11.0431 23.5779 10.902 23.75 10.7949 23.9238C10.6968 24.0832 10.5898 24.3034 10.5898 24.5361C10.5899 24.7524 10.6045 25.0959 10.8115 25.3809C11.0428 25.699 11.42 25.8301 11.8799 25.8301C12.2638 25.8301 12.5313 25.6083 12.6963 25.3799C12.8289 25.1962 12.9182 24.9786 12.9814 24.7773C13.0657 24.8578 13.1481 24.9299 13.2256 24.9922C13.3736 25.1112 13.5073 25.201 13.6055 25.2617C13.6546 25.2921 13.6951 25.3157 13.7246 25.332C13.7394 25.3402 13.7518 25.3459 13.7607 25.3506C13.7651 25.3529 13.7686 25.355 13.7715 25.3564C13.7729 25.3572 13.7744 25.3579 13.7754 25.3584L13.7764 25.3594H13.7773V25.3604L13.9805 24.958L13.7783 25.3604C14.0002 25.4716 14.2702 25.3819 14.3818 25.1602C14.4932 24.9386 14.4046 24.6687 14.1836 24.5566L14.1826 24.5557H14.1816L14.1807 24.5547C14.1771 24.5528 14.1702 24.5499 14.1611 24.5449C14.1431 24.5349 14.1151 24.5184 14.0791 24.4961C14.0066 24.4513 13.9035 24.383 13.7891 24.291C13.5716 24.1161 13.3282 23.8679 13.1572 23.5537V23.5518C13.1458 23.4829 13.1222 23.3836 13.0703 23.2793C13.0176 23.1734 12.931 23.0534 12.793 22.9609C12.652 22.8665 12.4839 22.8193 12.2998 22.8193ZM16.8896 22.2217C16.6674 22.2465 16.3899 22.3189 16.1807 22.5293C16.0444 22.6663 15.9295 22.8181 15.834 22.9648L15.626 22.6162C15.4987 22.403 15.2231 22.3329 15.0098 22.46C14.7964 22.5873 14.7262 22.8637 14.8535 23.0771L16.1133 25.1885C16.2406 25.4018 16.5171 25.4719 16.7305 25.3447C16.9438 25.2174 17.0139 24.9409 16.8867 24.7275L16.3711 23.8643C16.3884 23.825 16.4073 23.7804 16.4307 23.7334C16.5252 23.5433 16.6573 23.327 16.8193 23.1641C16.8207 23.1629 16.8302 23.1553 16.8555 23.1455C16.8851 23.1341 16.9286 23.122 16.9893 23.1152C17.1136 23.1013 17.269 23.1101 17.4336 23.1338C17.5949 23.157 17.7475 23.1926 17.8613 23.2227C17.9177 23.2376 17.9634 23.2504 17.9941 23.2598C18.0094 23.2644 18.021 23.2682 18.0283 23.2705C18.032 23.2717 18.0347 23.273 18.0361 23.2734H18.0371L18.126 23.293C18.3337 23.3183 18.5373 23.1954 18.6064 22.9893C18.6754 22.7831 18.5873 22.5619 18.4062 22.457L18.3232 22.4199H18.3223L18.3203 22.4189C18.3193 22.4186 18.3179 22.4184 18.3164 22.418C18.3131 22.4169 18.3083 22.4149 18.3027 22.4131C18.2914 22.4095 18.2756 22.4044 18.2559 22.3984C18.2161 22.3864 18.1599 22.3706 18.0918 22.3525C17.9563 22.3167 17.7676 22.2728 17.5615 22.2432C17.3586 22.214 17.1197 22.196 16.8896 22.2217ZM12.249 23.9004C12.2312 24.046 12.2003 24.2339 12.1504 24.417C12.0988 24.6064 12.0351 24.7579 11.9668 24.8525C11.9347 24.897 11.9107 24.9172 11.8984 24.9248C11.8902 24.9299 11.8864 24.9307 11.8799 24.9307C11.7293 24.9307 11.6426 24.9092 11.5967 24.8906C11.5563 24.8743 11.5444 24.8589 11.5391 24.8516C11.5162 24.8199 11.4903 24.7414 11.4902 24.5361C11.4902 24.5567 11.4887 24.5123 11.5605 24.3955C11.6241 24.2923 11.7199 24.1743 11.832 24.0615C11.9442 23.9488 12.0617 23.8528 12.1641 23.7891C12.2083 23.7616 12.2422 23.7456 12.2656 23.7354C12.2623 23.7758 12.2573 23.8327 12.249 23.9004ZM20.6406 21.0186C20.3261 20.996 19.9707 21.0207 19.6582 21.1777C19.3628 21.3262 19.1546 21.5468 19.0732 21.833C18.9965 22.1031 19.0546 22.3563 19.127 22.5381C19.2004 22.7227 19.3057 22.8781 19.3848 22.9814C19.4255 23.0347 19.4618 23.0786 19.4893 23.1094C19.4902 23.1104 19.4913 23.1113 19.4922 23.1123C19.7935 23.6554 20.3335 23.9037 20.7334 24.0186C20.9485 24.0803 21.146 24.1098 21.2891 24.125C21.3611 24.1326 21.4209 24.1367 21.4639 24.1387C21.4853 24.1397 21.5028 24.1403 21.5156 24.1406C21.5219 24.1408 21.5272 24.1406 21.5312 24.1406C21.5333 24.1406 21.5357 24.1416 21.5371 24.1416H21.54C21.7885 24.1416 21.9901 23.9398 21.9902 23.6914C21.9902 23.474 21.8359 23.292 21.6309 23.25L21.54 23.2412H21.5361C21.5303 23.2411 21.5196 23.2409 21.5059 23.2402C21.4783 23.2389 21.4362 23.236 21.3838 23.2305C21.2776 23.2192 21.1336 23.197 20.9814 23.1533C20.879 23.1239 20.7819 23.0863 20.6924 23.042L22.5234 22.4287C22.6955 22.3709 22.8162 22.2152 22.8291 22.0342C22.8404 21.8756 22.7669 21.7247 22.6396 21.6348L22.582 21.5996H22.5811L22.5801 21.5986C22.5788 21.598 22.5763 21.5977 22.5742 21.5967C22.5701 21.5947 22.5647 21.5913 22.5576 21.5879C22.5432 21.5809 22.5229 21.5707 22.4971 21.5586C22.4453 21.5344 22.3711 21.5015 22.2803 21.4629C22.0996 21.386 21.8477 21.2873 21.5654 21.2021C21.285 21.1176 20.9611 21.0416 20.6406 21.0186ZM20.5762 21.916C20.715 21.926 20.8622 21.9513 21.0107 21.9854L20.0195 22.3174C19.9976 22.2805 19.9778 22.2425 19.9629 22.2051C19.9306 22.1239 19.9364 22.0866 19.9385 22.0791C19.9389 22.0775 19.9405 22.0706 19.9521 22.0576C19.9656 22.0428 19.9975 22.0141 20.0625 21.9814C20.17 21.9276 20.3399 21.899 20.5762 21.916ZM20.626 2.71289C20.5118 2.57525 20.3271 2.51784 20.1553 2.56738C20.0047 2.61092 19.8886 2.72915 19.8467 2.87695L19.834 2.94238L18.5742 12.6543C18.5423 12.9007 18.7156 13.1261 18.9619 13.1582C19.2082 13.1902 19.4336 13.0167 19.4658 12.7705L20.5986 4.03809C20.7795 4.23407 20.9894 4.45691 21.2207 4.68945C21.9585 5.43122 22.9472 6.3226 23.8574 6.78027C24.7106 7.20916 25.4578 7.53119 25.9922 7.74609C26.2592 7.85348 26.4736 7.93401 26.6221 7.98828C26.6962 8.0154 26.7543 8.03594 26.7939 8.0498C26.8138 8.05674 26.8293 8.06181 26.8398 8.06543C26.845 8.06718 26.8487 8.06934 26.8516 8.07031C26.853 8.0708 26.8546 8.07101 26.8555 8.07129H26.8564L27 7.64453L26.8574 8.07129C27.093 8.15006 27.3478 8.02358 27.4268 7.78809C27.5057 7.55244 27.3782 7.29675 27.1426 7.21777H27.1406C27.1386 7.2171 27.1352 7.21536 27.1309 7.21387C27.1221 7.21088 27.1085 7.20637 27.0908 7.2002C27.0551 7.18769 27.0014 7.16905 26.9316 7.14355C26.7914 7.09229 26.5857 7.01471 26.3281 6.91113C25.8125 6.70376 25.0886 6.39222 24.2617 5.97656C23.4921 5.58962 22.5915 4.79072 21.8594 4.05469C21.4993 3.69266 21.1898 3.35649 20.9707 3.11035C20.8615 2.98766 20.7748 2.88731 20.7158 2.81836C20.6865 2.78407 20.6635 2.75712 20.6484 2.73926C20.641 2.7304 20.6355 2.72314 20.6318 2.71875C20.6301 2.71664 20.6288 2.71488 20.6279 2.71387L20.627 2.71289H20.626Z" fill="#F4FAFF"/>
</svg>
