<svg width="295" height="91" viewBox="0 0 295 91" fill="none" xmlns="http://www.w3.org/2000/svg">
<path d="M275.091 0.0400429C283.907 -0.576372 291.554 6.07035 292.17 14.8862L294.96 54.7923C295.577 63.6082 288.93 71.2546 280.114 71.8711L113.869 83.4953L113.632 76.6821C113.6 75.7707 113.516 74.741 113.38 73.593C113.242 72.3971 113.11 71.3688 112.984 70.5087L113.416 70.4931C114.169 71.4274 115.016 72.311 115.958 73.1427C116.946 73.9248 118.145 74.5554 119.555 75.0345C120.963 75.4656 122.554 75.6502 124.329 75.5883C127.255 75.4861 129.797 74.6523 131.952 73.088C134.105 71.4758 135.728 69.1378 136.822 66.0737C137.964 63.0078 138.458 59.2918 138.306 54.9261C138.073 48.2576 136.579 43.2895 133.823 40.0234C131.067 36.7574 127.506 35.2005 123.14 35.353C121.269 35.4183 119.647 35.7397 118.275 36.316C116.95 36.8906 115.8 37.6509 114.824 38.5974C113.896 39.5424 113.091 40.5553 112.408 41.6358L112.048 41.6485L110.788 36.5054L104.455 36.7262L106.107 84.0383L19.9087 90.0662C11.0928 90.6827 3.44639 84.036 2.82992 75.2201L0.0396156 35.3139C-0.57683 26.4981 6.0699 18.8516 14.8858 18.2351L275.091 0.0400429ZM15.9523 27.2077L16.1085 31.67L21.9304 33.3401L23.285 72.128L17.5911 74.1282L17.7464 78.5895L37.2483 77.9088L37.093 73.4465L31.2731 71.8487L29.9184 33.0608L35.6104 30.9883L35.4541 26.5269L15.9523 27.2077ZM83.2937 36.7447C80.991 36.8252 78.8256 37.4047 76.7979 38.4841C74.7702 39.5637 73.2182 41.2035 72.1422 43.4026L71.6383 43.4202C70.6531 41.3413 69.2079 39.8306 67.3019 38.8885C65.394 37.8984 63.072 37.4511 60.3374 37.5466C58.8504 37.5985 57.419 37.8643 56.043 38.3445C54.6668 38.8248 53.4421 39.5168 52.3688 40.4189C51.3435 41.3193 50.4701 42.4544 49.7494 43.8245L49.39 43.8372L48.0569 38.6961L41.9401 38.909L43.2947 77.6979L51.067 77.4263L50.3833 57.8522C50.2811 54.9257 50.4592 52.4454 50.9165 50.412C51.3723 48.3308 52.2054 46.741 53.4158 45.6421C54.6262 44.5431 56.3104 43.9556 58.469 43.8802C60.0042 43.8266 61.2638 44.1191 62.2467 44.7572C63.2296 45.3954 63.985 46.3773 64.5116 47.7038C65.0382 49.0302 65.3355 50.677 65.4043 52.6437L66.251 76.896L74.0955 76.6216L73.3689 55.8247C73.2282 51.7948 73.7685 48.7016 74.9901 46.5455C76.2581 44.3397 78.4515 43.1824 81.5699 43.0735C83.8245 42.9948 85.5062 43.7044 86.6153 45.2026C87.7706 46.6513 88.4003 48.8635 88.5041 51.838L89.3509 76.0893L97.1231 75.8178L96.2412 50.5585C96.067 45.5691 94.8846 41.9837 92.695 39.8026C90.5533 37.62 87.4194 36.6007 83.2937 36.7447ZM163.021 33.9603C161.39 34.0172 159.892 34.4305 158.525 35.1987C157.158 35.9189 155.942 36.8734 154.879 38.0632C153.863 39.2515 153.02 40.5544 152.349 41.9708L151.917 41.9855L150.668 35.1127L144.551 35.3256L145.906 74.1145L153.678 73.843L152.964 53.4055C152.897 51.4865 153.126 49.7727 153.65 48.2654C154.174 46.7582 154.898 45.4836 155.822 44.4427C156.745 43.354 157.797 42.5247 158.978 41.9552C160.157 41.3378 161.394 41.0062 162.689 40.9609C163.36 40.9375 164.034 40.9617 164.709 41.0342C165.384 41.1067 165.988 41.2066 166.52 41.3321L167.063 34.18C166.532 34.1025 165.882 34.0527 165.113 34.0316C164.342 33.9624 163.645 33.9385 163.021 33.9603ZM185.687 33.1692C182.089 33.2948 178.998 34.1953 176.415 35.8706C173.878 37.4963 171.965 39.8209 170.678 42.8439C169.391 45.8668 168.822 49.513 168.971 53.7825C169.085 57.0448 169.593 59.9098 170.495 62.3761C171.446 64.8405 172.72 66.9093 174.315 68.5827C175.911 70.2561 177.779 71.5119 179.922 72.3497C182.063 73.1395 184.357 73.4918 186.804 73.4064C189.49 73.3126 191.898 72.7964 194.027 71.8575C196.154 70.8706 197.931 69.4875 199.357 67.7086C200.832 65.928 201.934 63.7759 202.662 61.2529C203.391 58.7297 203.7 55.86 203.587 52.6457C203.437 48.3281 202.565 44.7077 200.974 41.7852C199.431 38.8613 197.337 36.6765 194.693 35.2319C192.047 33.7393 189.045 33.052 185.687 33.1692ZM230.894 32.3107L224.417 55.2328C224.114 56.2041 223.816 57.2955 223.522 58.5066C223.226 59.6696 222.955 60.8319 222.707 61.9932C222.506 63.105 222.371 64.0711 222.304 64.89L222.016 64.8998C221.891 64.0876 221.691 63.134 221.412 62.0391C221.134 60.9442 220.806 59.8025 220.428 58.615C220.098 57.4257 219.725 56.3576 219.308 55.4115L211.247 32.9973L202.971 33.2864L218.215 71.5889L226.635 71.2949L239.241 32.0197L230.894 32.3107ZM257.36 30.666C254.05 30.7816 251.152 31.6994 248.666 33.4192C246.227 35.0895 244.363 37.4602 243.077 40.5312C241.792 43.6022 241.226 47.3209 241.378 51.6866C241.529 56.0044 242.424 59.6242 244.063 62.545C245.7 65.4176 247.912 67.5495 250.698 68.9412C253.485 70.3329 256.63 70.9679 260.132 70.8456C262.818 70.7518 265.09 70.4569 266.946 69.9598C268.85 69.461 270.698 68.7471 272.49 67.82L272.27 61.4873C270.383 62.4658 268.512 63.2276 266.658 63.7727C264.85 64.2681 262.77 64.5569 260.419 64.639C257.109 64.7545 254.505 63.7893 252.609 61.7422C250.712 59.695 249.646 56.6818 249.411 52.7033L273.807 51.8516L273.66 47.6774C273.535 44.0793 272.778 40.9838 271.391 38.3904C270.051 35.7953 268.182 33.8426 265.783 32.5334C263.382 31.1763 260.574 30.5538 257.36 30.666ZM121.272 41.6866C124.15 41.5861 126.328 42.7352 127.805 45.1332C129.329 47.5297 130.165 50.8391 130.313 55.0609C130.41 57.8434 130.184 60.301 129.634 62.4337C129.132 64.5646 128.279 66.2518 127.073 67.4947C125.866 68.6897 124.302 69.3205 122.383 69.3875C120.129 69.4662 118.311 69.0013 116.931 67.9928C115.597 66.9346 114.606 65.3837 113.959 63.341C113.357 61.2486 113.005 58.715 112.901 55.7407L112.86 54.5892C112.761 51.7588 112.968 49.4219 113.48 47.5788C114.038 45.6862 114.95 44.2617 116.213 43.3049C117.475 42.3002 119.161 41.7603 121.272 41.6866ZM185.692 39.5096C187.899 39.4326 189.694 39.922 191.075 40.9785C192.456 41.9871 193.516 43.4875 194.258 45.479C195 47.4704 195.423 49.9536 195.527 52.9279C195.628 55.8063 195.379 58.3129 194.781 60.4472C194.229 62.5318 193.277 64.1502 191.924 65.3021C190.619 66.4523 188.888 67.0648 186.729 67.1402C184.619 67.2139 182.848 66.724 181.418 65.6694C180.037 64.6129 178.973 63.0647 178.229 61.0254C177.532 58.9362 177.134 56.452 177.033 53.5735C176.881 49.2077 177.481 45.7998 178.837 43.3508C180.192 40.9019 182.478 39.6219 185.692 39.5096ZM257.566 36.567C259.389 36.5034 260.891 36.8835 262.072 37.7067C263.302 38.5284 264.232 39.6968 264.861 41.2119C265.49 42.7271 265.84 44.4924 265.911 46.5074L249.431 47.0826C249.557 43.8119 250.333 41.2624 251.758 39.4354C253.183 37.6086 255.12 36.6524 257.566 36.567Z" fill="#0D1117"/>
</svg>
