<svg width="231" height="86" viewBox="0 0 231 86" fill="none" xmlns="http://www.w3.org/2000/svg">
<path d="M211.009 0.0402075C219.861 -0.578536 227.539 6.09557 228.158 14.9474L230.96 55.0186C231.579 63.8704 224.905 71.5484 216.053 72.1675L173.147 75.1674C175.439 73.7956 177.118 71.8931 178.181 69.456C179.301 66.8873 179.765 63.7734 179.573 60.1151L177.508 20.6921L171.081 21.0285L170.483 26.2006L170.195 26.2163C168.792 24.3108 167.126 22.9255 165.198 22.0612C163.319 21.1943 161.199 20.8225 158.841 20.9461C155.808 21.1051 153.228 22.061 151.099 23.8136C149.019 25.5638 147.456 27.9867 146.412 31.0824C145.413 34.1273 145.025 37.7682 145.247 42.0041C145.577 48.3097 147.136 53.1756 149.922 56.6014C152.705 59.979 156.36 61.5487 160.884 61.3115C163.339 61.1828 165.433 60.6149 167.166 59.6071C168.944 58.5485 170.383 56.9768 171.481 54.8921L171.769 54.8773C171.746 55.3612 171.738 56.1336 171.745 57.1947C171.75 58.208 171.769 59.0284 171.802 59.6542L171.87 60.9536C172.041 64.2267 171.356 66.7968 169.812 68.6636C168.32 70.5759 166.081 71.61 163.097 71.7664C161.364 71.8572 159.673 71.8252 158.024 71.6703C156.425 71.5611 154.892 71.3041 153.423 70.8986C151.956 70.541 150.579 70.0574 149.292 69.4491L149.644 76.1638C150.166 76.3593 150.697 76.5368 151.239 76.6992L19.9915 85.8773C11.1396 86.4963 3.46177 79.822 2.84253 70.9701L0.0397784 30.899C-0.579021 22.047 6.09594 14.369 14.9479 13.75L211.009 0.0402075ZM44.4857 16.2242C41.651 15.5522 38.1636 15.3247 34.0239 15.5417L19.4384 16.3056L22.1402 67.8595L39.6863 66.9396C43.2483 66.7529 46.2748 66.0152 48.7654 64.7262C51.3041 63.4347 53.215 61.6688 54.4974 59.4296C55.7771 57.1423 56.3344 54.4343 56.1704 51.3057C56.0291 48.6101 55.4571 46.4437 54.4542 44.8068C53.4996 43.1678 52.2298 41.9552 50.6443 41.1695C49.0561 40.3357 47.3377 39.7984 45.4909 39.5573L45.4723 39.1964C47.2356 38.7661 48.7406 38.011 49.9873 36.9321C51.2314 35.805 52.1498 34.4536 52.743 32.878C53.3336 31.2542 53.5766 29.4314 53.4706 27.4097C53.3067 24.2809 52.477 21.8147 50.9827 20.0106C49.4859 18.1583 47.3204 16.8962 44.4857 16.2242ZM82.625 25.0856C81.8501 25.0297 81.1499 25.0175 80.5244 25.0502C78.8878 25.136 77.39 25.577 76.0319 26.3722C74.6714 27.1192 73.4676 28.0991 72.4211 29.3122C71.4227 30.5229 70.5987 31.8454 69.9498 33.2791L69.5164 33.3026L68.1424 26.4232L62.0054 26.7448L64.0452 65.6628L71.8425 65.2548L70.7687 44.749C70.6678 42.8237 70.8666 41.0993 71.3659 39.5769C71.8653 38.0544 72.5705 36.7626 73.4802 35.7013C74.3874 34.5919 75.4281 33.7402 76.6037 33.1476C77.7768 32.5069 79.0139 32.1527 80.3135 32.0846C80.9873 32.0493 81.6637 32.0619 82.3425 32.1228C83.0215 32.1838 83.6295 32.2729 84.1666 32.3896L84.5863 25.1993C84.0518 25.1308 83.3977 25.0933 82.625 25.0856ZM89.1916 25.3209L91.2313 64.2378L99.1012 63.826L97.0614 24.908L89.1916 25.3209ZM128.642 7.25206L129.407 21.8376C129.46 22.8483 129.568 24.001 129.732 25.2954C129.942 26.5394 130.114 27.496 130.245 28.1649L129.812 28.1874C129.083 27.1638 128.19 26.2452 127.134 25.4317C126.077 24.6183 124.863 24.0057 123.49 23.5949C122.114 23.1361 120.488 22.9563 118.611 23.0546C114.23 23.2841 110.781 25.1787 108.265 28.7376C105.748 32.2965 104.666 37.4218 105.017 44.1125C105.365 50.755 106.951 55.6919 109.775 58.9226C112.647 62.1506 116.249 63.6509 120.581 63.4239C122.458 63.3255 124.057 62.9767 125.377 62.3765C126.745 61.7739 127.912 61.0128 128.877 60.0935C129.84 59.126 130.63 58.0704 131.246 56.9279L131.535 56.9132L133.179 62.0402L139.317 61.7185L136.44 6.84312L128.642 7.25206ZM36.9287 43.3358C39.5278 43.1996 41.5912 43.4296 43.1187 44.0252C44.6943 44.6184 45.8517 45.5236 46.5912 46.7397C47.3307 47.9559 47.744 49.382 47.8298 51.0184C47.9711 53.7138 47.3384 55.9192 45.9322 57.634C44.5258 59.3488 41.9444 60.3047 38.1898 60.5015L29.8149 60.9408L28.9137 43.7565L36.9287 43.3358ZM209.655 20.4548C207.221 19.1344 204.391 18.5588 201.165 18.7279C197.844 18.9019 194.951 19.8742 192.486 21.6444C190.066 23.364 188.237 25.777 187 28.8827C185.763 31.9884 185.259 35.7321 185.488 40.1124C185.716 44.4443 186.678 48.0619 188.375 50.9654C190.069 53.821 192.327 55.9237 195.149 57.2721C197.971 58.6205 201.139 59.2019 204.653 59.0177C207.348 58.8765 209.624 58.5402 211.478 58.0086C213.381 57.4745 215.225 56.7261 217.008 55.7639L216.675 49.4101C214.797 50.4256 212.932 51.2232 211.08 51.8029C209.274 52.3319 207.192 52.658 204.833 52.7816C201.512 52.9557 198.881 52.0322 196.941 50.0103C195.001 47.9882 193.878 44.9813 193.572 40.991L218.049 39.7083L217.829 35.5209C217.64 31.9109 216.826 28.8161 215.388 26.2369C213.998 23.655 212.087 21.7272 209.655 20.4548ZM120.817 29.2377C124.379 29.0512 126.873 30.1275 128.299 32.4661C129.724 34.8048 130.557 38.2609 130.796 42.8337L130.857 43.989C131.077 48.1766 130.544 51.3663 129.259 53.5574C128.019 55.6976 125.715 56.8562 122.346 57.0329C119.506 57.1817 117.302 56.1146 115.734 53.8319C114.167 51.549 113.268 48.2163 113.039 43.836C112.809 39.4558 113.351 35.9764 114.663 33.3977C115.974 30.7709 118.025 29.384 120.817 29.2377ZM161.051 27.2018C163.217 27.0883 165 27.4777 166.398 28.3698C167.842 29.2112 168.931 30.6507 169.665 32.6877C170.445 34.674 170.922 37.3278 171.096 40.6488L171.172 42.0933C171.288 44.3074 171.195 46.2187 170.893 47.8273C170.637 49.3852 170.15 50.69 169.433 51.7412C168.764 52.7898 167.864 53.5852 166.734 54.1271C165.604 54.669 164.221 54.9828 162.584 55.0686C159.792 55.2148 157.613 54.1466 156.045 51.8637C154.477 49.5808 153.574 46.1768 153.337 41.652C153.178 38.6195 153.357 36.0515 153.875 33.9489C154.44 31.8438 155.322 30.2289 156.518 29.1043C157.711 27.9318 159.222 27.2977 161.051 27.2018ZM34.6574 22.0965C38.2193 21.9098 40.8475 22.3275 42.542 23.3488C44.2367 24.3701 45.1527 26.1804 45.2889 28.7797C45.4226 31.3308 44.8493 33.2915 43.5698 34.6618C42.2901 36.0321 39.8209 36.8129 36.1628 37.0046L28.5812 37.4028L27.7977 22.4564L34.6574 22.0965ZM201.476 24.6492C203.305 24.5534 204.82 24.9083 206.021 25.7142C207.269 26.5175 208.223 27.6739 208.881 29.1838C209.54 30.6938 209.922 32.4598 210.028 34.4814L193.493 35.3483C193.562 32.0624 194.296 29.4896 195.695 27.6304C197.094 25.7713 199.022 24.7778 201.476 24.6492ZM92.4591 10.3068C91.2076 10.3724 90.1659 10.7643 89.3347 11.4837C88.5037 12.2029 88.1307 13.3571 88.2138 14.9454C88.2945 16.4856 88.7866 17.5942 89.6907 18.2709C90.5925 18.8994 91.6695 19.1808 92.921 19.1152C94.0761 19.0546 95.0693 18.6654 95.9003 17.9463C96.7289 17.1789 97.1029 16.0247 97.0222 14.4845C96.939 12.896 96.4461 11.7875 95.5443 11.159C94.6426 10.5306 93.6144 10.2463 92.4591 10.3068Z" fill="#0D1117"/>
</svg>
