<svg width="291" height="90" viewBox="0 0 291 90" fill="none" xmlns="http://www.w3.org/2000/svg">
<path d="M271.066 0.0400934C279.893 -0.577069 287.549 6.07802 288.167 14.905L290.96 54.8615C291.578 63.6884 284.922 71.3445 276.095 71.9618L19.9338 89.8747C11.1069 90.4919 3.45073 83.8358 2.83349 75.0089L0.0396656 35.0524C-0.577517 26.2255 6.07761 18.5693 14.9045 17.9521L271.066 0.0400934ZM19.7187 26.8059L21.5151 78.2525L48.9673 77.2932L48.7336 70.5927L29.2795 71.2714L28.6908 54.4116L46.992 53.7721L46.7631 47.2154L28.461 47.8539L27.9486 33.1553L47.4027 32.4757L47.1709 25.8475L19.7187 26.8059ZM96.4164 36.0313C94.1107 36.1118 91.9418 36.692 89.9115 37.7729C87.8813 38.8538 86.3282 40.4958 85.2509 42.6975L84.7463 42.7151C83.7598 40.6334 82.3121 39.1201 80.4035 38.1767C78.4933 37.1854 76.169 36.7376 73.4311 36.8331C71.942 36.8851 70.5083 37.1521 69.1304 37.633C67.7525 38.114 66.5262 38.8059 65.4516 39.7091C64.425 40.6106 63.5505 41.7472 62.8289 43.119L62.469 43.1317L61.1352 37.9841L55.0107 38.1983L56.366 77.0351L64.148 76.7632L63.4635 57.1644C63.3612 54.2345 63.5396 51.7516 63.9974 49.7158C64.4537 47.6318 65.2878 46.0392 66.4999 44.9388C67.7119 43.8385 69.3989 43.2502 71.5604 43.1747C73.0973 43.1211 74.3578 43.4141 75.3419 44.0529C76.3261 44.6918 77.0823 45.6759 77.6096 47.0041C78.1369 48.3323 78.4347 49.981 78.5034 51.9503L79.3513 76.2322L87.2057 75.9584L86.4781 55.1343C86.3372 51.0995 86.8783 48.0022 88.1014 45.8434C89.3709 43.635 91.5672 42.476 94.6894 42.367C96.9471 42.2882 98.6307 42.9996 99.7412 44.4998C100.898 45.9503 101.528 48.1644 101.632 51.1426L102.481 75.4245L110.262 75.1526L109.379 49.8625C109.205 44.867 108.022 41.2769 105.83 39.093C103.685 36.9075 100.547 35.8871 96.4164 36.0313ZM117.048 20.0888L118.96 74.8495L124.797 74.6451L125.999 69.8417L126.575 69.8222C127.636 71.2761 129.027 72.5263 130.747 73.5724C132.513 74.5685 134.789 75.0181 137.575 74.9209C140.505 74.8186 143.049 73.9838 145.207 72.4175C147.363 70.8032 148.989 68.4857 150.086 65.4657C151.183 62.4456 151.654 58.7019 151.498 54.2346C151.266 47.6058 149.746 42.6569 146.939 39.3883C144.18 36.1182 140.614 34.5594 136.243 34.7121C133.505 34.8077 131.266 35.4394 129.528 36.6063C127.837 37.7714 126.516 39.1879 125.564 40.8562L125.204 40.8689C125.272 40.0489 125.305 38.9416 125.304 37.547C125.35 36.1026 125.346 34.5878 125.29 33.0027L124.83 19.8169L117.048 20.0888ZM176.243 33.2433C174.61 33.3004 173.11 33.7132 171.742 34.4823C170.373 35.2034 169.155 36.16 168.091 37.3514C167.074 38.5411 166.23 39.8449 165.558 41.263L165.126 41.2786L163.876 34.3962L157.751 34.6104L159.107 73.4472L166.889 73.1754L166.174 52.7121C166.107 50.7908 166.336 49.0756 166.86 47.5664C167.385 46.0572 168.11 44.7813 169.035 43.739C169.959 42.6486 171.012 41.8186 172.195 41.2483C173.375 40.63 174.614 40.2982 175.911 40.2528C176.583 40.2293 177.258 40.2536 177.934 40.3261C178.61 40.3987 179.215 40.4978 179.748 40.6234L180.291 33.4623C179.759 33.3848 179.108 33.3359 178.338 33.3147C177.566 33.2455 176.868 33.2215 176.243 33.2433ZM198.217 32.4757C195.672 32.5646 193.257 32.9861 190.975 33.7391C188.74 34.4423 186.75 35.3049 185.006 36.3276L187.577 41.793C189.182 40.9194 190.839 40.164 192.548 39.5272C194.257 38.8904 196 38.541 197.777 38.4789C199.891 38.4051 201.545 38.9241 202.738 40.0367C203.979 41.1476 204.65 43.1444 204.751 46.0262L204.826 48.1884L198.637 48.6206C192.88 49.014 188.62 50.2934 185.858 52.4578C183.144 54.6207 181.856 57.6719 181.993 61.6108C182.086 64.2525 182.667 66.4442 183.738 68.1862C184.807 69.8802 186.221 71.1302 187.981 71.9344C189.739 72.6905 191.699 73.0308 193.86 72.9553C195.925 72.8832 197.647 72.6061 199.025 72.1251C200.451 71.6425 201.676 70.927 202.701 69.9777C203.774 69.0264 204.839 67.8341 205.895 66.4025L206.183 66.3927L207.885 71.7437L213.433 71.5501L212.515 45.2508C212.356 40.6876 211.062 37.3899 208.635 35.3585C206.254 33.2774 202.781 32.3163 198.217 32.4757ZM236.417 31.1418C233.006 31.2609 230.005 32.0874 227.413 33.6208C224.82 35.1061 222.807 37.3646 221.374 40.3965C219.941 43.4284 219.308 47.3462 219.476 52.1498C219.635 56.7129 220.463 60.4592 221.96 63.3886C223.503 66.2685 225.573 68.3606 228.167 69.6647C230.81 70.9671 233.836 71.5587 237.247 71.4396C239.456 71.3624 241.347 71.1047 242.919 70.6651C244.49 70.2255 245.934 69.5738 247.251 68.7103L247.02 62.0812C245.702 62.8967 244.258 63.5727 242.69 64.1084C241.17 64.6424 239.425 64.9431 237.455 65.0119C235.438 65.0824 233.69 64.6385 232.214 63.6801C230.784 62.672 229.674 61.1718 228.883 59.1798C228.092 57.1875 227.645 54.7259 227.542 51.7958C227.435 48.7215 227.707 46.163 228.357 44.1203C229.005 42.0298 230.008 40.4555 231.366 39.3981C232.77 38.291 234.578 37.6985 236.787 37.6213C238.036 37.5777 239.364 37.7238 240.77 38.0594C242.177 38.395 243.489 38.7827 244.706 39.2211L246.87 33.0135C245.649 32.479 244.094 32.028 242.206 31.6611C240.364 31.2445 238.434 31.0714 236.417 31.1418ZM267.042 30.072C263.728 30.1878 260.826 31.1076 258.337 32.8297C255.895 34.5021 254.03 36.8759 252.743 39.9506C251.455 43.0254 250.887 46.7482 251.04 51.1191C251.191 55.4423 252.087 59.0667 253.728 61.9912C255.368 64.8678 257.583 67.0029 260.373 68.3964C263.163 69.7898 266.311 70.4247 269.817 70.3023C272.507 70.2084 274.782 69.9131 276.64 69.4154C278.546 68.916 280.397 68.2021 282.193 67.2738L281.972 60.9332C280.082 61.913 278.208 62.6757 276.352 63.2214C274.541 63.7174 272.46 64.0066 270.106 64.0888C266.792 64.2046 264.185 63.2371 262.286 61.1874C260.387 59.1376 259.319 56.1207 259.084 52.1371L283.51 51.2844L283.364 47.1049C283.238 43.5023 282.481 40.4027 281.091 37.8061C279.75 35.2078 277.879 33.2526 275.476 31.9417C273.072 30.5828 270.261 29.9596 267.042 30.072ZM134.442 40.9794C137.324 40.8787 139.502 41.9571 140.976 44.2142C142.497 46.4696 143.337 49.8788 143.497 54.442C143.654 58.9573 143.055 62.4415 141.697 64.8936C140.388 67.3438 138.365 68.6167 135.627 68.7123C132.12 68.8347 129.678 67.7418 128.298 65.4334C126.966 63.0752 126.221 59.6623 126.065 55.1949L126.044 54.619C125.939 51.5928 126.14 49.0846 126.648 47.0951C127.155 45.1055 128.041 43.6077 129.305 42.6017C130.568 41.5958 132.28 41.0549 134.442 40.9794ZM205.118 56.5464C205.236 59.9089 204.411 62.4631 202.644 64.2081C200.926 65.9514 198.745 66.8686 196.103 66.9609C194.374 67.0213 192.941 66.6145 191.804 65.7405C190.716 64.8647 190.136 63.4181 190.066 61.4006C189.985 59.095 190.691 57.2906 192.185 55.988C193.677 54.6374 196.389 53.7977 200.321 53.468L205 53.1599L205.118 56.5464ZM267.249 35.9804C269.074 35.9167 270.578 36.2972 271.761 37.1216C272.993 37.9443 273.923 39.1143 274.553 40.6312C275.183 42.1483 275.533 43.9158 275.604 45.9333L259.104 46.5093C259.23 43.2347 260.006 40.6827 261.433 38.8534C262.86 37.0241 264.799 36.066 267.249 35.9804Z" fill="#0D1117"/>
</svg>
