<svg width="13" height="13" viewBox="0 0 13 13" fill="none" xmlns="http://www.w3.org/2000/svg">
<path fill-rule="evenodd" clip-rule="evenodd" d="M6.4 12.8C9.93462 12.8 12.8 9.93462 12.8 6.4C12.8 2.86538 9.93462 0 6.4 0C2.86538 0 0 2.86538 0 6.4C0 9.93462 2.86538 12.8 6.4 12.8ZM9.36568 5.36568C9.6781 5.05327 9.6781 4.54673 9.36568 4.23431C9.05327 3.9219 8.54673 3.9219 8.23431 4.23431L5.6 6.86863L4.56568 5.83431C4.25327 5.52189 3.74673 5.52189 3.43431 5.83431C3.1219 6.14673 3.1219 6.65326 3.43431 6.96568L5.03431 8.56568C5.34673 8.8781 5.85327 8.8781 6.16568 8.56568L9.36568 5.36568Z" fill="#29A140"/>
</svg>
