<svg width="14" height="14" viewBox="0 0 14 14" fill="none" xmlns="http://www.w3.org/2000/svg">
<path d="M12.75 6.75C12.75 10.0637 10.0637 12.75 6.75 12.75M12.75 6.75C12.75 3.43629 10.0637 0.75 6.75 0.75M12.75 6.75H0.75M6.75 12.75C3.43629 12.75 0.75 10.0637 0.75 6.75M6.75 12.75C7.85457 12.75 8.75 10.0637 8.75 6.75C8.75 3.43629 7.85457 0.75 6.75 0.75M6.75 12.75C5.64543 12.75 4.75 10.0637 4.75 6.75C4.75 3.43629 5.64543 0.75 6.75 0.75M0.75 6.75C0.75 3.43629 3.43629 0.75 6.75 0.75" stroke="#F4FAFF" stroke-width="1.5" stroke-linecap="round" stroke-linejoin="round"/>
</svg>
