<svg width="62" height="82" viewBox="0 0 62 82" fill="none" xmlns="http://www.w3.org/2000/svg">
<path d="M57.1395 79.5942C57.1395 80.923 58.2167 82.0001 59.5454 82.0001C60.8741 82.0001 61.9513 80.923 61.9513 79.5942C61.9513 78.2655 60.8741 77.1883 59.5454 77.1883C58.2167 77.1883 57.1395 78.2655 57.1395 79.5942ZM59.5454 2.40578H59.9965C59.9965 2.15664 59.7945 1.95467 59.5454 1.95467V2.40578ZM2.46172e-05 2.40578C2.46172e-05 3.7345 1.07717 4.81165 2.4059 4.81165C3.73463 4.81165 4.81177 3.7345 4.81177 2.40578C4.81177 1.07705 3.73463 -9.77519e-05 2.4059 -9.77519e-05C1.07717 -9.77519e-05 2.46172e-05 1.07705 2.46172e-05 2.40578ZM59.5454 79.5942H59.9965V2.40578H59.5454H59.0943V79.5942H59.5454ZM59.5454 2.40578V1.95467H2.4059V2.40578V2.85688H59.5454V2.40578Z" fill="#6C7886"/>
</svg>
