<svg width="28" height="62" viewBox="0 0 28 62" fill="none" xmlns="http://www.w3.org/2000/svg">
<path d="M2.48376e-05 59.5727C2.48376e-05 60.9133 1.08682 62.0001 2.42744 62.0001C3.76806 62.0001 4.85485 60.9133 4.85485 59.5727C4.85485 58.2321 3.76806 57.1453 2.42744 57.1453C1.08682 57.1453 2.48376e-05 58.2321 2.48376e-05 59.5727ZM2.42744 2.42732V1.97218C2.17607 1.97218 1.9723 2.17595 1.9723 2.42732H2.42744ZM22.757 2.42732C22.757 3.76794 23.8438 4.85473 25.1844 4.85473C26.5251 4.85473 27.6119 3.76794 27.6119 2.42732C27.6119 1.08669 26.5251 -9.8627e-05 25.1844 -9.8627e-05C23.8438 -9.8627e-05 22.757 1.08669 22.757 2.42732ZM2.42744 59.5727H2.88258V2.42732H2.42744H1.9723V59.5727H2.42744ZM2.42744 2.42732V2.88246H25.1844V2.42732V1.97218H2.42744V2.42732Z" fill="#6C7886"/>
</svg>
